<svg width="100" height="100" viewBox="0 0 100 100" fill="none" xmlns="http://www.w3.org/2000/svg">
<rect width="100" height="100" fill="white"/>
<path d="M0 47.5V69H50H100V47.5V26H50H0V47.5ZM96.2478 47.5V65.9692H49.9702H3.69267V47.5V29.0308H49.9702H96.2478V47.5Z" fill="#00A4E4"/>
<path d="M72.6027 35.0262C71.3222 35.1162 69.863 35.3482 68.7433 35.6371C66.3788 36.2433 64.5682 37.1241 62.8052 38.5259C60.7683 40.1455 59.452 41.9971 58.7195 44.2608C58.3145 45.5347 58.2251 46.1456 58.2251 47.6894C58.2192 49.0912 58.2668 49.4748 58.5467 50.564C59.0411 52.4583 60.2025 54.3667 61.751 55.8348C62.3585 56.4078 63.6688 57.4213 64.3419 57.838C66.5396 59.1971 69.1245 60.0022 72.0786 60.239C73.1447 60.329 75.4735 60.2769 76.4145 60.149C78.6778 59.8365 80.679 59.1735 82.3466 58.1742C84.7111 56.7583 86.5158 54.6888 87.3734 52.4062C87.8499 51.1323 88.0286 50.133 88.0703 48.4093L88.106 47.1685H81.7808H75.4616V48.897V50.6256H79.2734C82.2811 50.6256 83.0852 50.6398 83.0852 50.6824C83.0852 50.8292 82.7219 51.8663 82.5551 52.2025C81.888 53.5333 80.7326 54.7267 79.3627 55.4986C78.785 55.8206 77.6355 56.2847 77.0101 56.4457C74.5563 57.0756 71.6617 56.8909 69.2376 55.9485C66.1822 54.7645 64.0322 52.4772 63.3472 49.6879C62.9124 47.9167 63.0852 45.9088 63.8118 44.2561C65.2174 41.0547 68.4753 38.9568 72.6802 38.5448C73.5616 38.4596 75.5033 38.5117 76.3192 38.6443C79.0232 39.0752 81.3639 40.2686 83.1149 42.1155L83.4604 42.4849L83.8833 42.1582C84.1155 41.9829 84.8541 41.4194 85.5271 40.9127C86.2001 40.406 86.754 39.9797 86.7659 39.9655C86.8017 39.8992 85.807 38.971 85.1638 38.4738C83.5795 37.2473 81.4592 36.2243 79.3329 35.6608C77.6057 35.2014 76.355 35.0404 74.33 35.0215C73.5259 35.0167 72.7516 35.0167 72.6027 35.0262Z" fill="#00A4E4"/>
<path d="M26.5456 35.8123C26.4681 35.9497 23.2222 41.4289 19.3329 47.983C15.4497 54.542 12.2692 59.917 12.2692 59.9312C12.2692 59.9454 13.4127 59.9501 14.8124 59.9454L17.3496 59.9312L19.0232 56.9856L20.6968 54.04L27.1888 54.0352H33.6867L35.3008 56.9808L36.9148 59.9312L39.4521 59.9454C40.8457 59.9501 41.9893 59.9406 41.9893 59.9264C41.9893 59.8885 42.1799 60.2248 32.3109 42.7406C30.947 40.316 29.4878 37.7398 29.0828 37.0105C28.6718 36.2812 28.3085 35.6561 28.2787 35.6229C28.2311 35.585 27.9929 35.5661 27.4568 35.5661H26.6885L26.5456 35.8123ZM29.5116 46.3398C30.7088 48.4945 31.6796 50.2704 31.6677 50.2798C31.6557 50.2893 29.6426 50.2893 27.2007 50.2846L22.7576 50.2704L25.0268 46.3256C26.2716 44.1566 27.302 42.3902 27.3139 42.3997C27.3258 42.4091 28.3145 44.1803 29.5116 46.3398Z" fill="#00A4E4"/>
<path d="M47.2305 47.9025V59.9075H49.5533H51.8761V47.9025V35.8976H49.5533H47.2305V47.9025Z" fill="#00A4E4"/>
</svg>
