<svg width="100" height="100" viewBox="0 0 100 100" fill="none" xmlns="http://www.w3.org/2000/svg">
<rect width="100" height="100" fill="white"/>
<path d="M15.4635 49.4647H19.7639V56.164C18.4221 56.6423 16.7279 56.9044 14.9668 56.9044C7.82922 56.9044 3.63419 50.1251 3.63419 43.5043C3.63419 37.0107 7.42868 32.4557 12.7225 32.4557C16.0723 32.4557 18.0216 33.7144 19.7653 35.4677V37.6534L23.035 34.0268C20.9669 32.4749 17.9722 31 13.6917 31C4.29509 31 0 38.4561 0 44.5838C0 53.306 5.72772 58.56 12.9254 58.56C16.4154 58.56 19.5142 57.9692 23.0937 56.8644V49.943C23.0937 49.589 23.2339 49.3462 23.4436 49.1329L24.5731 47.8802H16.9028L15.4635 49.4647Z" fill="url(#paint0_linear_4_23)"/>
<path d="M34.728 40.3604C29.3194 40.3604 25.9683 44.7437 25.9683 49.3965C25.9683 53.4126 28.6679 58.1809 34.1379 58.1809C39.3997 58.1809 42.628 53.7887 42.628 49.0545C42.628 44.6445 39.4731 40.3619 34.728 40.3619V40.3604ZM33.8309 41.6384C37.644 41.6384 39.3423 47.1486 39.3423 51.0788C39.3423 56.9237 35.389 57.0392 34.9163 57.0392C33.1072 57.0392 31.8428 55.8264 30.8962 54.2359C30.0631 52.7699 29.2487 50.0467 29.2487 47.3856C29.2487 44.7349 30.0311 43.4406 31.262 42.4884C32.2687 41.7746 33.2113 41.6384 33.8295 41.6384H33.8309Z" fill="url(#paint1_linear_4_23)"/>
<path d="M70.0838 40.3589C65.3601 40.3589 62.8047 43.6761 62.8047 47.3797C62.8047 50.1992 64.6258 53.38 68.3828 53.38H69.3335C69.3335 53.38 69.0745 54.0775 69.0732 54.7513C69.0732 55.745 69.3949 56.3032 70.0785 57.1621C63.6138 57.5989 61.0156 60.4911 61.0156 63.5994C61.0156 66.3212 63.3654 69 68.3041 69C74.1506 69 77.1787 65.4 77.1787 61.8667C77.1787 59.376 76.0599 58.0106 73.2267 55.6561C72.3936 54.9379 72.2321 54.4803 72.2321 53.9427C72.2321 53.1727 72.6473 52.6633 72.7995 52.4708C73.0679 52.1568 73.5325 51.7985 73.706 51.6267C74.658 50.7323 76.0025 49.4084 76.0025 46.7666C76.0025 44.954 75.3229 43.3947 73.7741 41.9346H75.6647L77.0852 40.3589H70.0851H70.0838ZM68.7807 41.5377C69.6379 41.5377 70.3535 41.8739 71.1092 42.5714C71.9477 43.4095 73.2868 45.6619 73.2868 48.4488C73.2868 51.4564 71.18 52.2797 70.0398 52.2797C69.4817 52.2797 68.8127 52.1065 68.2467 51.6771C66.989 50.7723 65.7407 48.3644 65.7407 45.499C65.7407 42.9134 67.1291 41.5377 68.7807 41.5377ZM70.6513 58.3039C71.0117 58.3039 71.2708 58.3364 71.2708 58.3364C71.2708 58.3364 72.1212 59.0102 72.7154 59.5137C74.0986 60.7265 74.9611 61.6535 74.9611 63.3047C74.9611 65.5748 73.0625 67.3548 69.9877 67.3548C66.6125 67.3548 64.033 65.6118 64.033 62.7656C64.033 60.4081 65.8007 58.3794 70.6513 58.3039Z" fill="url(#paint2_linear_4_23)"/>
<path d="M78.1077 57.6612H84.5924L85.5804 56.5653L83.7206 56.3077C83.2199 56.2396 82.9222 55.7598 82.9222 55.2948V33.5693C82.9222 33.1413 83.1011 32.9221 83.2319 32.7829L84.4015 31.4857H78.8714L77.4321 33.0821H79.5817V55.5865C79.5817 55.9063 79.4909 56.124 79.296 56.3476L78.1077 57.6612Z" fill="url(#paint3_linear_4_23)"/>
<path d="M93.379 40.3604C89.7581 40.3604 85.9116 43.4213 85.9116 48.9168C85.9116 53.4555 88.6713 58.1809 93.8276 58.1809C95.1134 58.1809 96.1721 57.9973 97.1641 57.4924C98.2282 56.9489 99.2523 56.0663 99.9999 54.9571C98.5887 55.7464 97.4378 56.2647 95.9091 56.2647C93.0038 56.2647 90.2027 53.9398 89.2228 49.6661L99.4859 45.0651C98.8931 42.7209 97.2215 40.3604 93.3803 40.3604H93.379ZM92.7088 41.6177C94.6514 41.6177 96.0559 43.3902 96.0559 44.7778C96.0559 45.2265 95.8023 45.4634 95.3002 45.6826L88.9917 48.5125C88.9917 48.5125 88.8209 47.6314 88.8209 46.6792C88.8209 42.6854 91.4244 41.6177 92.7088 41.6177Z" fill="url(#paint4_linear_4_23)"/>
<path d="M53.0808 40.3604C47.6722 40.3604 44.321 44.7437 44.321 49.3965C44.321 53.4126 47.0207 58.1809 52.4907 58.1809C57.7525 58.1809 60.9808 53.7887 60.9808 49.0545C60.9808 44.6445 57.8259 40.3619 53.0808 40.3619V40.3604ZM52.1837 41.6384C55.9968 41.6384 57.695 47.1486 57.695 51.0788C57.695 56.9237 53.7417 57.0392 53.2691 57.0392C51.46 57.0392 50.1956 55.8264 49.249 54.2359C48.4159 52.7699 47.6014 50.0467 47.6014 47.3856C47.6014 44.7349 48.3838 43.4406 49.6148 42.4884C50.6215 41.7746 51.5641 41.6384 52.1823 41.6384H52.1837Z" fill="url(#paint5_linear_4_23)"/>
<defs>
<linearGradient id="paint0_linear_4_23" x1="13.4931" y1="30.9258" x2="13.4931" y2="58.5616" gradientUnits="userSpaceOnUse">
<stop stop-color="#196EEF"/>
<stop offset="0.5" stop-color="#186DEE"/>
<stop offset="1" stop-color="#1065E7"/>
</linearGradient>
<linearGradient id="paint1_linear_4_23" x1="34.4957" y1="40.3218" x2="34.4957" y2="58.1915" gradientUnits="userSpaceOnUse">
<stop stop-color="#DE5744"/>
<stop offset="0.5" stop-color="#DB4632"/>
<stop offset="1" stop-color="#D13D29"/>
</linearGradient>
<linearGradient id="paint2_linear_4_23" x1="69.7937" y1="40.3218" x2="69.7937" y2="69.0138" gradientUnits="userSpaceOnUse">
<stop stop-color="#1A6FEF"/>
<stop offset="0.25" stop-color="#1E72EF"/>
<stop offset="0.5" stop-color="#166BEC"/>
<stop offset="0.75" stop-color="#1267E9"/>
<stop offset="1" stop-color="#1063E5" stop-opacity="0.87"/>
</linearGradient>
<linearGradient id="paint3_linear_4_23" x1="81.4517" y1="31.428" x2="81.4517" y2="57.6894" gradientUnits="userSpaceOnUse">
<stop stop-color="#0AA561"/>
<stop offset="0.5" stop-color="#009B58"/>
<stop offset="1" stop-color="#00914B"/>
</linearGradient>
<linearGradient id="paint4_linear_4_23" x1="93.3374" y1="40.3218" x2="93.3374" y2="58.1535" gradientUnits="userSpaceOnUse">
<stop stop-color="#DE5644"/>
<stop offset="0.5" stop-color="#DA4531"/>
<stop offset="1" stop-color="#CE3A28"/>
</linearGradient>
<linearGradient id="paint5_linear_4_23" x1="52.9175" y1="40.3578" x2="52.9175" y2="58.1535" gradientUnits="userSpaceOnUse">
<stop stop-color="#FFC01A"/>
<stop offset="0.5" stop-color="#FFBA03"/>
<stop offset="1" stop-color="#FFB300"/>
</linearGradient>
</defs>
</svg>
