<svg width="100" height="100" viewBox="0 0 100 100" fill="none" xmlns="http://www.w3.org/2000/svg">
<rect width="100" height="100" fill="white"/>
<g clip-path="url(#clip0_4_5)">
<path d="M6.64482 51.1498C5.72487 51.1498 4.91505 50.9099 4.2153 50.4302C3.51562 49.935 2.97142 49.254 2.5827 48.3872C2.19399 47.5052 1.99963 46.4915 1.99963 45.3462C1.99963 43.9688 2.2847 42.7616 2.8548 41.7249C3.43787 40.688 4.26063 39.8909 5.32317 39.3337C6.3986 38.7767 7.65545 38.4981 9.09376 38.4981C9.75457 38.4981 10.2923 38.5522 10.7069 38.6606V38.1731C10.7069 36.9969 10.5255 36.1225 10.1627 35.5499C9.79992 34.9618 9.24924 34.6677 8.51069 34.6677C7.31864 34.6677 6.55418 35.4183 6.2173 36.9195C6.11365 37.3528 5.89987 37.5386 5.57594 37.4766L2.93264 36.9195C2.73828 36.8731 2.60222 36.7725 2.52448 36.6177C2.4597 36.4629 2.45322 36.254 2.50506 35.9909C2.84193 34.4124 3.55458 33.1897 4.64296 32.323C5.74432 31.4409 7.12419 30.9998 8.78272 30.9998C10.7522 30.9998 12.2487 31.6343 13.2723 32.9034C14.3089 34.1724 14.8272 36.0219 14.8272 38.4518V50.1285C14.8272 50.2987 14.7754 50.4457 14.6718 50.5695C14.581 50.6778 14.4643 50.7319 14.3218 50.7319H11.7953C11.4844 50.7319 11.29 50.5307 11.2123 50.1285L10.8236 47.9464H10.6681C10.3182 48.9678 9.79349 49.757 9.09381 50.3141C8.40709 50.8713 7.59062 51.1498 6.64482 51.1498ZM6.23666 44.789C6.23666 45.6093 6.41159 46.267 6.76143 46.7622C7.12424 47.242 7.61012 47.4819 8.21909 47.4819C9.02243 47.4819 9.63789 47.0562 10.0655 46.2051C10.4931 45.3384 10.7069 44.1003 10.7069 42.4907V41.2603C10.3441 41.1829 10.0007 41.1442 9.67676 41.1442C8.61429 41.1442 7.77209 41.4769 7.15024 42.1425C6.54126 42.7925 6.23666 43.6748 6.23666 44.789ZM17.2372 32.0212C17.2372 31.8509 17.2826 31.7116 17.3732 31.6033C17.4769 31.4795 17.6 31.4176 17.7425 31.4176H20.3081C20.4506 31.4176 20.5673 31.4717 20.6579 31.5801C20.7617 31.6884 20.8264 31.8354 20.8523 32.0211L21.2411 34.2961H21.3965C21.7464 33.2283 22.2452 32.4158 22.8931 31.8586C23.5539 31.286 24.3313 30.9997 25.2253 30.9997C26.1841 30.9997 27.007 31.3015 27.6936 31.9051C28.3934 32.5086 28.931 33.3676 29.3069 34.4818H29.4623C30.0323 33.3056 30.6739 32.4312 31.3865 31.8586C32.0991 31.286 32.8959 30.9997 33.777 30.9997C34.7357 30.9997 35.5651 31.3092 36.2646 31.9282C36.9775 32.5473 37.5216 33.4294 37.8972 34.5747C38.273 35.7199 38.4611 37.0741 38.4611 38.6371V50.1282C38.4611 50.2984 38.4091 50.4454 38.3054 50.5692C38.2146 50.6775 38.0981 50.7316 37.9556 50.7316H34.8459C34.7033 50.7316 34.5804 50.6775 34.4767 50.5692C34.3859 50.4454 34.3406 50.2984 34.3406 50.1282V39.0083C34.3406 37.8785 34.1592 37.0119 33.7965 36.4084C33.4335 35.8048 32.909 35.503 32.2221 35.503C31.4707 35.503 30.8941 35.8589 30.4923 36.5709C30.1036 37.2828 29.9094 38.3119 29.9094 39.6584V50.1281C29.9094 50.2983 29.8574 50.4452 29.7537 50.569C29.6632 50.6774 29.5464 50.7315 29.4039 50.7315H26.2942C26.1519 50.7315 26.0287 50.6774 25.925 50.569C25.8342 50.4452 25.7889 50.2983 25.7889 50.1281V39.0082C25.7889 37.8784 25.6076 37.0118 25.2448 36.4082C24.8819 35.8047 24.3572 35.5029 23.6706 35.5029C22.9189 35.5029 22.3424 35.8588 21.9407 36.5707C21.552 37.2826 21.3576 38.3118 21.3576 39.6582V50.1279C21.3576 50.2981 21.3059 50.4451 21.2022 50.5689C21.1115 50.6772 20.9948 50.7314 20.8523 50.7314H17.7426C17.6001 50.7314 17.477 50.6772 17.3733 50.5689C17.2827 50.4451 17.2372 50.2981 17.2372 50.1279L17.2372 32.0212ZM40.482 45.3461C40.482 43.9687 40.7673 42.7615 41.3374 41.7248C41.9203 40.6879 42.7431 39.8908 43.8058 39.3337C44.8811 38.7766 46.138 38.498 47.5761 38.498C48.237 38.498 48.7747 38.5521 49.1894 38.6605V38.173C49.1894 36.9968 49.0077 36.1224 48.645 35.5498C48.2823 34.9617 47.7317 34.6676 46.9932 34.6676C45.801 34.6676 45.0365 35.4182 44.6997 36.9194C44.5961 37.3528 44.3823 37.5385 44.0584 37.4766L41.4151 36.9194C41.2206 36.873 41.0845 36.7724 41.0068 36.6176C40.9422 36.4629 40.9356 36.2539 40.9875 35.9909C41.3243 34.4123 42.0369 33.1896 43.1256 32.3229C44.2266 31.4408 45.6066 30.9997 47.2651 30.9997C49.2346 30.9997 50.7311 31.6342 51.7547 32.9033C52.7912 34.1724 53.3096 36.0218 53.3096 38.4517V50.1284C53.3096 50.2986 53.2579 50.4456 53.1542 50.5694C53.0634 50.6777 52.9468 50.7319 52.8043 50.7319H50.2778C49.9668 50.7319 49.7723 50.5307 49.6946 50.1284L49.3059 47.9463H49.1505C48.8006 48.9677 48.2758 49.7569 47.5761 50.3141C46.8895 50.8712 46.0732 51.1498 45.1273 51.1498C44.1814 51.1498 43.3975 50.9099 42.6978 50.4301C41.998 49.9349 41.4539 49.254 41.0652 48.3872C40.6765 47.5052 40.482 46.4915 40.482 45.3461ZM44.7193 44.7889C44.7193 45.6092 44.894 46.2669 45.2438 46.7621C45.6066 47.2419 46.0925 47.4818 46.7014 47.4818C47.5048 47.4818 48.1202 47.0561 48.548 46.205C48.9753 45.3384 49.1894 44.1002 49.1894 42.4907V41.2602C48.8264 41.1828 48.4832 41.1441 48.1591 41.1441C47.0968 41.1441 46.2546 41.4768 45.6325 42.1424C45.0236 42.7924 44.7193 43.6747 44.7193 44.7889ZM55.4088 47.3193C55.4088 46.9789 55.4865 46.6847 55.6418 46.4371L62.2888 35.3175H56.0694C55.9269 35.3175 55.8039 35.2634 55.7002 35.155C55.6094 35.0312 55.5642 34.8842 55.5642 34.714V32.0211C55.5642 31.8509 55.6094 31.7116 55.7002 31.6032C55.8039 31.4794 55.9269 31.4175 56.0694 31.4175H66.2925C66.4353 31.4175 66.5518 31.4794 66.6424 31.6032C66.746 31.7116 66.7978 31.8509 66.7978 32.0211V34.83C66.7978 35.1705 66.7201 35.4646 66.5647 35.7122L60.5395 45.6015C60.9025 45.5242 61.2716 45.4855 61.6475 45.4855C62.5805 45.4855 63.4357 45.586 64.2131 45.7872C65.0034 45.973 65.8197 46.2825 66.6619 46.7158C66.9598 46.8706 67.1088 47.1336 67.1088 47.5052V50.1748C67.1088 50.4224 67.0442 50.5926 66.9145 50.6854C66.7849 50.7628 66.6231 50.7551 66.4286 50.6623C65.4569 50.2289 64.5951 49.9272 63.8437 49.7569C63.1051 49.5712 62.2953 49.4783 61.4142 49.4783C60.5331 49.4783 59.691 49.5712 58.8488 49.7569C58.0194 49.9426 57.0997 50.2443 56.089 50.6623C55.8945 50.7397 55.7327 50.7397 55.603 50.6623C55.4736 50.5693 55.4088 50.4068 55.4088 50.1748V47.3193ZM67.9641 41.0746C67.9641 39.1866 68.2685 37.4764 68.8774 35.9444C69.4866 34.3968 70.3222 33.1896 71.3846 32.3229C72.4602 31.4407 73.6521 30.9996 74.9607 30.9996C76.2694 30.9996 77.4744 31.4407 78.5368 32.3229C79.6124 33.1895 80.4547 34.3967 81.0636 35.9444C81.6854 37.4765 81.9964 39.1867 81.9964 41.0746C81.9964 42.9628 81.6854 44.6808 81.0636 46.2282C80.4547 47.7604 79.6124 48.9675 78.5368 49.8497C77.4744 50.7163 76.2825 51.1497 74.9607 51.1497C73.6392 51.1497 72.4602 50.7163 71.3846 49.8497C70.3222 48.9675 69.4866 47.7604 68.8774 46.2282C68.2685 44.6806 67.9641 42.9628 67.9641 41.0746ZM72.2397 41.0746C72.2397 43.0401 72.4731 44.5569 72.9395 45.6247C73.4061 46.6771 74.0796 47.2033 74.9607 47.2033C75.8418 47.2033 76.5223 46.6771 77.0015 45.6247C77.481 44.5569 77.7206 43.0402 77.7206 41.0746C77.7206 39.1092 77.481 37.6003 77.0015 36.5479C76.5223 35.48 75.8418 34.946 74.9607 34.946C74.0796 34.946 73.4061 35.48 72.9395 36.5479C72.4731 37.6002 72.2397 39.1092 72.2397 41.0746ZM84.0954 32.0211C84.0954 31.8509 84.1409 31.7116 84.2317 31.6032C84.3354 31.4794 84.4583 31.4175 84.6009 31.4175H87.1662C87.3088 31.4175 87.4255 31.4717 87.5161 31.58C87.6198 31.6884 87.6846 31.8354 87.7106 32.0211L88.0993 34.2961H88.2547C88.6045 33.2437 89.1162 32.4312 89.7902 31.8586C90.4769 31.2859 91.2803 30.9997 92.2002 30.9997C93.1847 30.9997 94.0334 31.3092 94.746 31.9282C95.4717 32.5473 96.0289 33.4294 96.4176 34.5746C96.8064 35.7199 97.0006 37.074 97.0006 38.6371V50.1282C97.0006 50.2984 96.9489 50.4453 96.8452 50.5691C96.7546 50.6775 96.6379 50.7316 96.4954 50.7316H93.3856C93.2431 50.7316 93.1201 50.6775 93.0165 50.5691C92.9257 50.4453 92.8804 50.2984 92.8804 50.1282V39.0083C92.8804 37.8785 92.6859 37.0119 92.2972 36.4083C91.9085 35.8048 91.3579 35.503 90.6453 35.503C89.8548 35.503 89.2523 35.8589 88.8379 36.5708C88.4232 37.2827 88.2158 38.3119 88.2158 39.6583V50.128C88.2158 50.2982 88.1641 50.4452 88.0604 50.569C87.9696 50.6774 87.8531 50.7315 87.7106 50.7315H84.6009C84.4583 50.7315 84.3354 50.6774 84.2317 50.569C84.1409 50.4452 84.0954 50.2982 84.0954 50.128V32.0211Z" fill="#171D27"/>
<path d="M12.8065 53.4012C12.5603 53.6334 12.5085 54.0202 12.651 54.5619C12.7806 55.0417 13.0851 55.6375 13.5645 56.3494C15.495 59.1972 17.7948 61.5648 20.4641 63.453C23.1334 65.3411 25.9905 66.734 29.0353 67.6316C32.0931 68.5445 35.2157 69.0011 38.4031 69.0011C42.4847 69.0011 46.3718 68.2894 50.0645 66.8655C53.7571 65.457 56.8411 63.476 59.3159 60.9226C60.1839 60.0096 60.6181 59.2821 60.6181 58.7404C60.6181 58.5392 60.5468 58.338 60.4043 58.1368C60.2099 57.9048 59.9765 57.8274 59.7046 57.9048C59.4324 57.982 59.0501 58.1755 58.5578 58.4851C56.1866 59.9709 53.2974 61.1546 49.8895 62.0368C46.495 62.9347 42.9511 63.3833 39.2584 63.3833C34.6847 63.3833 30.2663 62.6406 26.0033 61.1547C21.7406 59.669 17.9636 57.3475 14.6725 54.1906C14.1931 53.7418 13.8043 53.4554 13.5063 53.3316C13.2213 53.2078 12.9879 53.231 12.8065 53.4012Z" fill="#FF6201"/>
<path d="M55.9909 54.5632C55.7187 54.8728 55.6475 55.1978 55.7771 55.5383C55.8677 55.7859 56.0426 55.9251 56.3019 55.9561C56.561 56.0025 56.9301 55.9716 57.4097 55.8633C58.1871 55.6621 58.9969 55.5228 59.8389 55.4454C60.6812 55.3835 61.4133 55.399 62.0354 55.4918C62.6574 55.6001 63.0459 55.7859 63.2015 56.0489C63.4348 56.4669 63.3505 57.3489 62.9486 58.6955C62.5602 60.0418 62.0289 61.3496 61.3549 62.6187C61.0959 63.1294 60.9405 63.5316 60.8885 63.826C60.8368 64.12 60.9016 64.3674 61.083 64.5687C61.1995 64.7079 61.3292 64.7776 61.4717 64.7776C61.8476 64.7776 62.3917 64.3831 63.1043 63.5937C64.3869 62.2629 65.2874 60.6841 65.806 58.858C66.0908 57.9139 66.2657 56.9235 66.3305 55.8867C66.3953 54.8498 66.2981 54.1069 66.039 53.6581C65.7928 53.2247 65.2485 52.8687 64.4065 52.5903C63.5771 52.3117 62.7415 52.1723 61.8993 52.1723C60.2536 52.1723 58.6923 52.6367 57.2154 53.5653C56.6711 53.9213 56.2631 54.2538 55.9909 54.5632Z" fill="#FF6201"/>
</g>
<defs>
<clipPath id="clip0_4_5">
<rect width="95" height="38" fill="white" transform="translate(2 31)"/>
</clipPath>
</defs>
</svg>
