<svg width="100" height="100" viewBox="0 0 100 100" fill="none" xmlns="http://www.w3.org/2000/svg">
<rect width="100" height="100" fill="white"/>
<path d="M84.6047 37.5701C84.0704 37.9076 74.6367 42.2355 74.6367 51.859C74.6367 62.9901 86.6407 66.928 87 67.0255C86.9447 67.2655 85.093 72.4185 80.6709 77.6691C76.7279 82.2895 72.6099 86.9025 66.3453 86.9025C60.0807 86.9025 58.4685 83.9397 51.2366 83.9397C44.1889 83.9397 41.6831 87 35.9528 87C30.2226 87 26.2243 82.7246 21.6272 77.474C16.3023 71.3084 12 61.73 12 52.6391C12 38.0576 23.6448 30.3243 35.1053 30.3243C41.1948 30.3243 46.271 33.5797 50.0942 33.5797C53.7332 33.5797 59.4082 30.1293 66.3361 30.1293C68.9617 30.1293 78.3954 30.3243 84.6047 37.5701ZM63.0472 23.9562C65.9123 21.1884 67.9391 17.348 67.9391 13.5077C67.9391 12.9751 67.8838 12.435 67.764 12C63.1024 12.1425 57.5564 14.5278 54.2123 17.6856C51.5867 20.1158 49.1361 23.9562 49.1361 27.8491C49.1361 28.4341 49.2559 29.0192 49.3111 29.2067C49.6059 29.2517 50.085 29.3042 50.5641 29.3042C54.7466 29.3042 60.007 27.024 63.0472 23.9562Z" fill="black"/>
</svg>
