<svg width="100" height="100" viewBox="0 0 100 100" fill="none" xmlns="http://www.w3.org/2000/svg">
<rect width="100" height="100" fill="white"/>
<path d="M91.1995 69C93.9703 59.5132 97.8627 50.2899 100 46.9695C99.6703 46.1262 99.1557 44.914 98.5752 43.5964C95.8175 47.233 92.5981 55.2968 89.7217 64.4147C90.2099 65.8904 90.7245 67.4189 91.1995 69Z" fill="#E31837"/>
<path d="M89.9328 43.2274C89.5238 42.4369 89.0752 41.699 88.7321 41.0666C87.6898 43.122 86.3308 46.2316 84.6155 51.1331C84.9849 51.9237 85.3808 52.8724 85.803 53.8211C87.1224 49.9209 88.4551 46.2316 89.9328 43.2274Z" fill="#012169"/>
<path d="M92.4001 38.6949C91.8987 37.5881 90.157 35.0055 88.9563 33.8988C88.6001 34.4258 88.0987 35.2164 87.7556 35.7961C88.191 36.2705 89.8139 38.0097 91.1994 40.803C91.5556 40.1179 92.057 39.2746 92.4001 38.6949Z" fill="#E31837"/>
<path d="M86.5021 38.0097C84.9584 40.8557 83.3354 44.7559 82.4514 47.0222C82.7681 47.6019 83.0847 48.0763 83.5202 48.9195C85.4729 43.6491 87.0035 40.4341 87.6104 39.38C87.175 38.7476 86.766 38.3259 86.5021 38.0097Z" fill="#012169"/>
<path d="M93.561 37.061C93.9173 36.5867 94.3263 36.165 94.6825 35.7434C93.6534 34.0042 92.3603 32.1595 91.1992 31C91.0145 31.2108 90.4603 31.7906 90.0777 32.2649C90.4735 32.7393 91.7798 33.9515 93.561 37.061ZM87.0562 56.8779C87.4784 57.8793 87.927 59.2496 88.3624 60.4091C91.252 51.4494 94.102 44.5451 97.2291 40.6449C96.7936 39.749 96.411 38.9584 95.9228 38.0097C94.0492 39.9071 90.843 45.0194 87.0562 56.8779Z" fill="#E31837"/>
<path d="M5 66.2594H7.11111C8.17986 66.2594 8.68125 64.0458 8.68125 60.9362C8.68125 58.4064 8.35139 56.7198 7.66528 56.1928C8.27222 55.613 8.54931 54.1373 8.54931 51.9764C8.54931 49.2358 8.04792 47.0222 6.97917 47.0222H5.01319V66.2594H5ZM6.83403 58.0902C7.22986 58.0902 7.50694 58.8807 7.50694 60.4619C7.50694 62.1484 7.24306 62.8336 6.83403 62.8336H6.14792V58.0375H6.83403V58.0902ZM6.70208 50.3953C7.09792 50.3953 7.375 51.0805 7.375 52.6616C7.375 54.2427 7.11111 54.9279 6.70208 54.9279H6.14792V50.3953H6.70208ZM12.9431 46.9695H11.7556L9.94792 66.2594H11.1486L11.4785 62.2538H13.2201L13.55 66.2594H14.7639L12.9431 46.9695ZM12.3493 51.6075L12.9167 58.7226H11.7556L12.3493 51.6075ZM20.7806 46.9695H19.6854V59.8821L17.6271 46.9695H16.4V66.2594H17.4951V53.3995L19.5535 66.2594H20.7806V46.9695ZM25.834 66.2594L24.2507 56.4563V66.2594H23.0764V46.9695H24.2507V56.2455L25.7549 46.9695H27.0611L25.4778 56.2455L27.2063 66.2594H25.834ZM31.3625 56.6144C31.3625 60.4619 31.9431 62.8336 32.6951 62.8336C33.4472 62.8336 34.0278 60.4619 34.0278 56.6144C34.0278 52.767 33.4472 50.3953 32.6951 50.3953C31.9431 50.3953 31.3625 52.767 31.3625 56.6144ZM30.1222 56.6144C30.1354 50.975 31.125 46.5479 32.6951 46.5479C34.2653 46.5479 35.2549 50.975 35.2681 56.6144C35.2549 62.2538 34.2653 66.681 32.6951 66.681C31.125 66.681 30.1354 62.2538 30.1222 56.6144ZM36.8778 66.2594H38.0521V58.6699H39.5826V54.9806H38.0521V50.6588H39.8993L40.1104 46.9695H36.8778V66.2594ZM45.5861 46.9695H44.3986L42.591 66.2594H43.7917L44.1215 62.2538H45.8632L46.1931 66.2594H47.4069L45.5861 46.9695ZM44.9924 51.6075L45.5597 58.7226H44.3986L44.9924 51.6075ZM54.3736 46.9695H53.0014L51.7479 57.405L50.4944 46.9695H49.1222V66.2594H50.1778V53.3467L51.7347 66.2594L53.2917 53.3467V66.2594H54.3868L54.3736 46.9695ZM56.6562 66.2594H59.9549V62.57H57.8306V58.2483H59.5063V54.6644H57.8306V50.6588H59.7701L59.9813 46.9695H56.6562V66.2594ZM64.4278 66.2594H65.7076L64.5069 58.0902C65.1667 57.3523 65.4833 55.5076 65.4833 52.8197C65.4833 49.3412 64.9556 47.0222 63.7681 47.0222H61.9076V66.3121H63.0556V58.7226H63.3722L64.4278 66.2594ZM63.5438 50.5534C64.0319 50.5534 64.2826 51.3967 64.2826 53.0305C64.2826 54.6644 64.0319 55.5076 63.5438 55.5076H63.0424V50.5534H63.5438ZM67.4625 66.2594H68.6368V47.0222H67.4625V66.2594ZM74.416 61.0943C73.9674 62.3592 73.5715 62.7809 73.1625 62.7809C72.2653 62.7809 71.6319 60.3038 71.6319 56.6144C71.6319 52.9251 72.2521 50.448 73.1229 50.448C73.5188 50.448 73.9146 50.8696 74.35 52.1345V47.7601C73.9542 46.8641 73.4924 46.4952 72.9778 46.4952C71.3813 46.4952 70.3785 50.9223 70.3653 56.5617C70.3785 62.2538 71.3549 66.6283 72.9778 66.6283C73.5188 66.6283 73.9806 66.2594 74.4028 65.3634V61.0943H74.416ZM78.7174 46.9695H77.5299L75.7222 66.2594H76.9229L77.2528 62.2538H78.9944L79.3243 66.2594H80.5382L78.7174 46.9695ZM78.1236 51.6075L78.691 58.7226H77.5299L78.1236 51.6075Z" fill="#012169"/>
</svg>
