<svg width="100" height="100" viewBox="0 0 100 100" fill="none" xmlns="http://www.w3.org/2000/svg">
<rect width="100" height="100" fill="white"/>
<path fill-rule="evenodd" clip-rule="evenodd" d="M14.3744 37.7375C15.0846 37.1896 15.2626 36.2798 15.2626 35.5515C15.2626 34.6405 15.0846 33.9133 14.5525 33.1839C14.1974 32.4566 13.4882 31.9099 12.6 31.5457C11.7117 31.1815 10.2935 31 8.341 31H3.06741e-05V31.3642C0.71021 31.3642 1.24337 31.5457 1.59741 31.7283C1.9525 31.9099 2.13057 32.0925 2.13057 32.2751C2.30759 32.4577 2.48566 33.185 2.48566 34.0959V45.7479C2.48566 46.8404 2.30759 47.3872 2.13057 47.7513C2.13057 47.9329 1.9525 48.1155 1.59741 48.297C1.24337 48.4796 0.71021 48.4796 3.06741e-05 48.4796V49.0264H8.87311C11.3577 49.0264 13.3102 48.4796 14.5525 47.3882C15.6167 46.4773 16.1498 45.3848 16.1498 43.9282C16.1498 42.6542 15.6167 41.7432 14.7295 40.8344C14.0193 40.2866 12.777 39.9224 11.1807 39.3778C12.7781 39.0115 13.8423 38.4658 14.3744 37.7375ZM6.38956 31.9099C7.63186 31.9099 8.69713 32.0925 9.22924 32.4577C9.76135 32.6393 10.2945 33.0034 10.4715 33.548C10.8266 34.0959 11.0047 34.6405 11.0047 35.5515C11.0047 36.2798 10.8266 37.0081 10.4715 37.3723C10.1154 37.919 9.76031 38.2832 9.2282 38.6473C8.51802 39.0115 7.63186 39.0115 6.38956 39.0115V31.9099ZM9.40522 40.4692C10.1154 40.8334 10.6486 41.1975 11.0036 41.9248C11.3587 42.652 11.5358 43.3814 11.5358 44.1097C11.5358 44.8391 11.3587 45.5664 11.0036 46.1131C10.6486 46.6588 10.2935 47.2056 9.76031 47.5698C9.05118 47.7513 8.51802 47.9329 7.80784 47.9329C7.45275 47.9329 7.0987 47.9329 6.74361 47.5698C6.56555 47.3872 6.38852 47.0219 6.38852 46.4773V40.104C7.80888 40.104 8.69713 40.2855 9.40522 40.4692Z" fill="#2E3192"/>
<path fill-rule="evenodd" clip-rule="evenodd" d="M22.9675 39.2496C23.7881 39.2496 24.2994 39.2496 24.5045 39.3554C25.0168 39.4611 25.324 39.7761 25.6312 40.0901C25.9384 40.4062 26.1435 40.9316 26.2456 41.6674H26.5528V38.6185H18.0494V38.8289H18.4597C18.7679 38.8289 18.973 38.9346 19.1771 39.1439C19.2802 39.1439 19.3823 39.3543 19.4843 39.46C19.4843 39.5647 19.4843 39.8808 19.4843 40.4062V47.2366C19.4843 47.7631 19.4843 48.0781 19.3812 48.1838C19.3812 48.3931 19.2792 48.4989 19.074 48.6046C18.972 48.7103 18.6638 48.7103 18.4586 48.7103H18.0483V49.0253H26.7558L27.2692 45.6625H26.962C26.7569 46.6087 26.3466 47.3444 25.7322 47.7652C25.2199 48.186 24.4004 48.3953 23.4788 48.3953H22.8644C22.5572 48.3953 22.3521 48.3953 22.249 48.2906C22.147 48.1849 22.0439 48.0802 22.0439 47.9756C21.9418 47.8688 21.9418 47.5538 21.9418 46.9237V43.9805C22.4542 43.9805 22.7613 44.0862 23.0696 44.1909C23.2747 44.2966 23.4798 44.6117 23.6839 44.9256C23.888 45.3474 23.9911 45.8729 24.0932 46.3983H24.4004V41.0352H24.0932C23.9911 41.771 23.786 42.4011 23.4788 42.8229C23.2737 43.2437 22.7613 43.454 22.147 43.454H21.9418V39.2496H22.9675Z" fill="#2E3192"/>
<path fill-rule="evenodd" clip-rule="evenodd" d="M32.6995 44.2945L35.9776 49.0243H39.1536V48.7092C38.8464 48.7092 38.6412 48.6035 38.4371 48.3931C38.3351 48.2885 38.0269 48.0781 37.7207 47.6584L35.3653 44.0841C35.9796 43.9784 36.3889 43.6633 36.7992 43.3494C37.3115 42.9286 37.6187 42.2985 37.6187 41.457C37.6187 40.827 37.4135 40.3015 37.0043 39.8808C36.6971 39.3554 36.1848 39.0403 35.6724 38.83C35.057 38.7242 34.1355 38.6196 33.0088 38.6196H28.2968V38.83C28.7071 38.83 29.0132 38.9357 29.2184 39.0403C29.4235 39.145 29.5255 39.2496 29.5255 39.3554C29.6276 39.4611 29.6276 39.8808 29.6276 40.4062V47.2366C29.6276 47.7631 29.6276 48.0781 29.5255 48.2885C29.5255 48.3931 29.4225 48.4978 29.2184 48.6035C29.0143 48.7092 28.706 48.7092 28.2968 48.7092V49.0243H33.419V48.7092C33.0088 48.7092 32.7026 48.7092 32.4975 48.6035C32.2923 48.4978 32.1903 48.3931 32.1903 48.2885C32.0882 48.0781 31.9851 47.7631 31.9851 47.2366V44.2945H32.6995ZM32.8015 39.1439C33.621 39.1439 34.2354 39.3543 34.5426 39.7751C34.9529 40.0901 35.158 40.7212 35.158 41.456C35.158 42.0871 35.0549 42.5079 34.8498 42.8229C34.6447 43.1379 34.3375 43.3483 34.0303 43.5576C33.62 43.6633 33.1087 43.768 32.4933 43.768H31.981V39.1439H32.8015Z" fill="#2E3192"/>
<path fill-rule="evenodd" clip-rule="evenodd" d="M48.3735 40.1948C49.0909 39.5636 49.5012 39.1439 49.7053 39.0393C49.9105 38.9335 50.2177 38.9335 50.5248 38.8289V38.6185H46.6324V38.8289C47.0427 38.9346 47.3488 38.9346 47.4519 39.0393C47.6571 39.1439 47.7591 39.2486 47.7591 39.46C47.7591 39.7751 47.4519 40.0901 46.9396 40.5098L43.2512 43.6633V40.4062C43.2512 39.8808 43.2512 39.5647 43.2512 39.3554C43.3533 39.2496 43.4564 39.145 43.5584 39.0403C43.7636 38.9346 44.0707 38.83 44.379 38.83V38.6185H39.3588V38.8289H39.667C39.9742 38.8289 40.1793 38.9346 40.3834 39.0393C40.4855 39.1439 40.6906 39.2486 40.6906 39.3543C40.7937 39.5636 40.7937 39.8797 40.7937 40.4051V47.2355C40.7937 47.762 40.7937 48.077 40.6906 48.1828C40.5886 48.3921 40.4855 48.4978 40.3834 48.6035C40.1783 48.7092 39.9732 48.7092 39.667 48.7092H39.3588V49.0243H44.481V48.7092C44.0707 48.7092 43.7636 48.7092 43.6605 48.6035C43.4564 48.4978 43.3533 48.3931 43.2512 48.2885C43.2512 48.0781 43.2512 47.7631 43.2512 47.2366V44.4002L43.5584 44.0841L45.9149 47.0283C46.3242 47.6584 46.6314 48.0781 46.6314 48.2896C46.6314 48.3942 46.5283 48.4989 46.4262 48.6046C46.3231 48.6046 46.119 48.7103 45.8118 48.7103V49.0253H51.0361V48.7103C50.7289 48.7103 50.5238 48.6046 50.2166 48.4999C49.8063 48.2906 49.3971 47.8688 48.8848 47.1341L45.4016 42.6146L48.3735 40.1948Z" fill="#2E3192"/>
<path fill-rule="evenodd" clip-rule="evenodd" d="M57.9015 38.4081C57.7984 38.7232 57.6964 38.8289 57.5933 38.9335C57.5933 39.0393 57.4912 39.0393 57.2871 39.0393C57.1851 39.0393 56.9799 39.0393 56.6717 38.8289C56.2625 38.7232 56.0573 38.6185 55.7501 38.5139C55.4429 38.4081 55.1357 38.4081 54.8286 38.4081C53.907 38.4081 53.1895 38.7232 52.5741 39.2486C51.9587 39.8797 51.7535 40.5098 51.7535 41.3513C51.7535 41.8767 51.8566 42.2975 52.0607 42.7172C52.2659 43.1379 52.5731 43.453 52.9833 43.768C53.3936 44.083 54.008 44.5038 54.9296 44.9235C55.646 45.3453 56.0563 45.5546 56.3635 45.765C56.5686 45.9743 56.7737 46.1858 56.8758 46.3961C56.9789 46.7112 57.0809 46.9205 57.0809 47.1309C57.0809 47.5516 56.8758 47.8656 56.5686 48.1817C56.2625 48.4967 55.8522 48.7071 55.2368 48.7071C54.5203 48.7071 53.9049 48.391 53.1885 47.8656C52.5731 47.2345 52.1638 46.3951 51.9587 45.3442H51.7535V49.2336H51.9587C52.0618 49.0232 52.1638 48.8118 52.2669 48.7082C52.4721 48.6025 52.5731 48.6025 52.7792 48.6025C52.8823 48.6025 53.0854 48.6025 53.2916 48.7082C53.7019 48.9186 54.1111 49.0232 54.4183 49.1289C54.6234 49.2347 54.9306 49.2347 55.3398 49.2347C56.2625 49.2347 57.184 48.9196 57.7984 48.2885C58.4128 47.6574 58.8231 46.9216 58.8231 46.0811C58.8231 45.3464 58.6179 44.7152 58.2087 44.1898C57.7984 43.7691 56.9799 43.139 55.7501 42.5089C54.9306 42.0871 54.4183 41.7731 54.2131 41.6674C53.8039 41.457 53.5988 41.142 53.4967 40.9327C53.3947 40.7223 53.2916 40.6176 53.2916 40.3015C53.2916 39.9865 53.4967 39.6715 53.7019 39.3554C54.009 39.145 54.4183 38.9346 54.9316 38.9346C55.6481 38.9346 56.2635 39.2496 56.7758 39.7751C57.3902 40.3005 57.6974 40.9316 57.9025 41.8778H58.2097L58.1056 38.4081H57.9015Z" fill="#2E3192"/>
<path fill-rule="evenodd" clip-rule="evenodd" d="M67.1214 43.9784V47.2366C67.1214 47.7631 67.1214 48.0781 67.1214 48.1838C67.0183 48.3931 66.9162 48.4989 66.8142 48.6046C66.609 48.7103 66.4039 48.7103 66.0967 48.7103H65.7895V49.0253H71.0138V48.7103H70.7066C70.3984 48.7103 70.1943 48.7103 69.9902 48.6046C69.8871 48.4989 69.7851 48.3942 69.682 48.1838C69.5799 48.0781 69.5799 47.7631 69.5799 47.2366V40.4062C69.5799 39.8808 69.5799 39.5647 69.682 39.46C69.7851 39.2496 69.8871 39.1439 69.9902 39.0393C70.1954 38.9335 70.3995 38.8289 70.7066 38.8289H71.0138V38.6185H65.7895V38.8289H66.0967C66.4039 38.8289 66.6091 38.9346 66.7111 39.0393C66.9162 39.1439 67.0183 39.2486 67.1214 39.3543C67.1214 39.5636 67.1214 39.8797 67.1214 40.4051V43.3483H63.5361V40.4062C63.5361 39.8808 63.6382 39.5647 63.6382 39.46C63.7413 39.2496 63.8433 39.1439 63.9454 39.0393C64.1505 38.9335 64.3556 38.8289 64.6618 38.8289H64.969V38.6185H59.7447V38.8289H60.0519C60.3591 38.8289 60.5642 38.9346 60.7693 39.0393C60.8714 39.1439 60.9745 39.2486 61.0755 39.3543C61.1775 39.5636 61.1775 39.8797 61.1775 40.4051V47.2355C61.1775 47.762 61.1775 48.077 61.0755 48.1828C60.9734 48.3921 60.8703 48.4978 60.7693 48.6035C60.5642 48.7092 60.3591 48.7092 60.0519 48.7092H59.7447V49.0243H64.969V48.7092H64.6618C64.3546 48.7092 64.1495 48.7092 64.0474 48.6035C63.8423 48.4978 63.7402 48.3931 63.6371 48.1828C63.6371 48.077 63.5351 47.762 63.5351 47.2355V43.9773L67.1214 43.9784Z" fill="#2E3192"/>
<path fill-rule="evenodd" clip-rule="evenodd" d="M76.5453 48.7092C76.2381 48.7092 76.033 48.7092 75.8289 48.6035C75.7258 48.4978 75.6237 48.3931 75.5217 48.1828C75.5217 48.077 75.4196 47.762 75.4196 47.2355V40.4062C75.4196 39.8808 75.5217 39.5647 75.5217 39.46C75.6248 39.2496 75.7268 39.1439 75.8289 39.0393C76.034 38.9335 76.2381 38.8289 76.5453 38.8289H76.8525V38.6185H71.6282V38.8289H71.9354C72.2426 38.8289 72.4477 38.9346 72.6528 39.0393C72.7549 39.1439 72.8569 39.2486 72.96 39.3543C72.96 39.5636 73.0621 39.8797 73.0621 40.4051V47.2355C73.0621 47.762 72.96 48.077 72.96 48.1828C72.8569 48.3921 72.7549 48.4978 72.6528 48.6035C72.4477 48.7092 72.2426 48.7092 71.9354 48.7092H71.6282V49.0243H76.8525V48.7092H76.5453Z" fill="#2E3192"/>
<path fill-rule="evenodd" clip-rule="evenodd" d="M81.9747 44.2945L85.2528 49.0243H88.4288V48.7092C88.1216 48.7092 87.9165 48.6035 87.7124 48.3931C87.6093 48.2885 87.4052 48.0781 87.098 47.6584L84.6394 44.0841C85.2538 43.9784 85.7661 43.6633 86.0733 43.3494C86.5867 42.9286 86.8928 42.2985 86.8928 41.457C86.8928 40.827 86.6877 40.3015 86.3805 39.8808C85.9702 39.3554 85.561 39.0403 84.9466 38.83C84.4343 38.7242 83.5127 38.6196 82.2829 38.6196H77.5709V38.83C77.9812 38.83 78.3905 38.9357 78.4936 39.0403C78.6977 39.145 78.8007 39.2496 78.9028 39.3554C78.9028 39.4611 79.0059 39.8808 79.0059 40.4062V47.2366C79.0059 47.7631 78.9028 48.0781 78.9028 48.2885C78.8007 48.3931 78.6977 48.4978 78.4936 48.6035C78.3905 48.7092 78.0833 48.7092 77.5709 48.7092V49.0243H82.6932V48.7092C82.2829 48.7092 81.9768 48.7092 81.7716 48.6035C81.6696 48.4978 81.4644 48.3931 81.4644 48.2885C81.3614 48.0781 81.3614 47.7631 81.3614 47.2366V44.2945H81.9747ZM82.0767 39.1439C82.8962 39.1439 83.5117 39.3543 83.9209 39.7751C84.2281 40.0901 84.4332 40.7212 84.4332 41.456C84.4332 42.0871 84.3312 42.5079 84.1261 42.8229C83.9209 43.1379 83.6137 43.3483 83.3065 43.5576C82.9993 43.6633 82.486 43.768 81.7696 43.768H81.3593V39.1439H82.0767Z" fill="#2E3192"/>
<path fill-rule="evenodd" clip-rule="evenodd" d="M93.5509 39.2496C94.2673 39.2496 94.7797 39.2496 95.0869 39.3554C95.6002 39.4611 95.9074 39.7761 96.2136 40.0901C96.4187 40.4062 96.6238 40.9316 96.829 41.6674H97.0341V38.6185H88.6338V38.8289H88.941C89.2482 38.8289 89.5554 38.9346 89.7605 39.1439C89.8626 39.1439 89.9657 39.3543 89.9657 39.46C90.0677 39.5647 90.0677 39.8808 90.0677 40.4062V47.2366C90.0677 47.7631 89.9657 48.0781 89.9657 48.1838C89.8626 48.3931 89.7605 48.4989 89.6585 48.6046C89.4533 48.7103 89.2482 48.7103 88.942 48.7103H88.6348V49.0253H97.3424L97.8547 45.6625H97.5475C97.2403 46.6087 96.8311 47.3444 96.3187 47.7652C95.7033 48.186 94.9869 48.3953 94.0643 48.3953H93.4499C93.1427 48.3953 92.9376 48.3953 92.8355 48.2906C92.7335 48.1849 92.6304 48.0802 92.5283 47.9756C92.5283 47.8688 92.4263 47.5538 92.4263 46.9237V43.9805C92.9386 43.9805 93.3479 44.0862 93.553 44.1909C93.8602 44.2966 94.0653 44.6117 94.2694 44.9256C94.4746 45.3474 94.5766 45.8729 94.5766 46.3983H94.8838V41.0352H94.5766C94.5766 41.771 94.3715 42.4011 94.0643 42.8229C93.7571 43.2437 93.3479 43.454 92.6304 43.454H92.4263V39.2496H93.5509Z" fill="#2E3192"/>
<path fill-rule="evenodd" clip-rule="evenodd" d="M14.3896 60.2559V65.902C14.3896 66.814 14.3896 67.3586 14.1918 67.5412C14.1918 67.9054 13.7987 68.088 13.601 68.2695C13.4044 68.4522 12.8123 68.4522 12.2214 68.4522H11.6294V68.9989H21.8804V68.4522H21.0906C20.6963 68.4522 20.1054 68.4522 19.91 68.2695C19.5145 68.088 19.3168 67.9054 19.1202 67.5412C19.1202 67.3586 19.1202 66.8129 19.1202 65.902V54.0641C19.1202 53.1521 19.1202 52.6075 19.1202 52.4259C19.3168 52.0607 19.5145 51.8781 19.7122 51.6966C20.1065 51.5129 20.5009 51.3313 21.0906 51.3313H21.8804V50.9682H11.6294V51.3324H12.2214C12.8123 51.3324 13.2066 51.5139 13.601 51.6976C13.9953 51.8792 14.1918 52.0618 14.1918 52.2433C14.3896 52.6086 14.3896 53.1543 14.3896 54.0652V59.1645H7.49081V54.0641C7.49081 53.1521 7.4908 52.6075 7.68738 52.4259C7.88512 52.0607 8.0817 51.8781 8.27944 51.6966C8.67375 51.5129 9.06806 51.3313 9.65896 51.3313H10.2498V50.9682H0V51.3324H0.787472C1.18179 51.3324 1.77383 51.5139 1.97041 51.6976C2.36472 51.8792 2.56245 52.0618 2.75903 52.2433C2.75903 52.6086 2.75903 53.1543 2.75903 54.0652V65.903C2.75903 66.815 2.75903 67.3597 2.75903 67.5423C2.56245 67.9065 2.36473 68.0891 2.16815 68.2706C1.77384 68.4532 1.37952 68.4532 0.787472 68.4532H0V69H10.2498V68.4532H9.65896C9.06806 68.4532 8.67375 68.4532 8.27944 68.2706C8.0817 68.0891 7.68738 67.9065 7.68738 67.5423C7.4908 67.3597 7.49081 66.814 7.49081 65.903V60.2559H14.3896Z" fill="#2E3192"/>
<path fill-rule="evenodd" clip-rule="evenodd" d="M30.5718 67.1215C30.6863 67.4366 30.7985 67.6459 30.7985 67.6459C30.7985 67.7527 30.7985 67.8563 30.7985 67.962C30.7985 68.1713 30.7985 68.277 30.6851 68.3828C30.4573 68.4885 30.2296 68.4885 29.7751 68.4885H29.5473V68.8035H34.8943V68.4885C34.5531 68.4885 34.3253 68.3828 34.0987 68.1724C33.8709 68.0677 33.5298 67.5423 33.1887 66.7008L29.0929 58.1874H28.9795L24.9982 66.4904C24.656 67.2251 24.3148 67.7527 23.9737 68.0677C23.7471 68.277 23.4048 68.4885 23.0637 68.4885V68.8035H26.7039V68.4885C26.1349 68.4885 25.7938 68.3828 25.6793 68.2781C25.4527 68.1724 25.2237 67.9631 25.2237 67.647C25.2237 67.4376 25.3382 67.1226 25.4515 66.8076L26.0193 65.8603H29.8873L30.5718 67.1215ZM26.2494 65.2292L27.9562 61.7606L29.6629 65.2292H26.2494Z" fill="#2E3192"/>
<path fill-rule="evenodd" clip-rule="evenodd" d="M33.7472 58.3977V61.2352H33.9738C34.0883 60.3958 34.4306 59.8693 34.885 59.4496C35.2261 59.1335 35.7939 59.0278 36.5906 59.0278H37.3873V67.0148C37.3873 67.5412 37.3873 67.8563 37.2729 67.962C37.1584 68.1713 37.0451 68.277 36.9317 68.3828C36.7039 68.4885 36.4761 68.4885 36.1362 68.4885H35.7939V68.8035H41.5964V68.4885H41.2553C41.0275 68.4885 40.6864 68.4885 40.5719 68.3828C40.3453 68.277 40.2308 68.1724 40.2308 67.962C40.1175 67.8563 40.1175 67.5412 40.1175 67.0148V59.0289H40.913C41.4808 59.0289 41.8219 59.0289 42.0497 59.1346C42.3909 59.3439 42.732 59.5554 42.9598 59.7657C43.0731 60.0808 43.3009 60.6062 43.5275 61.2363H43.7553L43.7907 58.3977H33.7472Z" fill="#2E3192"/>
<path fill-rule="evenodd" clip-rule="evenodd" d="M52.6141 63.7573V67.0157C52.6141 67.5422 52.4995 67.8573 52.4995 67.963C52.3849 68.1723 52.2714 68.2781 52.158 68.3838C51.93 68.4895 51.7019 68.4895 51.3616 68.4895H51.019V68.8046H56.8274V68.4895H56.4859C56.1445 68.4895 55.9164 68.4895 55.6896 68.3838C55.575 68.2781 55.4615 68.1734 55.3481 67.963C55.3481 67.8573 55.2335 67.5422 55.2335 67.0157V60.1848C55.2335 59.6594 55.3481 59.3433 55.3481 59.2386C55.4615 59.0282 55.575 58.9225 55.6896 58.8178C55.9164 58.7121 56.1456 58.6074 56.4859 58.6074H56.8274V58.397H51.019V58.6074H51.3616C51.7031 58.6074 51.93 58.7131 52.158 58.8178C52.2714 58.9225 52.3849 59.0271 52.4995 59.1329C52.4995 59.3422 52.6141 59.6583 52.6141 60.1838V63.1271H48.6287V60.1848C48.6287 59.6594 48.6287 59.3433 48.6287 59.2386C48.7433 59.0282 48.8568 58.9225 48.9702 58.8178C49.1982 58.7121 49.4263 58.6074 49.7666 58.6074H50.1092V58.397L43.7907 58.3977L44.3008 58.397V58.6074H44.6423C44.9838 58.6074 45.2118 58.7131 45.4387 58.8178C45.5532 58.9225 45.6667 59.0271 45.7801 59.1329C45.8947 59.3422 45.8947 59.6583 45.8947 60.1838V67.0146C45.8947 67.5411 45.8947 67.8562 45.7801 67.9619C45.6667 68.1713 45.5532 68.277 45.4387 68.3827C45.2118 68.4884 44.9826 68.4885 44.6423 68.4885H44.3008V68.8035H50.1092V68.4885H49.7666C49.4251 68.4885 49.1982 68.4884 49.0825 68.3827C48.8568 68.277 48.7422 68.1723 48.6276 67.9619C48.6276 67.8562 48.6276 67.5411 48.6276 67.0146V63.7562L52.6141 63.7573Z" fill="#2E3192"/>
<path fill-rule="evenodd" clip-rule="evenodd" d="M64.2354 67.1215C64.3499 67.4366 64.462 67.6459 64.462 67.6459C64.5765 67.7527 64.5765 67.8563 64.5765 67.962C64.5765 68.1713 64.462 68.277 64.3499 68.3827C64.2354 68.4885 63.8943 68.4885 63.4398 68.4885H63.212V68.8035H68.6735V68.4885C68.3323 68.4885 68.1045 68.3828 67.8779 68.1724C67.6501 68.0677 67.309 67.5423 66.9667 66.7008L62.8721 58.1874H62.7576L58.6629 66.4904C58.3218 67.2251 57.9796 67.7527 57.7518 68.0677C57.5263 68.277 57.184 68.4885 56.7284 68.4885V68.8035H60.4819V68.4885C59.9141 68.4885 59.573 68.3828 59.3452 68.2781C59.1185 68.1724 59.0041 67.9631 59.0041 67.647C59.0041 67.4376 59.1185 67.1226 59.2307 66.8076L59.6863 65.8603H63.6676L64.2354 67.1215ZM60.0263 65.2292L61.7319 61.7606L63.3253 65.2292H60.0263Z" fill="#2E3192"/>
<path fill-rule="evenodd" clip-rule="evenodd" d="M78.2295 58.1863V58.3967C78.6851 58.5024 78.9117 58.5024 79.1384 58.607C79.2528 58.7117 79.3661 58.9221 79.3661 59.1314C79.3661 59.3418 79.2517 59.4475 79.2517 59.6568C79.2517 59.7625 79.1372 60.0776 78.9106 60.603L77.0905 65.0188L75.0426 60.0776C74.8148 59.4475 74.7014 59.1314 74.7014 59.0278C74.7014 58.9221 74.7015 58.8174 74.8148 58.7117C74.8148 58.607 74.9293 58.6071 75.0426 58.5024C75.1559 58.5024 75.4982 58.3967 75.8381 58.3967V58.1863H70.4912V58.3967C70.8323 58.3967 71.0601 58.5024 71.2868 58.607C71.4012 58.7117 71.6279 58.8164 71.7435 59.0278C71.8568 59.2382 72.0835 59.6579 72.3113 60.1844L72.7669 61.3398L70.9468 65.2292L68.7856 60.1844C68.5589 59.5532 68.33 59.1325 68.33 59.0278C68.33 58.8174 68.4445 58.7117 68.5578 58.607C68.6711 58.5013 68.8989 58.5013 69.3534 58.3967V58.1863H64.462V58.3967C64.8031 58.5024 65.0309 58.607 65.2576 58.7117C65.3721 58.9221 65.5987 59.4475 66.0531 60.289L69.6933 68.8035H70.0345L73.1057 62.0767L75.8358 68.8035H76.1781L79.7038 60.1854C80.0449 59.4496 80.1594 59.1335 80.1594 59.0289C80.2739 58.8185 80.5005 58.7128 80.615 58.6081C80.7295 58.5024 80.9561 58.5024 81.1839 58.3977V58.1863H78.2295Z" fill="#2E3192"/>
<path fill-rule="evenodd" clip-rule="evenodd" d="M84.3476 67.1205C84.4621 67.4355 84.5754 67.6448 84.5754 67.6448C84.6887 67.7516 84.6887 67.8552 84.6887 67.9609C84.6887 68.1702 84.5754 68.276 84.4621 68.3817C84.3488 68.4874 84.0065 68.4874 83.552 68.4874H83.3242V68.8024H88.7857V68.4874C88.4445 68.4874 88.1034 68.3817 87.9901 68.1713C87.7623 68.0667 87.4212 67.5412 87.08 66.6997L82.9843 58.1863H82.871L78.7752 66.4893C78.434 67.2241 78.0929 67.7516 77.8651 68.0666C77.6385 68.276 77.2962 68.4874 76.8418 68.4874V68.8024H80.5953V68.4874C80.0263 68.4874 79.6852 68.3817 79.4574 68.277C79.2308 68.1713 79.1163 67.962 79.1163 67.6459C79.1163 67.4366 79.2308 67.1215 79.3441 66.8065L79.7985 65.8593H83.7798L84.3476 67.1205ZM80.1385 65.2281L81.8453 61.7595L83.4376 65.2281H80.1385Z" fill="#2E3192"/>
<path fill-rule="evenodd" clip-rule="evenodd" d="M94.5876 58.3945V58.6049C95.0432 58.7106 95.3832 58.8153 95.611 58.92C95.7255 59.0257 95.8388 59.1303 95.8388 59.2361C95.8388 59.4464 95.4977 59.9708 95.0432 60.8123L92.9953 63.8601L90.9475 60.4973C90.4919 59.7625 90.2652 59.2361 90.2652 59.0257C90.2652 58.92 90.3785 58.92 90.4919 58.8164C90.6063 58.7106 90.833 58.606 91.1741 58.606H91.4019V58.3945H86.055V58.6049C86.3961 58.6049 86.7372 58.7106 86.965 58.92C87.0795 59.0257 87.5339 59.5511 87.9895 60.4973L90.7185 64.912V67.0137C90.7185 67.5402 90.6052 67.8552 90.6052 67.9609C90.4907 68.1702 90.3774 68.276 90.264 68.3817C90.0362 68.4874 89.8084 68.4874 89.4673 68.4874H88.8996V68.8024H95.1554V68.4874H94.5876C94.2465 68.4874 94.0187 68.4874 93.7921 68.3817C93.6764 68.276 93.5643 68.1713 93.4498 67.9609C93.4498 67.8552 93.3365 67.5402 93.3365 67.0137V64.4923L95.8388 60.7087C96.4066 59.7625 96.8622 59.1314 97.09 58.921C97.3166 58.8164 97.6577 58.7117 98 58.606V58.3945H94.5876Z" fill="#2E3192"/>
</svg>
