<svg width="97" height="100" viewBox="0 0 97 100" fill="none" xmlns="http://www.w3.org/2000/svg">
<g clip-path="url(#clip0_4_25)">
<rect width="97" height="100" fill="white"/>
<path d="M93.9393 41.8145C93.5197 41.8145 93.1753 40.9806 93.1753 39.9527C93.1753 38.9248 93.5197 38.0812 93.9393 38.0812C94.3588 38.0812 94.7032 38.9248 94.7032 39.9527C94.7032 40.9806 94.3588 41.8145 93.9393 41.8145ZM93.9393 37.6255C93.4168 37.6255 92.9893 38.6727 92.9893 39.9527C92.9893 41.2327 93.4168 42.28 93.9393 42.28C94.4618 42.28 94.8893 41.2327 94.8893 39.9527C94.8893 38.6727 94.4618 37.6255 93.9393 37.6255Z" fill="black"/>
<path d="M94.0026 39.8558L93.8007 39.8655L93.7967 39.2642H93.9986C94.0738 39.2545 94.1332 39.3709 94.1332 39.5552C94.1372 39.7394 94.0778 39.8558 94.0026 39.8558ZM94.3311 39.5455C94.3272 39.1382 94.2124 38.8473 94.0263 38.8473L93.6028 38.8667L93.6147 41.0582H93.8086L93.8047 40.2727H93.9432L94.1253 41.0485L94.343 41.0388L94.1372 40.2049C94.2322 40.1467 94.3311 39.9333 94.3311 39.5455Z" fill="black"/>
<path d="M20.5177 55.4781H18.1431V42.0633H20.4528C21.0759 42.0633 21.465 43.0485 21.465 44.3838C21.465 45.719 21.0759 46.6722 20.4528 46.6722H17.8126V50.551H20.5177C21.2445 50.551 21.6336 51.6953 21.6336 53.0296C21.6336 54.5559 21.2184 55.4781 20.5177 55.4781ZM21.8541 48.4526C22.6719 48.0395 23.3468 46.2592 23.3468 43.5896C23.3468 40.76 22.5032 38.1855 20.855 38.1855H16.3005V59.3879H20.9979C22.6457 59.3879 23.515 56.8444 23.515 53.6657C23.515 50.9952 22.7756 48.8027 21.8541 48.4526Z" fill="black"/>
<path d="M28.9088 47.8803H26.9167V51.8541H28.325L30.0247 59.3877H32.1396L30.1933 51.313C31.1279 50.7729 32.0878 48.7705 32.0878 45.0197M32.0878 45.0197C32.0878 41.0779 30.985 38.1853 29.1812 38.1853H25.1326V59.3877H26.9752V42.1591H28.9088C29.6486 42.1591 30.2064 43.2393 30.2064 45.0197C30.2064 46.8 29.6486 47.8803 28.9088 47.8803" fill="black"/>
<path d="M46.0961 51.8223L47.4455 42.6994L48.7953 51.8223H46.0961ZM46.2908 38.1855L42.9429 59.3879H45.0447L45.5898 55.7961H49.3011L49.8331 59.3879H51.9354L48.6005 38.1855H46.2908Z" fill="black"/>
<path d="M56.9402 55.4142H55.3699V42.1584H56.9402C58.7179 42.1584 59.6521 45.051 59.6521 48.8028C59.6521 52.3945 58.653 55.4142 56.9402 55.4142ZM56.9402 38.1856H53.5273V59.388H56.9402C59.6521 59.388 61.5335 55.1921 61.5335 48.8028C61.5335 42.4134 59.6521 38.1856 56.9402 38.1856Z" fill="black"/>
<path d="M89.4489 38.1812L87.1792 47.1703L84.9095 38.1812H82.8726V59.3875H84.7156V45.5276L86.6995 52.9186C86.9267 53.7632 87.4322 53.7632 87.659 52.9186L89.6433 45.5276V59.3875H91.4863V38.1812H89.4489Z" fill="black"/>
<path d="M37.9308 55.6367C36.3986 55.6367 35.1568 52.5938 35.1568 48.8411C35.1568 45.0874 36.3986 42.0445 37.9308 42.0445C39.4627 42.0445 40.7048 45.0874 40.7048 48.8411C40.7048 52.5938 39.4627 55.6367 37.9308 55.6367ZM37.9308 37.6624C35.4106 37.6624 33.3677 42.667 33.3677 48.8411C33.3677 55.0142 35.4106 60.0188 37.9308 60.0188C40.4507 60.0188 42.494 55.0142 42.494 48.8411C42.494 42.667 40.4507 37.6624 37.9308 37.6624Z" fill="black"/>
<path d="M69.8264 52.1291C69.3534 54.2198 68.4442 55.6365 67.3992 55.6365C65.8673 55.6365 64.6252 52.5936 64.6252 48.8409C64.6252 45.0872 65.8673 42.0452 67.3992 42.0452C68.4355 42.0452 69.3376 43.4397 69.8138 45.5022L71.1082 42.3323C70.2801 39.5056 68.9279 37.6622 67.3992 37.6622C64.8789 37.6622 62.8364 42.6668 62.8364 48.8409C62.8364 55.014 64.8789 60.0195 67.3992 60.0195C68.9362 60.0195 70.2951 58.1558 71.1216 55.302L69.8264 52.1291Z" fill="black"/>
<path d="M77.0068 55.6367C75.4745 55.6367 74.2328 52.5938 74.2328 48.8411C74.2328 45.0874 75.4745 42.0445 77.0068 42.0445C78.5386 42.0445 79.7808 45.0874 79.7808 48.8411C79.7808 52.5938 78.5386 55.6367 77.0068 55.6367ZM77.0068 37.6624C74.4865 37.6624 72.4436 42.667 72.4436 48.8411C72.4436 55.0142 74.4865 60.0188 77.0068 60.0188C79.5266 60.0188 81.5699 55.0142 81.5699 48.8411C81.5699 42.667 79.5266 37.6624 77.0068 37.6624Z" fill="black"/>
<path d="M7.5 62C11.6421 62 15 56.1797 15 49C15 41.8203 11.6421 36 7.5 36C3.35786 36 0 41.8203 0 49C0 56.1797 3.35786 62 7.5 62Z" fill="#CC092F"/>
<path d="M14.4323 52.4447C13.5325 51.8761 12.7087 52.0666 11.8829 52.8604C11.8829 52.8604 11.582 53.1516 11.4919 53.2415C11.1071 53.6241 10.7442 53.9868 10.3953 53.9868C10.0624 53.9868 9.73477 53.8454 9.59618 52.8243C9.38006 51.2314 8.85283 47.3172 8.62265 45.3786C8.48746 44.2391 8.41331 43.6251 8.33627 43.2079C8.20058 42.4749 7.95248 42.0761 7.60018 42.0123C7.60018 42.0123 7.54494 42 7.49988 42C7.45529 42 7.39424 42.0138 7.39424 42.0138C7.04534 42.0799 6.79868 42.4787 6.66397 43.2079C6.58692 43.6251 6.51278 44.2391 6.37758 45.3786C6.1474 47.3172 5.62018 51.2314 5.40405 52.8243C5.26546 53.8454 4.93788 53.9868 4.60498 53.9868C4.25608 53.9868 3.89312 53.6241 3.50836 53.2415C3.41823 53.1516 3.11682 52.8604 3.11682 52.8604C2.29158 52.0666 1.4673 51.8761 0.567914 52.4447C0.373596 52.5676 0.182203 52.7053 0 52.8444C0.124538 53.4637 0.279571 54.0732 0.460321 54.6457C0.659485 54.4905 0.868355 54.3364 1.08157 54.2366C1.3888 54.0929 1.70378 54.0852 2.00906 54.2473C2.30563 54.4048 2.56973 54.6838 2.83286 54.9458C3.32858 55.4398 3.89022 56 4.60498 56C5.66427 56 6.40763 54.9973 6.64507 53.2484C6.82921 51.893 7.23723 48.8671 7.49939 46.7801C7.49939 46.7801 8.17102 51.893 8.35468 53.2484C8.59213 54.9973 9.33596 56 10.3953 56C11.11 56 11.6717 55.4398 12.1674 54.9458C12.4305 54.6838 12.6946 54.4048 12.9912 54.2473C13.296 54.0852 13.6114 54.0929 13.9187 54.2366C14.1319 54.3364 14.3404 54.4906 14.5396 54.6458C14.7208 54.0734 14.8755 53.4636 15 52.8443C14.8178 52.7052 14.6266 52.5676 14.4323 52.4447Z" fill="white"/>
</g>
<defs>
<clipPath id="clip0_4_25">
<rect width="97" height="100" fill="white"/>
</clipPath>
</defs>
</svg>
