<svg width="100" height="100" viewBox="0 0 100 100" fill="none" xmlns="http://www.w3.org/2000/svg">
<rect width="100" height="100" fill="white"/>
<path d="M22.824 24.7921C22.2563 25.0404 21.11 25.3462 19.4098 25.3462C14.7018 25.3462 12 22.4439 12 18.741C12 14.3327 15.4427 12 19.7225 12C21.3817 12 22.2584 12.2846 22.8231 12.5535L22.3 15.1898C21.6714 14.9403 21.0041 14.713 19.8518 14.713C17.8136 14.713 15.6516 15.7995 15.6516 18.6923C15.6516 21.2801 17.3755 22.6489 19.8688 22.6489C20.8564 22.6489 21.5267 22.4753 22.3003 22.157L22.824 24.7921Z" fill="#0056A2"/>
<path d="M30.6415 15.2692C29.3732 15.2692 28.1459 15.7846 27.521 16.6124H27.4825V12.0462L24.2922 13.0361V24.9493H27.4825V19.3844C27.4825 18.5809 28.0654 17.7166 29.1832 17.7166C30.379 17.7166 30.8396 18.5603 30.8396 19.7876V24.9495H34.0327V19.3929C34.0327 16.5563 32.6753 15.2692 30.6415 15.2692Z" fill="#0056A2"/>
<path d="M38.8454 21.191C38.9628 22.3977 40.0794 23.0389 41.8049 23.0527C42.8447 23.0599 44.0537 22.7889 44.859 22.3637L45.3404 24.5892C44.1282 25.1349 42.7435 25.3462 41.3339 25.3462C37.5364 25.3462 35.501 23.2992 35.501 20.163C35.501 17.1292 37.6897 15.1717 40.9695 15.1717C44.3496 15.1717 45.8648 17.4023 45.8648 20.1972C45.8648 20.4917 45.8243 20.9714 45.7879 21.191H38.8454ZM42.6784 19.1561C42.6784 18.4553 42.2969 17.2299 40.8199 17.2299C39.5249 17.2299 38.9142 18.2291 38.8236 19.1561H42.6784Z" fill="#0056A2"/>
<path d="M49.6148 24.9493L46.0897 15.5697H49.6095L51.5246 22.2045H51.589L53.5044 15.5697H57.0255L53.5007 24.9493H49.6148Z" fill="#0056A2"/>
<path d="M57.9301 18.6544C57.9301 17.2744 57.8817 16.3742 57.8162 15.5695H60.8217L60.9128 17.313H60.9936C61.5196 15.9331 62.529 15.4089 63.5672 15.3561C64.0608 15.3303 64.3279 15.3616 64.6335 15.4146V18.1571C64.341 18.1058 63.7607 18.0454 63.3527 18.079C62.125 18.1802 61.382 18.9806 61.1735 19.9021C61.1316 20.0931 61.11 20.3051 61.11 20.5532V24.949H57.9312V18.6544H57.9301Z" fill="#0056A2"/>
<path d="M75.8452 20.2589C75.8452 23.333 73.7787 25.346 70.4301 25.346C67.0808 25.346 65.0129 23.333 65.0129 20.2589C65.0129 17.1843 67.0808 15.1715 70.4301 15.1715C73.7787 15.1715 75.8452 17.1845 75.8452 20.2589ZM72.5376 20.2589C72.5376 18.7325 71.9522 17.404 70.4301 17.404C68.9059 17.404 68.3236 18.7323 68.3236 20.2589C68.3236 21.7866 68.9059 23.1131 70.4301 23.1131C71.9527 23.1131 72.5376 21.7866 72.5376 20.2589Z" fill="#0056A2"/>
<path d="M77.264 18.5601C77.264 17.3895 77.2161 16.3901 77.1487 15.5697H80.1542L80.223 16.882H80.2874C80.7037 16.2717 81.8051 15.2692 83.5237 15.2692C85.6271 15.2692 87 16.5563 87 19.3174V24.9495H83.8125V19.7484C83.8125 18.5415 83.3505 17.7164 82.197 17.7164C81.3125 17.7164 80.7633 18.2739 80.5594 18.8082C80.4839 19.0039 80.4531 19.2698 80.4531 19.5383V24.9492H77.264V18.5601Z" fill="#0056A2"/>
<path d="M12.1139 49.8139V27.4436L49.5612 38.6294L12.1139 49.8139Z" fill="url(#paint0_linear_4_11)"/>
<path d="M12.1233 49.8155L49.5612 61L86.997 49.8155V27.4463L49.5612 38.6294L12.1233 49.8155Z" fill="url(#paint1_linear_4_11)"/>
<path d="M12.1161 75.8167L12.1129 53.4393L49.5577 64.6244L12.1161 75.8167Z" fill="url(#paint2_linear_4_11)"/>
<path d="M86.9989 53.4393L49.5506 64.6209L12.1204 75.8126L49.5578 87L86.9989 75.8091V53.4393Z" fill="url(#paint3_linear_4_11)"/>
<defs>
<linearGradient id="paint0_linear_4_11" x1="49.5612" y1="38.6288" x2="29.8635" y2="5.65527" gradientUnits="userSpaceOnUse">
<stop stop-color="#06549B"/>
<stop offset="0.55" stop-color="#2FA1D3"/>
<stop offset="0.9" stop-color="#2FA1D3"/>
</linearGradient>
<linearGradient id="paint1_linear_4_11" x1="12.1233" y1="47.5786" x2="33.0991" y2="-15.6105" gradientUnits="userSpaceOnUse">
<stop stop-color="#1371B1"/>
<stop offset="0.05" stop-color="#2FA1D3"/>
<stop offset="0.45" stop-color="#2FA1D3"/>
<stop offset="0.6" stop-color="#06569C"/>
</linearGradient>
<linearGradient id="paint2_linear_4_11" x1="49.5577" y1="64.628" x2="24.1968" y2="39.1658" gradientUnits="userSpaceOnUse">
<stop stop-color="#9D1A36"/>
<stop offset="0.4" stop-color="#9D1A36"/>
<stop offset="0.6" stop-color="#E6192F"/>
</linearGradient>
<linearGradient id="paint3_linear_4_11" x1="12.1204" y1="73.5757" x2="33.103" y2="10.3752" gradientUnits="userSpaceOnUse">
<stop stop-color="#A21C38"/>
<stop offset="0.13" stop-color="#E6192F"/>
<stop offset="0.45" stop-color="#E6192F"/>
<stop offset="0.6" stop-color="#A71C37"/>
</linearGradient>
</defs>
</svg>
