<svg width="100" height="100" viewBox="0 0 100 100" fill="none" xmlns="http://www.w3.org/2000/svg">
<g clip-path="url(#clip0_4_22)">
<rect width="100" height="100" fill="white"/>
<path d="M33 60H28V76H33V60Z" fill="#C4122E"/>
<path d="M69 63.9957C68.8136 63.9091 67.3243 63.1191 65.1086 63.1191C62.1079 63.1191 60.0315 64.9838 60.0315 67.498C60.0315 69.9375 62.0213 71.8809 65.1086 71.8809C67.2861 71.8809 68.8004 71.108 69 71.0096V75.4161C68.4248 75.5617 66.8445 76 64.7755 76C59.5679 76 55 72.7876 55 67.498C55 62.5955 59.1379 59 64.7755 59C66.956 59 68.5642 59.4737 69 59.5892V63.9957Z" fill="#C4122E"/>
<path d="M22 63.9957C21.827 63.9091 20.444 63.1191 18.3865 63.1191C15.6001 63.1191 13.6722 64.9838 13.6722 67.498C13.6722 69.9375 15.5198 71.8809 18.3865 71.8809C20.4086 71.8809 21.8147 71.108 22 71.0096V75.4161C21.4659 75.5617 19.9984 76 18.0772 76C13.2416 76 9 72.7876 9 67.498C9 62.5955 12.8424 59 18.0772 59C20.102 59 21.5953 59.4737 22 59.5892V63.9957Z" fill="#C4122E"/>
<path d="M81.4971 63.1808C78.8048 63.1808 76.8053 65.115 76.8053 67.498C76.8053 69.8863 78.8048 71.8192 81.4971 71.8192C84.1866 71.8192 86.1918 69.8863 86.1918 67.498C86.1918 65.115 84.1866 63.1808 81.4971 63.1808ZM91 67.498C91 72.1945 87.0284 76 81.4971 76C75.9659 76 72 72.1945 72 67.498C72 62.8094 75.9659 59 81.4971 59C87.0284 59 91 62.8094 91 67.498Z" fill="#C4122E"/>
<path d="M48.7748 63.026C48.7094 63.0063 46.859 62.5249 45.3387 62.5249C43.5774 62.5249 42.6196 63.0811 42.6196 63.8695C42.6196 64.8691 43.9116 65.2181 44.6342 65.4332L45.8468 65.7966C48.6996 66.6519 50 68.4924 50 70.4916C50 74.6147 46.1518 76 42.788 76C40.4504 76 38.2604 75.5946 38.0446 75.5514V71.7746C38.4316 71.8664 40.275 72.3846 42.1949 72.3846C44.3822 72.3846 45.3874 71.7825 45.3874 70.8524C45.3874 70.0207 44.5172 69.5406 43.4271 69.2178C43.1612 69.1339 42.7616 69.0158 42.4887 68.9319C40.0411 68.2025 38 66.8474 38 64.1306C38 61.0609 40.4393 59 44.4908 59C46.6307 59 48.6439 59.4893 48.7748 59.5221V63.026Z" fill="#C4122E"/>
<path d="M4.3537 41.4541C4.3537 40.3186 3.37592 39.3978 2.1773 39.3978C0.978684 39.3978 -0.000488281 40.3186 -0.000488281 41.4541V45.7803C-0.000488281 46.9224 0.978684 47.8445 2.1773 47.8445C3.37592 47.8445 4.3537 46.9224 4.3537 45.7803V41.4541Z" fill="#15495D"/>
<path d="M16.3112 35.7758C16.3112 34.6402 15.3334 33.7168 14.1348 33.7168C12.9348 33.7168 11.957 34.6402 11.957 35.7758V45.7809C11.957 46.923 12.9348 47.8439 14.1348 47.8439C15.3334 47.8439 16.3112 46.923 16.3112 45.7809V35.7758Z" fill="#15495D"/>
<path d="M28.2687 28.0068C28.2687 26.8712 27.291 25.9491 26.0923 25.9491C24.8923 25.9491 23.9146 26.8712 23.9146 28.0068V49.8917C23.9146 51.0338 24.8923 51.9559 26.0923 51.9559C27.291 51.9559 28.2687 51.0338 28.2687 49.8917V28.0068Z" fill="#15495D"/>
<path d="M40.2263 35.7758C40.2263 34.6402 39.2485 33.7168 38.0499 33.7168C36.8499 33.7168 35.8721 34.6402 35.8721 35.7758V45.7809C35.8721 46.923 36.8499 47.8439 38.0499 47.8439C39.2485 47.8439 40.2263 46.923 40.2263 45.7809V35.7758Z" fill="#15495D"/>
<path d="M52.1704 41.4541C52.1704 40.3186 51.1995 39.3978 50.0065 39.3978C48.8079 39.3978 47.8301 40.3186 47.8301 41.4541V45.7803C47.8301 46.9224 48.8079 47.8445 50.0065 47.8445C51.1995 47.8445 52.1704 46.9224 52.1704 45.7803V41.4541Z" fill="#15495D"/>
<path d="M52.1757 41.4541C52.1757 40.3186 51.1979 39.3978 49.9993 39.3978C48.8007 39.3978 47.8215 40.3186 47.8215 41.4541V45.7803C47.8215 46.9224 48.8007 47.8445 49.9993 47.8445C51.1979 47.8445 52.1757 46.9224 52.1757 45.7803V41.4541Z" fill="#15495D"/>
<path d="M64.1332 35.7758C64.1332 34.6402 63.1555 33.7168 61.9568 33.7168C60.7568 33.7168 59.7791 34.6402 59.7791 35.7758V45.7809C59.7791 46.923 60.7568 47.8439 61.9568 47.8439C63.1555 47.8439 64.1332 46.923 64.1332 45.7809V35.7758Z" fill="#15495D"/>
<path d="M76.0908 28.0068C76.0908 26.8712 75.113 25.9491 73.9144 25.9491C72.7144 25.9491 71.7366 26.8712 71.7366 28.0068V49.8917C71.7366 51.0338 72.7144 51.9559 73.9144 51.9559C75.113 51.9559 76.0908 51.0338 76.0908 49.8917V28.0068Z" fill="#15495D"/>
<path d="M88.0483 35.7758C88.0483 34.6402 87.0705 33.7168 85.8719 33.7168C84.6719 33.7168 83.6941 34.6402 83.6941 35.7758V45.7809C83.6941 46.923 84.6719 47.8439 85.8719 47.8439C87.0705 47.8439 88.0483 46.923 88.0483 45.7809V35.7758Z" fill="#15495D"/>
<path d="M99.9924 41.4541C99.9924 40.3186 99.0216 39.3978 97.8285 39.3978C96.6299 39.3978 95.6521 40.3186 95.6521 41.4541V45.7803C95.6521 46.9224 96.6299 47.8445 97.8285 47.8445C99.0216 47.8445 99.9924 46.9224 99.9924 45.7803V41.4541Z" fill="#15495D"/>
<path d="M98 74V74.238H96.7582V76H96.2485V74.238H95V74H98Z" fill="#C4122E"/>
<path d="M98 74H98.4251L99.0089 75.6406H99.0184L99.5832 74H100V76H99.7217V74.3607H99.7123L99.1202 76H98.8632L98.2854 74.3607H98.2724V76H98V74Z" fill="#C4122E"/>
</g>
<defs>
<clipPath id="clip0_4_22">
<rect width="100" height="100" fill="white"/>
</clipPath>
</defs>
</svg>
