<svg width="100" height="100" viewBox="0 0 100 100" fill="none" xmlns="http://www.w3.org/2000/svg">
<rect width="100" height="100" fill="white"/>
<path d="M12.2975 61.6103L12.2252 61.7121C11.0608 63.4398 9.71311 64.3555 8.3244 64.3555C5.42568 64.3555 3.32151 61.1885 3.32151 56.8188C3.32151 52.457 5.42568 49.2855 8.3244 49.2855C9.71311 49.2855 11.0608 50.205 12.2252 51.9373L12.2975 52.0421L14.1617 48.7593L14.1118 48.6702C12.5615 46.0021 10.7013 44.7032 8.41439 44.7032C6.11957 44.7032 4.02182 45.828 2.50997 47.8563C0.867301 50.0529 0 53.1507 0 56.8188C0 60.4851 0.867301 63.5905 2.50997 65.7877C4.02182 67.8254 6.11957 68.9439 8.41439 68.9439C10.7013 68.9439 12.5615 67.6458 14.1118 64.9766L14.1617 64.8937L12.2975 61.6103Z" fill="#003B70"/>
<path d="M16.0455 68.4971H19.3388V45.0836H16.0455V68.4971Z" fill="#003B70"/>
<path d="M32.239 63.4061C31.3604 64.1852 30.5427 64.5769 29.8084 64.5769C28.7444 64.5769 28.2635 63.759 28.2635 61.9373V49.514H31.6176V45.105H28.2635V37.8198L25.0356 40.3356V45.105H22.2509V49.514H25.0356V62.7298C25.0356 66.3304 26.5001 68.7902 28.6863 68.8541C30.1707 68.8965 31.0656 68.2525 31.6091 67.7817L31.6409 67.7472L32.4338 63.2328L32.239 63.4061Z" fill="#003B70"/>
<path d="M34.9666 68.4971H38.2621V45.0836H34.9666V68.4971Z" fill="#003B70"/>
<path d="M90.7874 36.175V58.509L91.8133 56.1834C91.8125 56.1937 96.4224 46.4719 97.0132 45.2323H99.0677C98.6304 46.088 95.0058 53.3526 95.0058 53.3526C95.0058 53.3526 99.7272 67.6809 100 68.4972H97.9825C97.8715 68.1629 93.8155 55.6579 93.8155 55.6579L90.7874 61.837V68.4972H88.9078V37.7382C89.0722 37.6007 90.345 36.5381 90.7874 36.175ZM75.3468 48.006C76.3164 45.8951 77.8355 44.7311 79.6128 44.7311C83.1568 44.7311 85.0349 48.0228 85.0349 54.2518V68.4972H83.1506V54.8416C83.1506 49.5422 81.887 47.0822 79.1499 47.0822C76.5301 47.0822 74.9658 49.9841 74.9658 54.8416V68.4972H73.0868V45.2323H74.9658V48.8401L75.3468 48.006ZM63.7941 44.7311C67.441 44.7311 69.2138 47.1598 69.2138 52.1574V68.4972H67.334V65.1029L66.9683 65.6903C65.5849 67.9131 63.997 69 62.1063 69C60.6248 69 57.1777 68.2859 57.1777 61.6628C57.1777 56.2492 60.2462 54.3277 63.1207 54.3277C64.5641 54.3277 65.9899 54.8118 67.0247 55.6562L67.334 55.9059V52.5659C67.334 48.8629 66.0922 46.9875 63.6382 46.9875C62.125 46.9875 60.7592 47.5438 59.3588 48.6933C59.2353 48.2798 58.8009 46.8812 58.68 46.4823C60.1436 45.3589 61.9509 44.7311 63.7941 44.7311ZM59.0209 61.4348C59.0209 64.9127 60.2582 66.8293 62.5062 66.8293C64.4195 66.8293 66.1189 65.5128 67.2986 63.1188L67.334 63.0367V57.936L67.2296 57.8479C66.0298 56.8518 64.801 56.45 62.9948 56.45C60.5086 56.45 59.0209 58.313 59.0209 61.4348ZM44.5066 36.175V48.6203L44.8705 48.0401C46.2548 45.8133 47.7872 44.7311 49.5489 44.7311C53.0744 44.7311 55.0981 49.0107 55.0981 56.4744C55.0981 64.083 52.7997 69 49.2414 69C47.5075 69 46.1192 68.0204 44.8724 65.9204L44.5066 65.3003V68.4972H42.6308V37.7382C42.7905 37.6007 44.0657 36.5381 44.5066 36.175ZM44.5512 50.6474L44.5066 50.7333V62.8437L44.5402 62.918C45.577 65.2548 47.2662 66.6521 49.064 66.6521C51.8404 66.6521 53.2477 63.2441 53.2477 56.524C53.2477 50.5208 51.6885 47.0822 48.97 47.0822C47.3222 47.0822 45.8354 48.2812 44.5512 50.6474Z" fill="#003B70"/>
<path fill-rule="evenodd" clip-rule="evenodd" d="M40.2348 40.9292C37.2201 34.7103 32.2135 31 27.1197 31C22.028 31 17.0204 34.7103 14.0107 40.9292L13.8563 41.2492H17.6522L17.6943 41.1828C20.2779 37.2993 23.6506 35.2456 27.1197 35.2456C30.5892 35.2456 33.9612 37.2993 36.5498 41.1828L36.5918 41.2492H40.3866L40.2348 40.9292Z" fill="#D9261C"/>
</svg>
