<svg width="100" height="100" viewBox="0 0 100 100" fill="none" xmlns="http://www.w3.org/2000/svg">
<rect width="100" height="100" fill="white"/>
<g clip-path="url(#clip0_4_6)">
<path fill-rule="evenodd" clip-rule="evenodd" d="M96.6252 58.0086L96.8158 56.9251H97V58.3988H96.8801V57.2007H96.8765L96.6643 58.3988H96.5824L96.3702 57.2007H96.3666V58.3988H96.2467V56.9251H96.4309L96.6252 58.0086ZM96.1279 57.1398H95.9194V58.3988H95.799V57.1398H95.59V56.9254H96.1278L96.1279 57.1398Z" fill="black"/>
<path fill-rule="evenodd" clip-rule="evenodd" d="M38.284 38.3499H40.8461V40.2523C41.1213 39.7302 42.0085 37.883 43.6491 37.883C45.5792 37.883 47.1128 40.9813 47.1128 45.8458V58.4693H44.4053V47.408C44.4053 44.6988 43.7985 43.0893 42.6976 43.0893C41.6303 43.0893 40.9888 44.6054 40.9888 47.408V58.4687H38.2839L38.284 38.3499Z" fill="#ED1B2F"/>
<path fill-rule="evenodd" clip-rule="evenodd" d="M66.723 48.4087C66.723 45.6267 67.6795 43.3429 69.0081 43.3429C70.3373 43.3429 71.2922 45.6267 71.2922 48.4087C71.2922 51.1902 70.3373 53.474 69.0081 53.474C67.6795 53.474 66.723 51.1902 66.723 48.4087ZM64.0535 48.4087C64.0535 54.212 66.1924 58.9256 68.9902 58.9256C71.7901 58.9256 73.9274 54.212 73.9274 48.4087C73.9274 42.6066 71.7901 37.8828 68.9902 37.8828C66.1926 37.8828 64.0535 42.6066 64.0535 48.4087Z" fill="#ED1B2F"/>
<path fill-rule="evenodd" clip-rule="evenodd" d="M29.5699 48.4099C29.5699 45.6284 30.5258 43.3441 31.8537 43.3441C33.1826 43.3441 34.1383 45.6284 34.1383 48.4099C34.1383 51.1914 33.1826 53.4775 31.8537 53.4775C30.5258 53.4775 29.5699 51.1914 29.5699 48.4099ZM26.8987 48.4111C26.8987 54.2144 29.0377 58.928 31.8362 58.928C34.6353 58.928 36.7737 54.2144 36.7737 48.4111C36.7737 42.609 34.6353 37.8833 31.8362 37.8833C29.0377 37.8833 26.8987 42.609 26.8987 48.4111Z" fill="#ED1B2F"/>
<path fill-rule="evenodd" clip-rule="evenodd" d="M87.0494 38.3499H89.7923V58.469H87.0494V38.3499ZM87.0494 31H89.7923V36.1193H87.0494V31Z" fill="#ED1B2F"/>
<path fill-rule="evenodd" clip-rule="evenodd" d="M91.9066 31H94.6494V58.4687H91.9066V31Z" fill="#ED1B2F"/>
<path fill-rule="evenodd" clip-rule="evenodd" d="M82.6755 48.3973C82.6755 51.2349 81.6741 53.4384 80.3644 53.4384C79.0399 53.4384 78.0444 51.2408 78.0444 48.4111C78.0444 45.5465 79.0526 43.3743 80.3671 43.3743C81.6885 43.3743 82.6755 45.567 82.6755 48.3973ZM78.1141 58.4687L78.1421 56.9204C78.3331 57.2347 79.1804 58.9288 80.9551 58.9288C83.2883 58.9288 85.4526 54.3839 85.4526 48.4108C85.4526 42.4274 83.4213 37.883 80.9856 37.883C79.1248 37.883 78.2723 39.7379 78.1419 39.9456V31H75.512V58.4687H78.1141Z" fill="#ED1B2F"/>
<path fill-rule="evenodd" clip-rule="evenodd" d="M10.9497 58.4687L15.264 46.729L11.4466 38.3499H15.2363L16.9282 42.1436L20.0429 33.4263H23.2199L18.6572 45.9199L20.4332 49.7976L24.5344 38.3499H27.7195L22.1695 53.5945L29.2163 69H25.3742L20.4711 58.152L17.8653 65.4916H14.6818L18.7509 54.4151L16.9725 50.5027L14.1222 58.4687H10.9497Z" fill="#ED1B2F"/>
<path fill-rule="evenodd" clip-rule="evenodd" d="M2 31H10.3207V36.1193H4.83018V41.813H10.0734V46.7802H4.83018V53.3421H10.3207V58.4687H2V31Z" fill="#ED1B2F"/>
<path fill-rule="evenodd" clip-rule="evenodd" d="M49.2774 31H53.7514L55.8618 51.0512H55.9574L58.1228 31H62.4694V58.4687H59.8077V37.7282H59.6863L57.3414 58.4687H54.3515L52.0611 37.7282H51.9408V58.4687H49.2774V31Z" fill="#ED1B2F"/>
</g>
<defs>
<clipPath id="clip0_4_6">
<rect width="95" height="38" fill="white" transform="translate(2 31)"/>
</clipPath>
</defs>
</svg>
