<svg width="100" height="100" viewBox="0 0 100 100" fill="none" xmlns="http://www.w3.org/2000/svg">
<rect width="100" height="100" fill="white"/>
<path d="M49.4969 87C70.2122 87 87 70.2122 87 49.5031C87 28.7939 70.2122 12 49.4969 12C28.7878 12 12 28.7939 12 49.5031C12 70.2122 28.7878 87 49.4969 87Z" fill="white"/>
<path d="M57.9122 39.7362C57.9122 35.4719 60.799 31.3362 62.374 32.1153C64.1694 33.0153 61.0286 37.0316 57.9122 39.7362ZM38.2821 41.2898C38.2821 37.8612 41.6648 31.3469 43.7311 32.0357C46.174 32.85 41.7077 39.4209 38.2821 41.2898ZM34.852 65.8102C33.2969 65.8806 32.2561 64.8857 32.2561 63.225C32.2561 58.7633 38.4474 54.5005 43.1235 52.2122C42.2939 58.4418 40.1893 65.5699 34.852 65.8102ZM63.4163 51.2709C59.8852 51.2709 57.1867 53.8684 57.1867 56.9832C57.1867 59.5806 58.748 61.6577 60.8189 61.6577C61.552 61.6577 62.2776 61.2398 62.2776 60.3122C62.2776 58.9546 60.4867 58.6286 60.6214 56.6097C60.7117 55.2781 61.9668 54.3872 63.2128 54.3872C65.7031 54.3872 66.8679 56.801 66.8679 59.2913C66.7668 63.1378 63.9352 65.8087 60.6168 65.8087C56.2515 65.8087 53.4474 61.6577 53.4474 57.1898C53.4474 50.5378 57.8128 47.9418 60.0995 47.3219C60.1209 47.3219 66.0719 48.3796 65.8867 45.7561C65.801 44.602 64.0852 44.1582 62.8454 44.1107C61.4663 44.0571 60.0735 44.5531 60.0735 44.5531C59.351 44.1857 58.849 43.4679 58.5383 42.6413C62.798 39.4179 65.8102 36.3046 65.8102 32.7719C65.8102 30.9031 64.5612 29.2408 62.1719 29.2408C57.9122 29.2408 54.6918 34.6423 54.6918 39.525C54.6918 40.3531 54.6918 41.1872 54.9061 41.9128C52.2031 43.8842 50.1934 45.1133 46.5612 47.2944C46.5612 46.8398 46.6561 45.6658 46.9622 44.1474C48.2066 42.7959 49.9163 40.7709 49.9163 39.2112C49.9163 38.4857 49.5046 37.8597 48.6658 37.8597C46.5918 37.8597 45.0367 40.9791 44.6204 43.1602C43.6852 44.3082 41.8148 45.7622 40.2536 45.7622C39.0092 45.7622 38.5913 44.6189 38.4857 44.201C42.4347 42.8495 47.3173 37.448 47.3173 32.5653C47.3173 31.5291 46.901 29.2408 43.7862 29.2408C39.1117 29.2408 35.1689 36.2036 35.1689 41.599C33.502 41.599 32.8821 39.8357 32.8821 38.4842C32.8821 37.1311 33.401 35.7857 33.401 35.3679C33.401 34.9515 33.1929 34.4342 32.5668 34.4342C31.0117 34.4342 30.0765 36.5112 30.0765 38.9005C30.1837 42.225 32.3633 44.3082 35.2699 44.5117C35.6862 46.4878 37.4495 48.3582 39.6291 48.3582C40.9821 48.3582 42.6429 47.9418 43.7862 46.9056C43.6852 47.6311 43.5842 48.2571 43.477 48.877C38.9036 51.2709 35.5791 52.9316 32.5668 55.6316C30.1837 57.8158 28.8321 60.7225 28.8321 63.0046C28.8321 66.1255 30.8036 69.0321 34.8536 69.0321C39.6291 69.0321 43.2689 65.1903 45.0367 59.8898C45.8648 57.3995 46.1969 53.7719 46.4097 50.4429C51.1821 47.7383 53.4474 46.1801 55.9423 44.4107C56.2531 44.9296 56.5668 45.3444 56.9786 45.6551C54.799 46.7985 49.6056 50.0204 49.6056 57.6015C49.6056 63.0031 53.2378 69.0306 60.4102 69.0306C66.3306 69.0306 70.3806 64.1464 70.3806 59.4704C70.3791 55.2153 67.9898 51.2709 63.4163 51.2709ZM81.277 60.1944C81.2617 60.2265 81.2036 60.2694 81.0857 60.2311C80.9939 60.199 80.974 60.1561 80.974 60.0964C80.9786 60.0383 82.2291 56.3403 82.2184 52.1036C82.2077 47.524 80.3495 44.7184 77.9663 44.7184C76.5077 44.7184 75.4699 45.7607 75.4699 47.3219C75.4699 50.126 78.8954 50.3357 78.8954 56.4628C78.8954 58.9531 78.3765 61.3423 77.55 63.9383C73.702 76.9209 61.4449 82.9485 49.5046 82.9485C43.9959 82.9485 40.0837 81.8158 38.9204 81.2939C38.873 81.2663 38.8286 81.176 38.8668 81.0842C38.8929 81.0153 38.974 80.9617 39.0214 80.9832C39.4929 81.1653 42.8526 82.223 47.0097 82.223C51.5786 82.223 54.2816 80.3541 54.2816 78.0658C54.2816 76.6133 53.1383 75.4699 51.6857 75.4699C48.8801 75.4699 48.6673 79.001 42.6444 79.001C40.0485 79.001 37.7617 78.4821 35.0633 77.648C22.1786 73.702 16.0454 61.552 16.05 49.5031C16.0546 43.6316 17.7015 38.9556 17.7276 38.9128C17.749 38.8821 17.8224 38.8485 17.9128 38.8821C18.0046 38.9128 18.0245 38.9878 18.0199 39.0153C17.8714 39.502 16.7801 42.8526 16.7801 47.0097C16.7801 51.5832 18.649 54.2816 21.0383 54.2816C22.3852 54.2816 23.5286 53.2454 23.5286 51.7913C23.5286 48.9827 20.0985 48.6719 20.0985 42.6459C20.0985 40.0485 20.6219 37.7617 21.45 35.0633C25.399 22.1816 37.5551 16.1449 49.5015 16.0515C55.0531 16.0087 59.9097 17.6709 60.0964 17.8194C60.1286 17.8469 60.1607 17.9173 60.1286 18.0015C60.0842 18.1026 60.0199 18.1133 59.9893 18.1071C59.9311 18.1026 56.7719 16.7816 51.9903 16.7816C47.524 16.777 44.7184 18.6474 44.7184 21.0398C44.7184 22.3867 45.7607 23.5301 47.3143 23.5301C50.1199 23.5301 50.3281 20.1046 56.3556 20.1046C58.9454 20.1046 61.2337 20.6173 63.9321 21.4515C76.9209 25.399 82.8306 37.6561 82.9423 49.5015C83.0036 55.5673 81.2939 60.1561 81.277 60.1944ZM49.5031 13.7679C29.7658 13.7679 13.7694 29.7597 13.7694 49.5015C13.7694 69.2388 29.7658 85.2306 49.5031 85.2306C69.2357 85.2306 85.2321 69.2388 85.2321 49.5015C85.2321 29.8668 69.2357 13.7679 49.5031 13.7679ZM49.5031 87C28.8306 87 12 70.2765 12 49.5031C12 28.8245 28.8306 12 49.5031 12C70.1694 12 87 28.8245 87 49.5031C87 70.2765 70.1694 87 49.5031 87Z" fill="#3B73B9"/>
</svg>
