<svg width="100" height="100" viewBox="0 0 100 100" fill="none" xmlns="http://www.w3.org/2000/svg">
<rect width="100" height="100" fill="white"/>
<g clip-path="url(#clip0_4_12)">
<mask id="mask0_4_12" style="mask-type:luminance" maskUnits="userSpaceOnUse" x="2" y="31" width="96" height="37">
<path d="M2 31.9125V39.175H7.31054V59.825H2.1425V67H20.6675V59.825H15.357V39.175H20.525V31.9125H2ZM43.1474 31.9913L23.09 32V39.175H28.4005V48.45V50.55V59.825H23.09V67L43.1474 67.0087C46.7194 67.0087 49.4078 64.6112 49.4078 64.6112L51.5264 62.3451C52.1249 61.8026 52.4688 59.9562 52.4688 59.9562L52.6873 57.69C52.6873 56.5612 52.1789 55.2924 52.1789 55.2924L51.0864 53.0263C50.5354 51.8538 48.8255 50.6288 48.8255 50.6288V50.55V48.45V48.3712C48.8255 48.3712 50.5354 47.1462 51.0864 45.9737L52.1789 43.7076C52.1789 43.7076 52.6873 42.4388 52.6873 41.31L52.4688 39.0438C52.4688 39.0438 52.1249 37.1974 51.5264 36.6549L49.4078 34.3888C49.4078 34.3888 46.7194 31.9913 43.1474 31.9913ZM54.63 32V39.175H59.9405V59.825H54.7725V67H67.9775V47.05L75.8339 67L75.9937 67.0034L83.7076 47.0534V67.0034H97.0076V59.8284H91.6971V39.1784H96.8651V32.0034H82.0451L75.8987 48.0159L69.6762 32.0034L54.63 32ZM36.39 39.175H44.18V45.825H36.39V39.175ZM36.39 53.175H44.18V59.825H36.39V53.175Z" fill="white"/>
</mask>
<g mask="url(#mask0_4_12)">
<path d="M-1.95434 32.8323H105.722V35.2178H-1.95434M-1.95434 37.6032H105.722V39.9886H-1.95434V42.3741H105.722V44.7595H-1.95434M-1.95434 47.1449H105.722V49.5304M105.722 49.5304H-1.95434M105.722 49.5304V51.9158H-1.95435M-1.95435 54.3012H105.722V56.6867H-1.95435V59.0721H105.722V61.4575H-1.95435M-1.95435 63.843H105.722V66.2284H-1.95435" stroke="#1F70C1" stroke-width="16.063"/>
</g>
</g>
<defs>
<clipPath id="clip0_4_12">
<rect width="95" height="35" fill="white" transform="translate(2 32)"/>
</clipPath>
</defs>
</svg>
