<svg width="100" height="100" viewBox="0 0 100 100" fill="none" xmlns="http://www.w3.org/2000/svg">
<rect width="100" height="100" fill="white"/>
<path d="M9.09433 68.4701V42.9349H2V68.4701H9.09433ZM56.2476 68.7224V62.4648C55.2075 62.4648 54.3273 62.4143 53.6873 62.3134C52.9405 62.2125 52.3804 61.9602 52.007 61.6069C51.6336 61.2537 51.3936 60.749 51.2602 60.093C51.1536 59.4622 51.1002 58.6295 51.1002 57.6202V48.6879H56.2476V42.9349H51.1002V32.9681H43.9792V57.6706C43.9792 59.7649 44.1659 61.5312 44.5393 62.9442C44.9127 64.332 45.5528 65.4675 46.4329 66.3254C47.313 67.1833 48.4865 67.7888 49.9001 68.1673C51.3403 68.5458 53.1538 68.7224 55.3141 68.7224H56.2476ZM97 68.4701V31H89.879V68.4701H97ZM37.1249 45.4329C35.1513 43.4143 32.3776 42.405 28.8571 42.405C27.1502 42.405 25.6033 42.7331 24.1898 43.3891C22.8029 44.0452 21.6028 44.9535 20.6693 46.1142L20.2692 46.5936V46.1647V42.9349H13.2549V68.4701H20.3226V54.8699V55.8035C20.3226 55.6521 20.3226 55.5007 20.3226 55.3493C20.4026 52.9522 21.016 51.1859 22.1895 50.0505C23.443 48.8393 24.9632 48.2337 26.6968 48.2337C28.7504 48.2337 30.324 48.8393 31.3641 50C32.3776 51.1607 32.911 52.8008 32.911 54.8951V54.9455V68.4449H40.0853V53.9615C40.112 50.328 39.0985 47.4515 37.1249 45.4329ZM86.1985 55.6521C86.1985 53.8101 85.8518 52.0943 85.185 50.4794C84.4916 48.8898 83.5314 47.4768 82.3313 46.2656C81.1044 45.0544 79.6376 44.1208 77.9307 43.4396C76.2237 42.7583 74.3301 42.4303 72.2765 42.4303C70.3296 42.4303 68.4893 42.7835 66.7824 43.4648C65.0755 44.1713 63.582 45.1049 62.3285 46.2908C61.075 47.4768 60.0615 48.8898 59.3414 50.5046C58.5946 52.1195 58.2479 53.8606 58.2479 55.7025C58.2479 57.5445 58.5946 59.2855 59.288 60.9004C59.9815 62.5153 60.9683 63.9283 62.1951 65.1142C63.4219 66.3001 64.9422 67.259 66.7024 67.9402C68.4627 68.6467 70.4096 69 72.4899 69C78.5174 69 82.2513 66.4011 84.4916 63.9787L79.3709 60.2948C78.304 61.506 75.7437 63.1461 72.5432 63.1461C70.5429 63.1461 68.8894 62.7171 67.6359 61.834C66.3824 60.9761 65.5289 59.7649 65.0755 58.2762L64.9955 58.0491H86.1985V55.6521ZM65.0488 53.3054C65.0488 51.4382 67.3158 48.1833 72.1965 48.158C77.0772 48.158 79.3709 51.413 79.3709 53.2802L65.0488 53.3054Z" fill="#0068B5"/>
</svg>
