<svg width="100" height="100" viewBox="0 0 100 100" fill="none" xmlns="http://www.w3.org/2000/svg">
<rect width="100" height="100" fill="white"/>
<g clip-path="url(#clip0_4_27)">
<path d="M9.88956 55.0844C8.90996 55.0844 8.36382 52.7917 8.36382 48.6434C8.36382 44.495 8.90996 42.2023 9.88956 42.2023C10.8692 42.2023 11.4153 44.465 11.4153 48.6434C11.4153 52.8217 10.8692 55.0844 9.88956 55.0844ZM9.88956 40.4753C7.89396 40.4753 6.7878 44.1522 6.7878 48.6434C6.7878 53.1345 7.89396 56.8114 9.88956 56.8114C11.8852 56.8114 12.9913 53.1345 12.9913 48.6434C12.9913 44.1522 11.8852 40.4753 9.88956 40.4753ZM23.7582 40.4753C22.8167 40.4753 22.2966 41.4824 22.0036 42.768H21.9273V40.7881H20.4276V56.4986H21.9273V46.3506C21.9273 44.0279 22.411 42.6737 23.186 42.6737C23.961 42.6737 24.2662 43.8994 24.2662 45.755V56.4986H25.7659V45.7207C25.7659 42.4852 25.0793 40.4753 23.7582 40.4753ZM29.1728 40.4753C27.7875 40.4753 26.7455 41.9195 26.7455 45.0007C26.7455 47.6106 27.4702 49.0248 28.2834 49.5262L29.5542 50.3104C30.2287 50.7175 30.5338 51.3175 30.5338 52.6374C30.5338 54.2402 30.0761 55.153 29.2751 55.153C28.4099 55.153 27.9661 54.1159 27.8256 51.5103L26.4785 52.4531C26.5548 55.1572 27.5725 56.82 29.1104 56.82C30.8268 56.82 31.7544 54.8401 31.7544 51.6989C31.7544 48.7462 30.9274 47.5206 30.064 46.9849L28.8434 46.2306C28.2331 45.8535 27.9661 45.1636 27.9661 44.1565C27.9661 42.9009 28.3978 42.1466 29.0462 42.1466C29.8091 42.1466 30.279 43.1837 30.3431 45.1636L31.614 44.2208C31.4614 42.0223 30.5841 40.4839 29.1728 40.4839M35.4769 55.093C34.4973 55.093 33.9511 52.8002 33.9511 48.6519C33.9511 44.5036 34.4973 42.2109 35.4769 42.2109C36.4565 42.2109 37.0026 44.4736 37.0026 48.6519C37.0026 52.8302 36.4565 55.093 35.4769 55.093ZM35.4769 40.4839C33.4813 40.4839 32.3751 44.1608 32.3751 48.6519C32.3751 53.1431 33.4813 56.82 35.4769 56.82C37.4725 56.82 38.5786 53.1431 38.5786 48.6519C38.5786 44.1608 37.4725 40.4839 35.4769 40.4839ZM42.7987 40.4839C41.8572 40.4839 41.3371 41.4909 41.0441 42.7766H40.9678V40.7967H39.4681V56.5072H40.9678V46.3592C40.9678 44.0365 41.4515 42.6823 42.2265 42.6823C43.0015 42.6823 43.3067 43.9079 43.3067 45.7635V56.5072H44.8064V45.7292C44.8064 42.4937 44.1198 40.4839 42.7987 40.4839ZM65.0814 55.093C64.1018 55.093 63.5557 52.8002 63.5557 48.6519C63.5557 44.5036 64.1018 42.2109 65.0814 42.2109C66.061 42.2109 66.6071 44.4736 66.6071 48.6519C66.6071 52.8302 66.061 55.093 65.0814 55.093ZM65.0814 40.4839C63.0858 40.4839 61.9796 44.1608 61.9796 48.6519C61.9796 53.1431 63.0858 56.82 65.0814 56.82C67.077 56.82 68.1832 53.1431 68.1832 48.6519C68.1832 44.1608 67.077 40.4839 65.0814 40.4839ZM78.95 40.4839C78.0086 40.4839 77.4884 41.4909 77.1954 42.7766H77.1191V40.7967H75.6194V56.5072H77.1191V46.3592C77.1191 44.0365 77.6029 42.6823 78.3779 42.6823C79.1529 42.6823 79.458 43.9079 79.458 45.7635V56.5072H80.9577V45.7292C80.9577 42.4937 80.2712 40.4839 78.95 40.4839ZM84.3646 40.4839C82.9793 40.4839 81.9373 41.9281 81.9373 45.0093C81.9373 47.6191 82.6621 49.0333 83.4752 49.5347L84.7461 50.319C85.4205 50.7261 85.7257 51.326 85.7257 52.646C85.7257 54.2487 85.268 55.1615 84.4669 55.1615C83.6018 55.1615 83.1579 54.1244 83.0175 51.5189L81.6703 52.4617C81.7466 55.1658 82.7644 56.8286 84.3022 56.8286C86.0187 56.8286 86.9463 54.8487 86.9463 51.7074C86.9463 48.7548 86.1192 47.5291 85.2558 46.9935L84.0352 46.2392C83.4249 45.8621 83.1579 45.1721 83.1579 44.1651C83.1579 42.9094 83.5896 42.1552 84.2381 42.1552C85.0009 42.1552 85.4708 43.1923 85.535 45.1721L86.8058 44.2293C86.6533 42.0309 85.776 40.4924 84.3646 40.4924M90.6687 55.1015C89.6891 55.1015 89.143 52.8088 89.143 48.6605C89.143 44.5122 89.6891 42.2195 90.6687 42.2195C91.6483 42.2195 92.1945 44.4822 92.1945 48.6605C92.1945 52.8388 91.6483 55.1015 90.6687 55.1015ZM90.6687 40.4924C88.6731 40.4924 87.567 44.1693 87.567 48.6605C87.567 53.1516 88.6731 56.8286 90.6687 56.8286C92.6643 56.8286 93.7705 53.1516 93.7705 48.6605C93.7705 44.1693 92.6643 40.4924 90.6687 40.4924ZM97.9905 40.4924C97.0491 40.4924 96.5289 41.4995 96.2359 42.7851H96.1596V40.8053H94.6599V56.5157H96.1596V46.3678C96.1596 44.0451 96.6434 42.6909 97.4184 42.6909C98.1934 42.6909 98.4985 43.9165 98.4985 45.7721V56.5157H99.9983V45.7378C99.9983 42.5023 99.3117 40.4924 97.9905 40.4924ZM5.89837 34.5014H4.32235V50.7432C4.32235 53.3831 3.91491 54.9515 2.94918 54.9515C1.98346 54.9515 1.57602 53.2845 1.57602 50.4261V47.4091L0 48.3819V49.7319C0 53.8459 0.82702 56.9914 2.94918 56.9914C5.07135 56.9914 5.89837 53.8502 5.89837 49.7319V34.5014ZM15.3805 34.5014H13.8807V56.4943H15.3805V46.3464C15.3805 44.0236 15.8642 42.6694 16.6392 42.6694C17.4142 42.6694 17.7194 43.8951 17.7194 45.7507V56.4943H19.2191V45.7164C19.2191 42.4809 18.5325 40.471 17.2114 40.471C16.2699 40.471 15.7498 41.4781 15.4568 42.7637H15.3805V34.5014ZM61.0902 34.5014H59.5142V50.7432C59.5142 53.3831 59.1067 54.9515 58.141 54.9515C57.1753 54.9515 56.7679 53.2845 56.7679 50.4261V47.4091L55.1918 48.3819V49.7319C55.1918 53.8459 56.0189 56.9914 58.141 56.9914C60.2632 56.9914 61.0902 53.8502 61.0902 49.7319V34.5014ZM70.5723 34.5014H69.0726V56.4943H70.5723V46.3464C70.5723 44.0236 71.0561 42.6694 71.8311 42.6694C72.6061 42.6694 72.9112 43.8951 72.9112 45.7507V56.4943H74.4109V45.7164C74.4109 42.4809 73.7244 40.471 72.4032 40.471C71.4618 40.471 70.9416 41.4781 70.6486 42.7637H70.5723V34.5014ZM49.7512 54.703C48.5306 54.703 47.7816 52.2517 47.7816 49.6461C47.7816 48.0134 48.0746 46.5049 48.5566 45.6564L51.4295 53.4173C50.8955 54.2016 50.2973 54.7073 49.7512 54.7073M52.5478 50.8418L50.0563 44.0536C50.5019 43.6122 50.9336 43.458 51.2891 43.458C52.3189 43.458 52.9535 44.9364 52.9535 47.482C52.9535 48.6134 52.827 49.7747 52.5461 50.8418M49.7113 43.1451L49.1652 41.6366C48.6814 40.3167 48.5427 39.4982 48.5427 38.5254C48.5427 36.7041 49.0126 35.667 49.7495 35.667C50.4863 35.667 50.944 36.7341 50.944 38.684C50.944 40.4753 50.5886 42.1723 49.7113 43.1451ZM49.7876 34.0043C48.033 34.0043 47.1696 36.4255 47.1696 39.4382C47.1696 41.071 47.4487 42.708 48.1873 44.6836L48.1995 44.7479C46.9546 46.2264 46.3824 48.6134 46.3824 51.0646C46.3824 54.3001 47.3863 57.0043 48.9381 57.0043C49.8275 57.0043 50.8695 56.0915 51.8109 54.4587L52.5738 56.5029H54.5694V56.3443L52.9431 51.9132C53.6297 49.9033 54.0233 47.7048 54.0233 45.785C54.0233 43.398 53.3748 41.7952 52.3588 41.7952C51.8248 41.7952 51.2267 42.1723 50.8331 42.5494L50.8071 42.4252C51.7728 41.1352 52.1802 39.9439 52.1802 38.2769C52.1802 35.8899 51.3151 34.0043 49.7911 34.0043" fill="#EB1700"/>
</g>
<defs>
<clipPath id="clip0_4_27">
<rect width="100" height="23" fill="white" transform="translate(0 34)"/>
</clipPath>
</defs>
</svg>
