<svg width="100" height="100" viewBox="0 0 100 100" fill="none" xmlns="http://www.w3.org/2000/svg">
<rect width="100" height="100" fill="white"/>
<path d="M10.0013 42.4921H6.99927V56.4789H8.82436V51.5237H10.3845C12.1851 51.5237 13.259 49.5408 13.259 46.9434C13.259 44.0579 12.3115 42.4921 10.0013 42.4921ZM11.4362 46.8855C11.4362 47.8105 11.2097 49.1724 10.1288 49.1724H8.82436V44.8197H10.1288C11.2097 44.8197 11.4362 45.9776 11.4362 46.8855Z" fill="black"/>
<path d="M66.0925 45.4289C65.4036 45.4289 64.7805 45.9987 64.4078 46.775H64.3839V42.4921H62.8552V56.4789H64.3839V49.0658C64.7362 48.1303 65.2295 47.7987 65.6348 47.7987C66.729 47.7987 66.7465 49.3789 66.7465 51.4513V56.4776H68.2763V50.3197C68.2763 47.9303 67.9927 45.4289 66.0925 45.4289Z" fill="black"/>
<path d="M52.0018 45.4289C51.3117 45.4289 50.6461 45.9961 50.278 46.775H50.2553V45.6553H48.7488V56.4789H50.278V49.0658C50.6298 48.1303 51.1236 47.7987 51.5307 47.7987C52.622 47.7987 52.6401 49.3789 52.6401 51.4513V56.4776H54.1711V50.3197C54.1711 47.9276 53.9009 45.4289 52.0018 45.4289Z" fill="black"/>
<path d="M61.7202 53.8C61.2899 54.0421 60.6307 54.3855 59.7332 54.3855C58.13 54.3855 57.1686 52.4224 57.1686 49.5461C57.1686 46.7105 58.1586 44.7092 59.5743 44.579C60.2422 44.5224 60.8286 44.7618 61.2596 45.0118L61.9194 42.875C61.1944 42.4447 60.3028 42.2882 59.4671 42.2882C56.8465 42.2882 55.2817 45.2658 55.2817 49.5474C55.2817 54.5066 57.3759 56.625 59.4805 56.7487C60.1182 56.7829 60.9888 56.5855 61.7202 56.2145V53.8Z" fill="black"/>
<path d="M18.8725 52.4447L17.2925 42.4921H14.3843V56.4789H16.1436V45.4039H16.2472L18.0473 56.4789H19.6971L21.4948 45.4039H21.6014V56.4789H23.3659V42.4921H20.4681L18.8725 52.4447Z" fill="black"/>
<path d="M30.6139 51.0553C30.6139 47.204 29.2477 45.2882 27.4919 45.2882C25.7384 45.2882 24.3699 47.204 24.3699 51.0553C24.3699 54.8921 25.7384 56.8211 27.4919 56.8211C29.2477 56.8211 30.6139 54.8921 30.6139 51.0553ZM28.9833 51.0553C28.9833 53.1697 28.5005 54.6105 27.4919 54.6105C26.4873 54.6105 25.9987 53.1697 25.9987 51.0553C25.9987 48.9395 26.4873 47.4882 27.4919 47.4882C28.5005 47.4882 28.9833 48.9382 28.9833 51.0553Z" fill="black"/>
<path d="M38.4259 54.304C37.5384 54.304 37.1116 52.6961 37.1116 51.0461C37.1116 49.3974 37.4587 47.6474 38.4801 47.6474C39.3804 47.6474 39.7869 49.1447 39.7869 50.9868C39.7869 52.554 39.4235 54.304 38.4259 54.304ZM39.8498 45.65V46.6882H39.8259C39.4951 45.9487 38.9757 45.4276 38.0678 45.4276C36.2905 45.4276 35.5171 48.3487 35.5171 50.9961C35.5171 54.1145 36.312 56.4618 37.9606 56.5895C38.8016 56.6724 39.4526 55.8382 39.7578 55.1842H39.7787C39.7787 55.1842 39.7787 55.4079 39.7787 55.6395C39.7787 57.3092 39.4911 58.9329 37.9909 58.9329C37.3905 58.9329 36.7202 58.704 36.0843 58.0105V60.5211C36.7103 60.9934 37.4068 61.1658 38.2175 61.1658C40.707 61.1658 41.2935 58.1145 41.2935 55.2013V45.65H39.8498Z" fill="black"/>
<path d="M46.0414 53.5645C45.5546 54.4013 45.0573 54.6461 44.6182 54.6868C44.0941 54.7237 43.7318 54.3474 43.7318 53.225C43.7318 51.9013 44.5809 51.6776 45.5144 51.6776H46.0414V53.5645ZM47.523 49.6684C47.523 46.8842 46.7566 45.4276 45.0148 45.4276C44.4452 45.4276 43.6247 45.5711 42.9078 46.004V48.1697C43.4669 47.7145 44.1348 47.4868 44.6758 47.4868C45.4492 47.4868 46.0414 47.7105 46.0414 49.8816H45.2908C44.6508 49.8816 43.7714 50.0211 43.2933 50.3803C42.7378 50.7987 42.209 51.6934 42.209 53.2724C42.209 55.8171 43.1937 56.7316 44.2996 56.7316C45.1178 56.7316 45.6903 56.3197 46.1096 55.3895H46.1317V56.4763H47.523V49.6684Z" fill="black"/>
<path d="M73.0231 53.5645C72.5351 54.4013 72.0378 54.6461 71.5946 54.6868C71.074 54.7237 70.7089 54.3474 70.7089 53.225C70.7089 51.9013 71.5591 51.6776 72.4944 51.6776H73.0231V53.5645ZM74.5046 49.6684C74.5046 46.8842 73.7388 45.4276 71.9912 45.4276C71.4257 45.4276 70.607 45.5711 69.886 46.004V48.1697C70.4474 47.7145 71.1154 47.4868 71.6558 47.4868C72.4326 47.4868 73.0231 47.7105 73.0231 49.8816H72.2754C71.6331 49.8816 70.7543 50.0211 70.2709 50.3803C69.72 50.7987 69.1907 51.6934 69.1907 53.2724C69.1907 55.8171 70.1731 56.7316 71.279 56.7316C72.0989 56.7316 72.6743 56.3197 73.0878 55.3895H73.1117V56.4763H74.5046V49.6684Z" fill="black"/>
<path d="M3.65262 42.4921V50.9974C3.65262 52.9184 3.26186 54.096 2.39182 54.1263C2.11229 54.1395 1.51829 54.0974 1 53.8395V56.4987C1.52354 56.6816 2.16063 56.7329 2.67951 56.7329C4.41201 56.7329 5.47596 54.6605 5.47596 51.4592V42.4921H3.65262Z" fill="black"/>
<path d="M85.4715 54.0197C84.8909 54.3895 84.4885 54.5553 83.8752 54.5553C82.8847 54.5553 82.208 53.7197 82.1282 51.9763H86.0381C86.0596 51.5145 86.0567 50.8355 86.0352 50.3053C85.9228 47.5618 85.1774 45.4276 83.3721 45.4276C81.5208 45.4276 80.6938 48.2079 80.6938 51.1658C80.6938 55.1605 82.0047 56.7316 83.7477 56.7316C84.4698 56.7316 84.9724 56.5053 85.4715 56.2105V54.0197ZM83.4594 47.4737C84.1868 47.4737 84.5368 48.4158 84.648 49.529C84.6649 49.7066 84.6742 49.8974 84.6707 50.0592H82.1282C82.1905 48.6855 82.6226 47.4737 83.4594 47.4737Z" fill="black"/>
<path d="M77.9224 45.4289C76.7513 45.4289 75.572 46.2684 75.572 48.7566C75.572 50.8776 76.36 51.5329 77.2445 52.0697C78.1862 52.6395 78.5176 52.7895 78.5362 53.525C78.5543 54.3039 78.2147 54.6908 77.3878 54.6908C76.8602 54.6908 76.12 54.3868 75.6396 53.9145V56.2039C76.4298 56.6645 77.032 56.7329 77.5829 56.7329C78.9048 56.7329 80.0888 55.8868 80.0888 53.3053C80.0888 51.1868 79.4156 50.3789 78.3312 49.8118C77.538 49.3882 77.0943 49.2158 77.0943 48.4671C77.0943 47.6974 77.4944 47.4184 78.1577 47.4184C78.6515 47.4184 79.1349 47.6974 79.4662 47.9368L80.0334 46.1053C79.4936 45.7197 78.7878 45.4289 77.9224 45.4289Z" fill="black"/>
<path d="M34.6775 45.4289C34.0271 45.4289 33.4179 45.8092 33.0411 47.3013H33.0173V45.6566H31.5608V56.4803H33.1442V51.1908C33.1442 50.0579 33.2281 49.3737 33.3329 48.9803C33.5076 48.325 33.7213 47.9658 34.1383 47.825C34.3479 47.7605 34.6542 47.8171 34.8703 48.0961L35.5784 45.8092C35.2838 45.5539 35.0357 45.4289 34.6775 45.4289Z" fill="black"/>
<path d="M92.77 38C92.5714 38 92.4106 38.3632 92.4106 38.8105V44.4961H99.0582L96.0311 38H92.77Z" fill="#0079C1"/>
<path d="M99.3024 46.2158C99.3024 45.7671 99.1417 45.4053 98.9431 45.4053H96.4268V60.425L99.3013 53.5855L99.3024 46.2158Z" fill="#0079C1"/>
<path d="M95.665 60.9711C95.8624 60.9711 96.0231 60.6092 96.0231 60.1592V54.475H89.375L92.4021 60.9697L95.665 60.9711Z" fill="#0079C1"/>
<path d="M89.1321 52.7553C89.1321 53.2039 89.2922 53.5671 89.4902 53.5671H92.0077V38.5461L89.1321 45.3868V52.7553Z" fill="#0079C1"/>
</svg>
