<svg width="100" height="100" viewBox="0 0 100 100" fill="none" xmlns="http://www.w3.org/2000/svg">
<rect width="100" height="100" fill="white"/>
<path d="M47.4406 40.4998H51.9624V59.4985H48.6116V46.7224L44.325 59.4985L39.8136 46.7064V59.4985H36.687V40.4998H41.1562L44.3783 50.3334L47.4406 40.4998Z" fill="#231F20"/>
<path d="M53.6284 40.4998V59.4985H62.0489V56.2776H56.8928V51.4442H61.8358V48.1929H56.8928V43.834H62.0489V40.4998H53.6284Z" fill="#231F20"/>
<path d="M74.6079 50.0025C74.6079 57.0746 80.2775 62.7338 86.2512 58.9486V54.8783C81.6546 59.0704 77.6533 54.8687 77.7189 50.165C77.7637 47.0388 79.3774 44.0658 82.4987 43.834C84.0338 43.7206 85.0736 44.2173 86.2512 45.6852V41.4524C81.9347 38.1224 74.6079 41.7875 74.6079 50.0025Z" fill="#231F20"/>
<path d="M87.6289 59.4985H90.7327V40.6825H87.6289V59.4985Z" fill="#231F20"/>
<path d="M94.6274 49.3105L99.3176 40.724H95.6925L91.0459 49.2944L96.4405 59.4985H99.9999L94.6274 49.3105Z" fill="#231F20"/>
<path d="M63.5 40.4996V59.4984H66.7757V49.2913L72.1905 59.4984H75.6824L71.3956 51.5209C73.3823 50.5428 74.0269 48.3742 74.0269 46.2067C74.0269 44.0408 72.6303 40.4996 69.2471 40.4996H63.5ZM66.7757 43.6611H68.2056C70.623 43.6611 70.7521 45.7185 70.7521 46.4868C70.7521 47.9546 69.7955 49.2046 68.5607 49.2046H66.7757V43.6611Z" fill="#231F20"/>
<path d="M7.29685 40.5002C7.29685 35.253 10.5644 31 14.5943 31C18.6255 31 21.8918 35.253 21.8918 40.5002H7.29685ZM7.29685 59.4998C7.29685 54.2535 10.5644 49.9996 14.5943 49.9996C10.5644 49.9996 7.29685 45.7474 7.29685 40.5002C3.26695 40.5002 0 44.7533 0 49.9996C0 55.2476 3.26695 59.4998 7.29685 59.4998ZM7.29685 59.4998C7.29685 64.7478 10.5644 69 14.5943 69C18.6255 69 21.8918 64.7478 21.8918 59.4998H7.29685ZM14.5943 49.9996C18.6255 49.9996 21.8918 54.2535 21.8918 59.4998C25.9224 59.4998 29.19 55.2476 29.19 49.9996C29.19 44.7533 25.9224 40.5002 21.8918 40.5002C21.8918 45.7474 18.6255 49.9996 14.5943 49.9996Z" fill="#007A73"/>
</svg>
