<svg width="100" height="100" viewBox="0 0 100 100" fill="none" xmlns="http://www.w3.org/2000/svg">
<rect width="100" height="100" fill="white"/>
<g clip-path="url(#clip0_4_19)">
<path d="M13.0451 60.2065C13.0451 63.8857 13.8246 66.7104 14.8433 68.4193C16.179 70.6576 18.1712 71.6059 20.2022 71.6059C22.8218 71.6059 25.2183 70.9324 29.8366 64.3146C33.5364 59.0103 37.896 51.5648 40.8294 46.8972L45.7969 38.9893C49.2477 33.4974 53.2419 27.3923 57.8214 23.254C61.56 19.8764 65.5929 18 69.6517 18C76.466 18 82.9568 22.0913 87.9244 29.7646C93.361 38.1684 96 48.7535 96 59.6771C96 66.1709 94.7646 70.9424 92.6624 74.712C90.6314 78.3577 86.6728 82 80.0138 82V71.6059C85.7155 71.6059 87.1385 66.1776 87.1385 59.9652C87.1385 51.1125 85.1463 41.288 80.7577 34.2681C77.6432 29.2888 73.607 26.2463 69.1666 26.2463C64.364 26.2463 60.4992 29.9992 56.1558 36.6907C53.8466 40.2459 51.476 44.5784 48.8144 49.4672L45.8843 54.8452C39.9982 65.6582 38.5073 68.121 35.5642 72.1856C30.4058 79.3026 26.001 82 20.2022 82C13.3233 82 8.9734 78.9139 6.27939 74.263C4.08019 70.4733 3 65.5007 3 59.8346L13.0451 60.2065Z" fill="#0081FB"/>
<path d="M10.9204 30.4984C15.5258 23.1435 22.1719 18 29.7947 18C34.2092 18 38.5979 19.3537 43.1806 23.2306C48.1935 27.4693 53.5362 34.449 60.2017 45.9523L62.5918 50.0804C68.3614 60.039 71.644 65.1623 73.5651 67.5782C76.0359 70.681 77.7662 71.6059 80.0139 71.6059C85.7156 71.6059 87.1386 66.1776 87.1386 59.9652L96.0001 59.6771C96.0001 66.1709 94.7647 70.9424 92.6625 74.712C90.6315 78.3577 86.6729 82 80.0139 82C75.8742 82 72.2068 81.0685 68.1512 77.1045C65.0335 74.062 61.3887 68.6572 58.5847 63.7985L50.2439 49.3633C46.059 42.119 42.2201 36.7175 39.9983 34.2714C37.6083 31.641 34.5359 28.4645 29.633 28.4645C25.6647 28.4645 22.2948 31.3495 19.4746 35.7625L10.9204 30.4984Z" fill="url(#paint0_linear_4_19)"/>
<path d="M29.6329 28.4645C25.6646 28.4645 22.2947 31.3495 19.4745 35.7625C15.4869 41.9983 13.0451 51.2867 13.0451 60.2065C13.0451 63.8857 13.8246 66.7104 14.8433 68.4193L6.27939 74.263C4.08019 70.4733 3 65.5007 3 59.8346C3 49.5309 5.72959 38.7916 10.9203 30.4984C15.5257 23.1435 22.1718 18 29.7946 18L29.6329 28.4645Z" fill="url(#paint1_linear_4_19)"/>
</g>
<defs>
<linearGradient id="paint0_linear_4_19" x1="22.7281" y1="57.2042" x2="86.7746" y2="60.3262" gradientUnits="userSpaceOnUse">
<stop stop-color="#0064E1"/>
<stop offset="0.4" stop-color="#0064E1"/>
<stop offset="0.83" stop-color="#0073EE"/>
<stop offset="1" stop-color="#0082FB"/>
</linearGradient>
<linearGradient id="paint1_linear_4_19" x1="17.5535" y1="64.5759" x2="17.5535" y2="40.1152" gradientUnits="userSpaceOnUse">
<stop stop-color="#0082FB"/>
<stop offset="1" stop-color="#0064E0"/>
</linearGradient>
<clipPath id="clip0_4_19">
<rect width="93" height="64" fill="white" transform="translate(3 18)"/>
</clipPath>
</defs>
</svg>
