<svg width="100" height="100" viewBox="0 0 100 100" fill="none" xmlns="http://www.w3.org/2000/svg">
<rect width="100" height="100" fill="white"/>
<path d="M99.9999 49.4203V46.5208H97.7935V42.0132L97.7192 42.0505L95.6468 43.0853L95.6059 43.1055V46.5209H92.3349V44.6183C92.3349 43.7323 92.4563 43.0543 92.6956 42.6022C92.9332 42.1555 93.273 41.9283 93.7064 41.9283C94.018 41.9283 94.3406 42.0481 94.6653 42.2843L94.7467 42.3437V39.2901L94.7084 39.2671C94.4055 39.0895 93.9936 39 93.4829 39C92.8393 39 92.2546 39.2285 91.7446 39.6815C91.2344 40.1351 90.833 40.7826 90.5518 41.6059C90.2716 42.4282 90.1294 43.3779 90.1294 44.429V46.5208H88.5931V49.4203H90.1294V61.6353H92.3349V49.4203H95.6059V57.1827C95.6059 60.3796 96.53 61.9997 98.3524 61.9997C98.6519 61.9997 98.9671 61.9424 99.2889 61.8303C99.6165 61.7152 99.8396 61.6002 99.971 61.4774L100 61.4493V58.523L99.9103 58.6198C99.7906 58.75 99.6415 58.8563 99.4668 58.9354C99.2913 59.016 99.1446 59.0563 99.0311 59.0563C98.6042 59.0563 98.2883 58.8686 98.0924 58.4981C97.8942 58.1243 97.7936 57.4706 97.7936 56.5561V49.4203H99.9999ZM83.6677 59.0568C82.8672 59.0568 82.236 58.6236 81.7913 57.7704C81.3438 56.9128 81.117 55.6902 81.117 54.1368C81.117 52.5341 81.3438 51.2797 81.7915 50.407C82.2365 49.54 82.8616 49.1 83.6497 49.1C84.4145 49.1 85.0233 49.5203 85.4594 50.3498C85.8976 51.1836 86.12 52.4279 86.12 54.0492C86.12 55.6905 85.9109 56.9513 85.4985 57.7946C85.0889 58.6316 84.473 59.0568 83.6677 59.0568ZM83.7658 46.1567C82.2385 46.1567 81.0254 46.887 80.1605 48.3273C79.2962 49.7678 78.8579 51.7612 78.8579 54.2527C78.8579 56.6192 79.2857 58.5227 80.1295 59.9094C80.9733 61.2967 82.1217 61.9994 83.5424 61.9994C85.0229 61.9994 86.2118 61.2589 87.0764 59.7986C87.9408 58.3399 88.3787 56.3653 88.3787 53.932C88.3787 51.5285 87.9678 49.6109 87.1569 48.2334C86.3456 46.8552 85.2045 46.1567 83.7658 46.1567ZM75.3019 46.1567C74.263 46.1567 73.4037 46.5903 72.7472 47.4453C72.0867 48.3055 71.7517 49.4335 71.7517 50.7986C71.7517 51.5081 71.824 52.1384 71.9663 52.673C72.1095 53.2094 72.3311 53.6816 72.6254 54.0779C72.9176 54.4711 73.3685 54.8829 73.966 55.3018C74.4684 55.6392 74.843 55.9245 75.081 56.1494C75.3136 56.3698 75.4786 56.5913 75.5719 56.8071C75.6625 57.0183 75.7084 57.3072 75.7084 57.6639C75.7084 58.6793 75.2424 59.1734 74.2836 59.1734C73.9279 59.1734 73.5222 59.0522 73.0778 58.8133C72.6366 58.578 72.2202 58.2334 71.8431 57.7916L71.7515 57.6844V61.1496L71.7851 61.1751C72.0972 61.4102 72.4907 61.6085 72.9544 61.7644C73.4173 61.9206 73.8378 62 74.2031 62C75.3305 62 76.2383 61.5643 76.9007 60.7042C77.5674 59.8381 77.9052 58.6835 77.9052 57.2712C77.9052 56.2524 77.7234 55.3787 77.3649 54.6741C77.0088 53.9752 76.3909 53.3336 75.529 52.7665C74.8423 52.3167 74.4024 51.9434 74.2209 51.6568C74.046 51.3799 73.9571 50.9883 73.9571 50.4925C73.9571 50.053 74.0668 49.7008 74.2919 49.4156C74.5187 49.129 74.8345 48.9833 75.2305 48.9833C75.598 48.9833 75.9739 49.078 76.3479 49.2637C76.7215 49.4493 77.0497 49.6979 77.3236 50.0021L77.4137 50.1026V46.8155L77.3791 46.7913C77.1264 46.6144 76.7931 46.4631 76.3883 46.3402C75.9854 46.2182 75.6199 46.1567 75.3019 46.1567ZM66.002 59.0568C65.2017 59.0568 64.5703 58.6236 64.1256 57.7704C63.678 56.9128 63.4517 55.6905 63.4517 54.1368C63.4517 52.5341 63.6783 51.2797 64.1261 50.407C64.5708 49.54 65.1958 49.1 65.9843 49.1C66.7488 49.1 67.3575 49.5203 67.7937 50.3498C68.2321 51.1836 68.4544 52.4279 68.4544 54.0492C68.4544 55.6905 68.2452 56.9513 67.8327 57.7946C67.4231 58.6316 66.8075 59.0568 66.002 59.0568ZM66.1003 46.1567C64.5727 46.1567 63.3595 46.887 62.4951 48.3273C61.6307 49.7678 61.1922 51.7612 61.1922 54.2527C61.1922 56.6202 61.6203 58.5227 62.4641 59.9094C63.3079 61.2967 64.4562 61.9994 65.8769 61.9994C67.3572 61.9994 68.5464 61.2589 69.4109 59.7986C70.2752 58.3399 70.7133 56.3653 70.7133 53.932C70.7133 51.5285 70.3022 49.6109 69.4911 48.2334C68.6797 46.8552 67.5387 46.1567 66.1003 46.1567ZM57.8443 49.1383V46.5208H55.6656V61.6349H57.8443V53.9035C57.8443 52.5888 58.0269 51.5088 58.3874 50.693C58.7432 49.8869 59.2174 49.4785 59.7964 49.4785C59.9926 49.4785 60.2129 49.5313 60.4515 49.6357C60.6876 49.7396 60.8586 49.8523 60.9595 49.971L61.0511 50.0793V46.495L61.0158 46.4702C60.8129 46.3296 60.5259 46.2586 60.1627 46.2586C59.6152 46.2586 59.1253 46.5457 58.7056 47.1109C58.3372 47.6077 58.071 48.2889 57.8674 49.1383H57.8443ZM51.764 46.1567C50.7645 46.1567 49.873 46.5064 49.1147 47.1959C48.3548 47.887 47.7672 48.8735 47.3674 50.1281C46.9693 51.3796 46.7672 52.8414 46.7672 54.4717C46.7672 55.8998 46.9631 57.2103 47.3504 58.3653C47.738 59.5222 48.2864 60.4273 48.9807 61.055C49.674 61.682 50.4753 61.9998 51.3626 61.9998C52.3979 61.9998 53.2819 61.662 53.9907 60.9959L54.0193 60.9691V57.7119L53.9277 57.8209C53.6067 58.2026 53.2479 58.5072 52.8619 58.7267C52.4768 58.946 52.1257 59.0568 51.8179 59.0568C50.963 59.0568 50.2767 58.6203 49.7786 57.7597C49.2794 56.898 49.0263 55.688 49.0263 54.1653C49.0263 52.6331 49.2902 51.392 49.8105 50.4762C50.3291 49.5632 51.0167 49.1 51.8539 49.1C52.5699 49.1 53.2678 49.4957 53.9279 50.2772L54.0193 50.3855V46.9535L53.9898 46.9264C53.7414 46.6994 53.4025 46.512 52.9819 46.3699C52.563 46.2281 52.1533 46.1567 51.764 46.1567ZM45.2667 46.5209H43.088V61.6349H45.2667V46.5209ZM44.1996 40.0823C43.8411 40.0823 43.5283 40.2815 43.2714 40.6762C43.0134 41.0721 42.8825 41.5705 42.8825 42.1586C42.8825 42.7376 43.0118 43.2269 43.2674 43.6122C43.5213 43.9964 43.835 44.1912 44.1997 44.1912C44.5644 44.1912 44.8793 43.9964 45.1362 43.6129C45.3948 43.2269 45.526 42.7377 45.526 42.1586C45.526 41.591 45.3983 41.0977 45.1469 40.6922C44.8956 40.2874 44.5768 40.0823 44.1996 40.0823ZM38.7638 45.4058V61.6349H40.9872V40.545H37.9099L33.9984 56.21L30.2026 40.545H27V61.6348H29.0894V45.4042H29.1612L33.1695 61.6349H34.7463L38.692 45.4058H38.7638Z" fill="black"/>
<path d="M11 49H0V31H11V49Z" fill="#F1511B"/>
<path d="M23 49H13V31H23V49Z" fill="#80CC28"/>
<path d="M11 69H0V51H11V69Z" fill="#00ADEF"/>
<path d="M23 69H13V51H23V69Z" fill="#FBBC09"/>
</svg>
