<svg width="100" height="100" viewBox="0 0 100 100" fill="none" xmlns="http://www.w3.org/2000/svg">
<rect width="100" height="100" fill="white"/>
<path fill-rule="evenodd" clip-rule="evenodd" d="M98.7729 59.6637V59.184H98.9413C99.0331 59.184 99.1583 59.1968 99.1583 59.4019C99.1583 59.6241 99.0939 59.6637 98.9852 59.6637H98.7729ZM98.7729 60.0002H98.8852L99.1466 60.8378H99.4331L99.1442 59.966C99.2934 59.9457 99.4162 59.8164 99.4162 59.4489C99.4162 58.9928 99.2436 58.8453 98.9524 58.8453H98.5308V60.8378H98.7729V60.0002ZM99.9998 59.8442C99.9998 58.6744 99.5021 57.996 98.9472 57.996C98.3887 57.996 97.8916 58.6744 97.8916 59.8442C97.8916 61.0141 98.3887 61.6957 98.9472 61.6957C99.5015 61.6957 99.9998 61.0141 99.9998 59.8442ZM99.6957 59.8442C99.6957 60.6968 99.3524 61.2694 98.9472 61.2694V61.263C98.5302 61.2694 98.1934 60.6968 98.1934 59.8442C98.1934 58.9928 98.5308 58.4223 98.9472 58.4223C99.353 58.4223 99.6957 58.9928 99.6957 59.8442Z" fill="black"/>
<path fill-rule="evenodd" clip-rule="evenodd" d="M61.359 40.0468L61.3602 61.0504H64.607V40.0468H61.359ZM35.8169 40.019V61.0504H39.0935V44.7251L41.6491 44.74C42.4894 44.74 43.0701 45.1086 43.4754 45.8981C43.9894 46.8981 44.1988 48.5091 44.1988 51.4588V61.0504H47.3725V49.43C47.3725 41.1365 44.4789 40.018 41.6479 40.018H35.8175L35.8169 40.019ZM66.5871 40.0479V61.0504H71.8537C74.6596 61.0504 75.5754 60.1978 76.5654 58.2866C77.266 56.9447 77.7181 53.9983 77.7181 50.7793C77.7181 47.8275 77.335 45.1941 76.6672 43.5542C75.4643 40.6216 73.7315 40.0479 71.1438 40.0479H66.5871ZM69.8081 44.6204H71.204C73.2292 44.6204 74.5391 46.2827 74.5391 50.5935C74.5391 54.9063 73.2292 56.5676 71.204 56.5676H69.8081V44.6204ZM56.6777 40.0479L53.9678 56.6926L51.3713 40.0489L47.8666 40.0479L51.5742 61.0504H56.2543L59.9918 40.0479H56.6777ZM79.2292 61.0504H82.4765V40.0489L79.228 40.0479L79.2292 61.0504ZM88.3309 40.0553L83.797 61.0429H86.9988L87.7163 57.3336H93.0818L93.7608 61.0429H97.2368L92.6684 40.0543L88.3309 40.0553ZM90.4385 43.8853L92.4058 53.7184H88.4099L90.4385 43.8853Z" fill="black"/>
<path fill-rule="evenodd" clip-rule="evenodd" d="M14.8766 43.5488V40.659C15.0298 40.6376 15.1854 40.6237 15.3433 40.6141C19.6708 40.3662 22.5099 47.4077 22.5099 47.4077C22.5099 47.4077 19.4433 55.1873 16.1556 55.1873C15.7211 55.1905 15.2889 55.0645 14.8766 54.8134V46.0487C16.5608 46.4205 16.9 47.7795 17.9129 50.8648L20.1655 47.3949C20.1655 47.3949 18.5211 43.4548 15.7491 43.4548C15.448 43.4548 15.1596 43.4933 14.8766 43.5488ZM14.8766 34V38.3193C15.0316 38.2969 15.1871 38.2787 15.3433 38.268C21.3608 37.8984 25.2819 47.2848 25.2819 47.2848C25.2819 47.2848 20.7789 57.2888 16.0871 57.2888C15.6573 57.2888 15.2544 57.2161 14.8766 57.0932V59.762C15.2 59.8367 15.5351 59.8816 15.8848 59.8816C20.2503 59.8816 23.4076 55.8091 26.4649 50.9877C26.9719 51.7291 29.0474 53.5335 29.4737 54.3241C26.5667 58.7684 19.7924 62.3527 15.9515 62.3527C15.5924 62.3505 15.2339 62.3164 14.8766 62.2501V66H31.4702V34H14.8766ZM14.8766 54.8134V57.0932C10.8386 55.7792 9.71754 48.1096 9.71754 48.1096C9.71754 48.1096 11.6567 44.1845 14.8766 43.5488V46.0487L14.8702 46.0477C13.1801 45.677 11.8602 48.5615 11.8602 48.5615C11.8602 48.5615 12.6 53.416 14.8766 54.8134ZM7.70468 47.7773C7.70468 47.7773 10.0977 41.3245 14.8766 40.659V38.3172C9.58363 39.0938 5 47.2827 5 47.2827C5 47.2827 7.59591 60.9927 14.8766 62.248V59.762C9.53392 58.5344 7.70468 47.7773 7.70468 47.7773Z" fill="#76B900"/>
</svg>
