<svg width="100" height="100" viewBox="0 0 100 100" fill="none" xmlns="http://www.w3.org/2000/svg">
<rect width="100" height="100" fill="white"/>
<g opacity="0.7" clip-path="url(#clip0_4_9)">
<path d="M49.5 87C70.2107 87 87 70.2107 87 49.5C87 28.7893 70.2107 12 49.5 12C28.7893 12 12 28.7893 12 49.5C12 70.2107 28.7893 87 49.5 87Z" fill="url(#paint0_radial_4_9)"/>
<path d="M21.9583 49.4896C21.9583 32.3125 32.8021 17.6667 48.0208 12.0312C28 12.8125 12 29.2812 12 49.5C12 69.7396 28.0312 86.2292 48.0833 86.9688C32.8437 81.3438 21.9583 66.6875 21.9583 49.4896Z" fill="url(#paint1_radial_4_9)"/>
<mask id="mask0_4_9" style="mask-type:luminance" maskUnits="userSpaceOnUse" x="12" y="12" width="37" height="75">
<path d="M21.9583 49.4896C21.9583 32.3125 32.8021 17.6667 48.0208 12.0312C28 12.8125 12 29.2812 12 49.5C12 69.7396 28.0312 86.2292 48.0833 86.9688C32.8437 81.3438 21.9583 66.6875 21.9583 49.4896Z" fill="url(#paint2_radial_4_9)"/>
</mask>
<g mask="url(#mask0_4_9)">
<path d="M21.9583 49.4896C21.9583 32.3125 32.8021 17.6667 48.0208 12.0312C28 12.8125 12 29.2812 12 49.5C12 69.7396 28.0312 86.2292 48.0833 86.9688C32.8437 81.3438 21.9583 66.6875 21.9583 49.4896Z" fill="url(#paint3_radial_4_9)"/>
</g>
<path d="M48.8645 45.9271C51.3541 39.7917 46.6979 38.125 43.6666 38.125H33.625C34.4583 38.6979 34.3229 39.4583 34.1562 39.9271L28.302 58.625C28.0729 59.3646 27.1979 60.1458 26.7291 60.2604H34.8541C34.4062 60.1771 33.7708 59.5417 34 58.6771L36.125 51.9167C36.1354 51.9167 45.9062 53.2396 48.8645 45.9271ZM40.9687 39.8437C42.0312 39.8437 44.9791 39.9896 43.0729 45.5625C41.0833 51.4167 36.6666 50.2083 36.6666 50.2083L39.9166 39.8437H40.9687Z" fill="white"/>
<path d="M55.3646 60.2708H60.8333C59.0833 59.7083 56.5 58.0521 55.4688 56.875C56.3021 55.9687 57.3333 54.8229 57.5208 52.5H54.6875C54.6875 52.5 55.2292 52.8125 55.2292 53.4792C55.2292 54.0938 54.9792 54.9479 54.5 55.5417C53.6667 54.3125 52.7813 52.9062 52.4688 50.8437C53.5833 50.2917 55.1458 49.6875 56.3854 48.6042C57.5625 47.5729 57.8333 46.5937 57.8542 45.9583V45.875C57.8542 45.2083 57.5938 44.5833 57.1146 44.1146C56.2917 43.3021 55 42.9687 53.6354 43.2187C52.5417 43.4271 51.6146 44.0104 51.1458 44.4375C49.5 45.9896 49.2917 48.5417 49.2917 49.6979C49.2917 49.9792 49.3021 50.1875 49.3125 50.3125C49.2188 50.3542 49.0521 50.4167 49.0521 50.4167C47.8438 50.8646 44.625 51.7188 43.4792 54.3646C43.3333 54.6979 43.125 55.4271 43.125 56.2708C43.125 57 43.2812 57.8125 43.75 58.5521C44.5625 59.8229 45.9375 60.625 48.1458 60.5833C50.5417 60.5417 52.9063 58.9062 53.3229 58.6042C53.7292 58.9896 54.8021 60 55.3646 60.2708ZM55.3646 45.4792C55.0833 47.2604 52.7708 49.0625 52.2083 49.3021C52.1042 48.3021 52.1563 46.7187 52.9896 45.4271C53.5417 44.5729 54.2813 44.1979 54.875 44.4062C55.3542 44.5729 55.4063 45.0104 55.3646 45.4792ZM52.1563 57.3958C51.8333 57.5937 50.5625 58.2396 49.375 58.3542C48.2708 58.4583 46.4375 58.0312 46.4479 55.8229C46.4479 53.9375 48.5 52.5521 49.6146 52.0729C50.0625 53.8958 51.0729 55.9583 52.1563 57.3958Z" fill="white"/>
<path d="M71.9791 39.8646C75.2291 39.0833 77.9062 41.625 78.1458 41.8021L79.0729 38.8542C77.7916 38.4687 68.4687 35.3125 61.875 42.8333C57.8229 47.4583 56.8333 56.9375 61.9687 59.4792C67.4687 62.1979 73.5416 59.0625 73.9895 58.8438L76.5 50.8437C76.7708 49.875 77.3854 49.25 78.4687 48.8438H69.7395C71.0104 49.375 70.9166 50.3333 70.8229 50.7292L68.3125 58.7292C67.9791 58.7917 60.9583 60.5417 64.8854 48.2604C65.75 45.625 68.1145 40.7917 71.9791 39.8646Z" fill="white"/>
</g>
<defs>
<radialGradient id="paint0_radial_4_9" cx="0" cy="0" r="1" gradientUnits="userSpaceOnUse" gradientTransform="translate(27.9059 26.5948) scale(70.0326)">
<stop stop-color="#00A1DF"/>
<stop offset="0.13" stop-color="#0092D7"/>
<stop offset="0.37" stop-color="#006CC1"/>
<stop offset="0.62" stop-color="#003DA6"/>
<stop offset="0.73" stop-color="#043799"/>
<stop offset="0.93" stop-color="#102777"/>
<stop offset="1" stop-color="#152169"/>
</radialGradient>
<radialGradient id="paint1_radial_4_9" cx="0" cy="0" r="1" gradientUnits="userSpaceOnUse" gradientTransform="translate(22.8076 17.7823) scale(116.119 116.119)">
<stop offset="0.02" stop-color="white"/>
<stop offset="0.03" stop-color="#FBFEFF"/>
<stop offset="0.09" stop-color="#BAE7F9"/>
<stop offset="0.14" stop-color="#87D5F4"/>
<stop offset="0.19" stop-color="#63C9F1"/>
<stop offset="0.23" stop-color="#4CC1EF"/>
<stop offset="0.26" stop-color="#44BEEE"/>
<stop offset="0.28" stop-color="#37B8EB"/>
<stop offset="0.35" stop-color="#19ACE5"/>
<stop offset="0.41" stop-color="#07A4E0"/>
<stop offset="0.45" stop-color="#00A1DF"/>
<stop offset="0.79" stop-color="#0045AB"/>
<stop offset="0.82" stop-color="#003DA6"/>
<stop offset="0.96" stop-color="#0059B6"/>
</radialGradient>
<radialGradient id="paint2_radial_4_9" cx="0" cy="0" r="1" gradientTransform="matrix(1.24581 -40.3696 41.0807 1.26806 43.4571 48.3572)" gradientUnits="userSpaceOnUse">
<stop offset="0.1" stop-color="white"/>
<stop offset="0.35" stop-color="#FDFDFD"/>
<stop offset="0.45" stop-color="#F6F6F6"/>
<stop offset="0.51" stop-color="#EAEAEA"/>
<stop offset="0.57" stop-color="#D9D9D9"/>
<stop offset="0.62" stop-color="#C3C3C3"/>
<stop offset="0.66" stop-color="#A7A7A7"/>
<stop offset="0.7" stop-color="#868686"/>
<stop offset="0.73" stop-color="#606060"/>
<stop offset="0.77" stop-color="#353535"/>
<stop offset="0.8"/>
</radialGradient>
<radialGradient id="paint3_radial_4_9" cx="0" cy="0" r="1" gradientUnits="userSpaceOnUse" gradientTransform="translate(41.1728 42.1831) scale(47.1802 47.1802)">
<stop offset="0.32" stop-color="#44BEEE" stop-opacity="0"/>
<stop offset="0.48" stop-color="#2B99D9" stop-opacity="0.27"/>
<stop offset="0.67" stop-color="#1476C6" stop-opacity="0.58"/>
<stop offset="0.82" stop-color="#0561BA" stop-opacity="0.84"/>
<stop offset="0.92" stop-color="#0059B6"/>
</radialGradient>
<clipPath id="clip0_4_9">
<rect width="75" height="75" fill="white" transform="translate(12 12)"/>
</clipPath>
</defs>
</svg>
