<svg width="100" height="100" viewBox="0 0 100 100" fill="none" xmlns="http://www.w3.org/2000/svg">
<rect width="100" height="100" fill="white"/>
<g clip-path="url(#clip0_4_16)">
<path d="M22.4168 43.7287C22.4168 42.5552 21.4659 42.1316 19.7074 42.1316H18.6079L14.9457 50.1171L16.1903 50.1642C20.5866 50.2113 22.4168 46.0778 22.4168 43.7287ZM73.5539 47.722C73.5539 47.0641 72.8215 46.6416 71.8688 46.6416C69.5981 46.6416 68.7922 49.0367 68.3518 50.1171H72.7481C73.04 49.3191 73.5539 48.52 73.5539 47.722ZM28.7919 44.762C28.7919 49.9299 23.0042 51.3388 16.1169 51.3388H14.4318L12.0877 55.9889H5.93457L12.1611 42.1786V42.1316H9.44991L9.96379 40.9581L10.0372 40.911H21.3191C25.4217 40.911 28.7919 41.8032 28.7919 44.762ZM63.1513 45.8895L53.6263 54.8143L59.2672 54.8614L58.6816 55.9889H45.0556L54.579 47.1112H49.0115L49.5971 45.8895H63.1513ZM79.1214 49.272C79.1214 49.9759 78.9012 50.6809 78.6075 51.3388H67.7662C67.3257 52.1838 66.8135 53.2172 66.8135 54.1104C66.8135 54.8614 67.4725 55.2368 68.572 55.2368C70.5491 55.2368 71.2832 53.3584 71.7954 52.4192H78.0953C76.9241 54.9555 72.6747 56.5056 68.7188 56.5056C64.5428 56.5056 61.3194 55.1438 61.3194 52.278C61.3194 48.52 66.0076 45.4199 71.9422 45.4199C75.6778 45.4199 79.1214 46.5474 79.1214 49.272ZM100 49.9759C100 36.0256 67.0337 31 49.8907 31C33.1131 31 0 35.9785 0 49.8358C0 57.586 11.0616 62.8469 21.1722 65.5245H21.2456L30.8424 44.3395C32.8946 39.8306 35.8977 35.1334 44.4683 35.1334C47.4732 35.1334 51.429 35.9785 51.429 38.3276C51.429 39.6423 49.8907 40.864 47.7651 40.864C46.0083 40.864 44.5417 39.9718 44.5417 38.8443C44.5417 37.4815 46.1534 36.8247 48.0588 36.7776C47.4732 36.0256 46.08 35.7442 44.8354 35.7442C38.9743 35.7442 37.6562 43.3532 36.4833 45.8895H47.1061L42.5647 55.9889H36.4099L40.4391 47.1583H35.8977L29.7446 60.5448C28.7919 62.6586 27.5456 64.6783 26.96 66.8391C34.286 68.295 42.0508 69 49.7439 69C66.8135 69 100 64.2087 100 49.9759ZM97.1437 47.6279C97.1437 48.8024 95.6788 49.7887 93.8469 49.7887C92.3086 49.7887 90.9154 48.8955 90.9154 47.9092C90.9154 47.722 90.9889 47.4867 91.0623 47.2984H90.9154C87.7655 48.8024 86.3006 54.1564 85.4214 55.9889H79.2682L83.2975 47.1583L80.8799 47.1112L81.539 45.8895H89.8911L89.0852 47.6749C90.183 46.5945 91.9415 45.7024 94.0671 45.7024C95.7522 45.7024 97.1437 46.5474 97.1437 47.6279Z" fill="#007CC2"/>
</g>
<defs>
<clipPath id="clip0_4_16">
<rect width="100" height="38" fill="white" transform="translate(0 31)"/>
</clipPath>
</defs>
</svg>
