<svg width="100" height="100" viewBox="0 0 100 100" fill="none" xmlns="http://www.w3.org/2000/svg">
<rect width="100" height="100" fill="white"/>
<path d="M49.5041 95L59.9965 23.8849C69.9976 23.8849 73.1522 25.2065 73.6076 30.6011C73.6076 30.6011 80.3167 27.5864 83.7004 21.4636C70.4959 14.0897 57.2284 13.7572 57.2284 13.7572L49.4866 25.121L49.5041 25.1196L41.7623 13.7554C41.7623 13.7554 28.4945 14.0883 15.2917 21.4622C18.6726 27.585 25.3843 30.5997 25.3843 30.5997C25.8424 25.2047 28.9931 23.8831 38.9271 23.8745L49.5041 95Z" fill="#E82127"/>
<path d="M49.5 10.4748C60.174 10.3764 72.3915 12.4648 84.8986 19.0342C86.5703 15.4082 87 13.8057 87 13.8057C73.3279 7.28687 60.5242 5.05596 49.4985 5C38.4735 5.05596 25.6703 7.28723 12 13.8057C12 13.8057 12.6099 15.7796 14.0999 19.0342C26.6046 12.4648 38.8242 10.3764 49.4985 10.4748H49.5Z" fill="#E82127"/>
</svg>
