<svg width="100" height="100" viewBox="0 0 100 100" fill="none" xmlns="http://www.w3.org/2000/svg">
<rect width="100" height="100" fill="white"/>
<path d="M6.77299 67.2571C7.71796 67.669 8.71282 67.8908 9.78134 67.8908C14.3066 67.8908 17.4641 63.707 17.4641 55.7526V32.0463L19.18 31V56.1645C19.18 64.2778 15.8978 69 11.2484 69C9.63286 69 8.1159 68.3663 6.77299 67.2571ZM4.80939 64.8479C5.85355 65.2916 6.89771 65.577 7.81775 65.577C11.6214 65.577 14.1576 62.5349 14.1576 55.6572V33.8528L15.8479 32.8383V55.8473C15.8479 63.0414 12.9887 66.718 9.01099 66.718C7.54394 66.718 6.05194 66.0207 4.80939 64.8479ZM3.61554 62.6932C4.53558 63.0414 5.38077 63.2633 6.12676 63.2633C9.08582 63.2633 10.9003 61.2031 10.9003 55.7836V35.6911L12.5664 34.6766V55.4672C12.5664 61.5522 10.3783 64.3096 7.24577 64.3096C5.92779 64.3096 4.68466 63.7387 3.61554 62.6932ZM9.33411 56.3545V36.5149L2 40.7298V56.83C2 59.9039 3.51636 61.9641 5.75377 61.9641C7.96683 61.9641 9.33411 59.8721 9.33411 56.3545Z" fill="#293682"/>
<path d="M28.623 36.4809V43.878C28.623 46.6097 29.8899 48.7432 32.3144 48.7432C34.3944 48.7432 35.9589 46.7891 35.9589 43.8182V36.6808C35.9589 35.9032 36.3658 35.2649 37.0536 35.2051L37.2727 35.1847V34.4874H33.6282V35.1847L33.8629 35.2051C34.5352 35.2649 34.9575 35.8828 34.9575 36.6808V43.5993C34.9575 45.8525 34.0351 47.2275 32.596 47.2275C31.1414 47.2275 30.2808 45.7723 30.2808 43.5789V36.4809C30.2808 35.7033 30.6092 35.2649 31.2976 35.2051L31.5168 35.1847V34.4874H27.3716V35.1847L27.6062 35.2051C28.2785 35.2649 28.623 35.6836 28.623 36.4809Z" fill="#293682"/>
<path d="M33.5434 52.2594L33.778 52.2791C34.3565 52.3192 34.7948 52.6183 34.7948 53.4556V57.8023H30.6966V53.4556C30.6966 52.6183 31.1349 52.3396 31.7134 52.2791L31.9326 52.2594V51.5613H27.7874V52.2594L28.022 52.2791C28.6005 52.3192 29.0389 52.6183 29.0389 53.4556V63.6246C29.0389 64.4619 28.6005 64.761 28.022 64.8004L27.7874 64.8208V65.5181H31.9326V64.8208L31.7134 64.8004C31.1349 64.7406 30.6966 64.4619 30.6966 63.6246V58.8789H34.7948V63.6246C34.7948 64.4619 34.3565 64.761 33.778 64.8004L33.5434 64.8208V65.5181H37.6885V64.8208L37.4694 64.8004C36.8909 64.7406 36.4525 64.4619 36.4525 63.6246V53.4556C36.4525 52.6183 36.8909 52.3396 37.4694 52.2791L37.6885 52.2594V51.5613H33.5434" fill="#293682"/>
<path d="M37.2568 38.5745V39.2325L37.5698 39.2522C38.0545 39.2923 38.3521 39.5914 38.3521 40.4287V46.5698C38.3521 47.4071 38.023 47.7062 37.4914 47.7463L37.2568 47.766V48.4436H40.9637V47.766L40.7451 47.7463C40.2129 47.7062 39.8845 47.4071 39.8845 46.5698V43.2998C39.9159 40.9073 40.7291 39.4717 41.6835 39.4717C42.4182 39.4717 42.9035 40.11 42.9035 41.3456V46.5698C42.9035 47.4071 42.575 47.7062 42.0429 47.7463L41.8083 47.766V48.4436H45.5151V47.766L45.2965 47.7463C44.7649 47.7062 44.4359 47.4071 44.4359 46.5698V41.1268C44.4359 39.5717 43.6852 38.2755 42.1991 38.2755C41.1514 38.2755 40.2444 39.0727 39.8845 40.4886V38.3156" fill="#293682"/>
<path d="M58.6541 48.6434C60.2334 48.6434 61.1255 47.2677 61.4849 45.7125L60.8125 45.4733C60.4995 46.5499 59.9525 47.3873 58.8572 47.3873C57.5903 47.3873 56.7297 45.8526 56.7297 43.4192H61.5947V42.8415C61.5947 40.2696 60.4056 38.1958 58.4973 38.1958C56.4487 38.1958 55.0874 40.6875 55.0874 43.4192C55.0874 46.1509 56.4018 48.6434 58.6541 48.6434ZM58.4818 39.3323C59.3419 39.3323 59.8895 40.3491 59.9525 42.4425H56.7612C56.918 40.5088 57.5434 39.3323 58.4818 39.3323Z" fill="#293682"/>
<path d="M50.9584 46.2109C50.9584 47.7661 51.6937 48.6436 52.8667 48.6436C53.9614 48.6436 54.6812 47.6268 55.0097 46.1708L54.4466 45.9717C54.2275 46.8091 53.8675 47.3277 53.3668 47.3277C52.7099 47.3277 52.4913 46.7091 52.4913 45.9914V39.5316H54.6343V38.4944H52.4913V35.4242H51.7091C51.4115 37.7372 50.4891 38.5746 49.5192 38.8335V39.5316H50.9584" fill="#293682"/>
<path d="M47.6739 36.7002C48.2055 36.7002 48.6747 36.1225 48.6747 35.3646C48.6747 34.6469 48.2055 34.0684 47.6739 34.0684C47.1269 34.0684 46.6731 34.6469 46.6731 35.3646C46.6731 36.1225 47.1269 36.7002 47.6739 36.7002Z" fill="#293682"/>
<path d="M46.9545 40.4287V46.5697C46.9545 47.4071 46.6261 47.7062 46.0939 47.7463L45.8593 47.766V48.4436H49.5667V47.766L49.3476 47.7463C48.816 47.7062 48.4875 47.4071 48.4875 46.5697V38.3156L45.7815 38.5745V39.2325L46.1723 39.2522C46.657 39.2726 46.9545 39.5913 46.9545 40.4287Z" fill="#293682"/>
<path d="M65.5825 48.6433C66.6148 48.6433 67.4124 47.9657 67.7569 46.8096V48.4435H70.3691V47.7666L70.1499 47.7461C69.6184 47.706 69.2899 47.407 69.2899 46.5696V34.2277L66.6308 34.5268V35.1847L66.9747 35.2052C67.4594 35.2249 67.7569 35.5436 67.7569 36.381V39.9697C67.4124 38.8537 66.6148 38.1958 65.5825 38.1958C63.5334 38.1958 62.3763 40.6875 62.3763 43.4192C62.3763 46.1509 63.5334 48.6433 65.5825 48.6433ZM65.8486 39.3322C67.0062 39.3322 67.7569 40.9275 67.7569 43.4192C67.7569 45.9116 67.0062 47.5069 65.8486 47.5069C64.7539 47.5069 64.034 45.9321 64.034 43.4192C64.034 40.9071 64.7539 39.3322 65.8486 39.3322Z" fill="#293682"/>
<path d="M88.8662 55.3098C87.9592 55.3098 87.177 56.0677 86.8331 57.4229V55.3901L84.2049 55.649V56.3069L84.5179 56.3266C85.0032 56.3668 85.3001 56.6658 85.3001 57.5032V63.6442C85.3001 64.4816 84.9711 64.7807 84.4395 64.8208L84.2049 64.8405V65.5181H87.9123V64.8405L87.6932 64.8208C87.1616 64.7807 86.8331 64.4816 86.8331 63.6442V60.2947C86.864 57.8023 87.7086 56.2471 88.7409 56.2471C88.9755 56.2471 89.1323 56.3266 89.257 56.5061C88.9915 56.6855 88.8193 57.0247 88.8193 57.4434C88.8193 58.0218 89.1947 58.5003 89.6484 58.5003C90.1022 58.5003 90.4776 58.0218 90.4776 57.3434C90.4776 56.0874 89.7423 55.3098 88.8662 55.3098Z" fill="#293682"/>
<path d="M93.9026 55.2702C91.854 55.2702 90.4927 57.7619 90.4927 60.4936C90.4927 63.2253 91.8065 65.7177 94.0593 65.7177C95.6387 65.7177 96.5302 64.3421 96.8901 62.7869L96.2178 62.5477C95.9047 63.6243 95.3571 64.4617 94.2625 64.4617C92.9956 64.4617 92.135 62.9262 92.135 60.4936H97V59.9159C97 57.344 95.8109 55.2702 93.9026 55.2702ZM92.1665 59.5169C92.3232 57.5832 92.9487 56.4067 93.8871 56.4067C94.7472 56.4067 95.2948 57.4235 95.3571 59.5169" fill="#293682"/>
<path d="M82.8758 63.8637V58.6593C82.8758 56.5264 81.8275 55.2696 80.0599 55.2696C78.5429 55.2696 77.1976 56.5461 77.1976 58.0013C77.1976 58.6199 77.5575 59.0984 78.0268 59.0984C78.4805 59.0984 78.8559 58.6199 78.8559 58.0414C78.8559 57.6424 78.6837 57.2835 78.4336 57.1041C78.7152 56.6059 79.2153 56.3069 79.8259 56.3069C80.7797 56.3069 81.3582 57.2238 81.3582 58.7592V59.218L79.0436 60.4339C77.4946 61.2516 76.963 61.9694 76.963 63.2656C76.963 64.7609 77.8076 65.7179 79.1375 65.7179C80.1383 65.7179 80.9674 64.9403 81.3428 63.7638V64.0628C81.3428 65.0796 81.9059 65.6982 82.8443 65.6982C83.2197 65.6982 83.5167 65.6376 83.8297 65.518V64.8404C83.1728 64.9403 82.8758 64.6216 82.8758 63.8637ZM81.3428 61.6105C81.2644 63.3648 80.5766 64.5413 79.6221 64.5413C78.9337 64.5413 78.496 63.9432 78.496 63.0256C78.496 62.2086 78.8399 61.5704 79.4974 61.2115L81.3582 60.1553" fill="#293682"/>
<path d="M60.9154 63.0459C60.6962 63.8832 60.3363 64.4019 59.8362 64.4019C59.1793 64.4019 58.9601 63.7841 58.9601 63.0663V56.6058H61.1031V55.5693H58.9601V52.4984H58.1779C57.8809 54.8114 56.9579 55.6488 55.988 55.9085V56.6058H57.4271V63.2851C57.4271 64.841 58.1624 65.7178 59.3355 65.7178C60.4307 65.7178 61.15 64.7009 61.4785 63.2457" fill="#293682"/>
<path d="M50.999 63.8637V58.6593C50.999 56.5264 49.9507 55.2696 48.1831 55.2696C46.6662 55.2696 45.3209 56.5461 45.3209 58.0013C45.3209 58.6199 45.6808 59.0984 46.15 59.0984C46.6038 59.0984 46.9792 58.6199 46.9792 58.0414C46.9792 57.6424 46.8069 57.2835 46.5569 57.1041C46.8384 56.6059 47.3385 56.3069 47.9491 56.3069C48.903 56.3069 49.4815 57.2238 49.4815 58.7592V59.218L47.1669 60.4339C45.6178 61.2516 45.0862 61.9694 45.0862 63.2656C45.0862 64.7609 45.9308 65.7179 47.2607 65.7179C48.2615 65.7179 49.0907 64.9403 49.466 63.7638V64.0628C49.466 65.0796 50.0291 65.6982 50.9675 65.6982C51.3429 65.6982 51.6399 65.6376 51.9529 65.518V64.8404C51.296 64.9403 50.999 64.6216 50.999 63.8637ZM49.466 61.6105C49.3876 63.3648 48.6998 64.5413 47.7454 64.5413C47.0576 64.5413 46.6192 63.9432 46.6192 63.0256C46.6192 62.2086 46.9631 61.5704 47.6206 61.2115L49.4815 60.1553" fill="#293682"/>
<path d="M73.8506 64.4617C72.5837 64.4617 71.7231 62.9262 71.7231 60.4936C71.7231 58.0216 72.5677 56.4468 73.8352 56.4468C74.3983 56.4468 74.836 56.6853 75.1015 57.1244C74.8675 57.3235 74.7107 57.6627 74.7107 58.0413C74.7107 58.6197 75.086 59.0982 75.5398 59.0982C76.009 59.0982 76.369 58.6197 76.369 57.9413C76.369 56.7451 75.4305 55.2702 73.7568 55.2702C71.4261 55.2702 70.0808 57.7627 70.0808 60.4936C70.0808 63.2253 71.3946 65.7178 73.6475 65.7178C75.1959 65.7178 76.0714 64.4019 76.4159 62.9066L75.7429 62.6476C75.446 63.6644 74.9138 64.4617 73.8506 64.4617Z" fill="#293682"/>
<path d="M54.9561 63.6441V51.3023L52.297 51.6014V52.2593L52.6409 52.279C53.1261 52.2994 53.4231 52.6182 53.4231 53.4555V63.6441C53.4231 64.4815 53.0947 64.7806 52.5631 64.8207L52.3285 64.8404V65.518H56.0353V64.8404L55.8162 64.8207C55.2846 64.7806 54.9561 64.4815 54.9561 63.6441Z" fill="#293682"/>
<path d="M68.6578 63.6441V58.2012C68.6578 56.6461 67.907 55.3499 66.421 55.3499C65.3733 55.3499 64.4657 56.1471 64.1058 57.5629V51.3023L61.4473 51.6014V52.2593L61.7912 52.279C62.2758 52.2994 62.5734 52.6182 62.5734 53.4555V63.6441C62.5734 64.4815 62.2449 64.7806 61.7128 64.8207L61.4782 64.8404V65.518H65.1856V64.8404L64.9664 64.8207C64.4342 64.7806 64.1058 64.4815 64.1058 63.6441V60.3741C64.1373 57.9816 64.951 56.5461 65.9049 56.5461C66.6396 56.5461 67.1248 57.1844 67.1248 58.4207V63.6441C67.1248 64.4815 66.7964 64.7806 66.2648 64.8207L66.0302 64.8404V65.518H69.737V64.8404L69.5179 64.8207C68.9863 64.7806 68.6578 64.4815 68.6578 63.6441Z" fill="#293682"/>
<path d="M41.3952 55.2702C39.3461 55.2702 37.9854 57.7619 37.9854 60.4936C37.9854 63.2253 39.2992 65.7177 41.5514 65.7177C43.1313 65.7177 44.0229 64.3421 44.3828 62.7869L43.7098 62.5477C43.3974 63.6243 42.8498 64.4617 41.7552 64.4617C40.4883 64.4617 39.6276 62.9262 39.6276 60.4936H44.4921V59.9159C44.4921 57.344 43.3036 55.2702 41.3952 55.2702ZM39.6591 59.5169C39.8159 57.5832 40.4413 56.4067 41.3798 56.4067C42.2398 56.4067 42.7874 57.4235 42.8498 59.5169" fill="#293682"/>
</svg>
