<svg width="100" height="100" viewBox="0 0 100 100" fill="none" xmlns="http://www.w3.org/2000/svg">
<rect width="100" height="100" fill="white"/>
<path d="M65.1341 31C58.034 31 51.6887 35.3167 51.6887 43.2902C51.6887 52.4354 62.9419 53.067 62.9419 57.6619C62.9419 59.5966 61.0521 61.3282 57.8228 61.3282C53.2412 61.3282 49.8168 58.9086 49.8168 58.9086L48.3514 66.9561C48.3514 66.9561 52.2963 69 57.5335 69C65.2963 69 71.4054 64.472 71.4054 56.3611C71.4054 46.6971 60.1051 46.0842 60.1051 41.8204C60.1051 40.3048 61.6567 38.6448 64.8759 38.6448C68.5085 38.6448 71.4715 40.4046 71.4715 40.4046L72.9059 32.633C72.9059 32.633 69.6807 31 65.1331 31H65.1341ZM0.172172 31.587L0 32.7598C0 32.7598 2.98699 33.4008 5.67768 34.6804C9.14214 36.1467 9.38839 37.0013 9.97197 39.6521L16.3293 68.3942H24.8519L37.981 31.587H29.4785L21.042 56.6123L17.5996 35.3988C17.2843 32.9711 15.6847 31.5858 13.7277 31.5858H0.173173L0.172172 31.587ZM41.4004 31.587L34.7307 68.3942H42.8388L49.4845 31.587H41.4004ZM86.6216 31.587C84.6667 31.587 83.6306 32.8149 82.8709 34.9598L70.992 68.3942H79.4945L81.1391 62.8214H91.4975L92.4975 68.3942H100L93.4555 31.587H86.6216ZM87.7277 41.5316L90.2483 55.3433H83.4965L87.7287 41.5316H87.7277Z" fill="#1434CB"/>
</svg>
