<svg width="100" height="100" viewBox="0 0 100 100" fill="none" xmlns="http://www.w3.org/2000/svg">
<rect width="100" height="100" fill="white"/>
<g clip-path="url(#clip0_4_3)">
<mask id="mask0_4_3" style="mask-type:luminance" maskUnits="userSpaceOnUse" x="0" y="30" width="100" height="46">
<path d="M0 75.7519H100V30.8832H0" fill="white"/>
</mask>
<g mask="url(#mask0_4_3)">
<path d="M14.8055 38.9012L12.9968 53.2368L10.9656 38.9012H7.43979L5.40869 53.2368L3.59986 38.9012H0L2.93498 60.7993H7.12565L9.17449 46.2586L11.2245 60.7993H15.3221L18.2394 38.9012H14.8055Z" fill="#0053E2"/>
<path d="M22.6425 42.9316C20.4089 42.9316 18.8391 44.1286 18.2671 44.9754V49.6463C18.932 48.7119 20.3348 47.3398 22.1812 47.3398C23.3262 47.3398 23.7499 47.8369 23.7499 48.8587C23.7499 49.7358 23.1592 50.0858 21.5163 50.6401C19.0238 51.4578 17.5845 52.889 17.5845 56.3048C17.5845 59.458 18.8955 61.2964 20.7972 61.2964C22.3891 61.2964 23.3406 60.1276 23.8616 58.5584V60.7994H27.2956V50.0546C27.2956 45.12 25.6715 42.9294 22.6436 42.9294M22.1623 57.7642C21.3503 57.7642 20.9067 56.9744 20.9067 55.8954C20.9067 54.4933 21.6081 53.939 22.4943 53.4422C22.9567 53.1672 23.418 52.8824 23.7311 52.4495V54.8734C23.7311 56.7118 23.1215 57.7642 22.1623 57.7642Z" fill="#0053E2"/>
<path d="M28.5789 60.7993H32.1422V38.9012H28.5789" fill="#0053E2"/>
<path d="M46.441 42.9888C44.7119 42.9888 43.5957 44.6322 43.0115 46.8206C42.6984 44.4761 41.6563 42.9888 40.2015 42.9888C38.5532 42.9888 37.4779 44.5098 36.9336 46.6456V43.4858H33.4255V60.7993H36.9889V51.193C36.9889 48.8274 37.4878 47.4858 38.5576 47.4858C39.4249 47.4858 39.7203 48.4202 39.7203 49.8795V60.7993H43.2837V51.193C43.2837 48.8274 43.7826 47.4858 44.8524 47.4858C45.7198 47.4858 46.0151 48.4202 46.0151 49.8795V60.7993H49.5785V49.0919C49.5785 45.442 48.4888 42.9888 46.4399 42.9888" fill="#0053E2"/>
<path d="M55.4131 42.9316C53.1795 42.9316 51.6097 44.1286 51.0377 44.9754V49.6463C51.7026 48.7119 53.1054 47.3398 54.9518 47.3398C56.0968 47.3398 56.5205 47.8369 56.5205 48.8587C56.5205 49.7358 55.9298 50.0858 54.2869 50.6401C51.7944 51.4578 50.3551 52.889 50.3551 56.3048C50.3551 59.458 51.6661 61.2964 53.5678 61.2964C55.1598 61.2964 56.1112 60.1276 56.6322 58.5584V60.7994H60.0662V50.0546C60.0662 45.12 58.4421 42.9294 55.4142 42.9294M54.9329 57.7642C54.1209 57.7642 53.6773 56.9744 53.6773 55.8954C53.6773 54.4933 54.3787 53.939 55.2649 53.4422C55.7273 53.1672 56.1886 52.8824 56.5017 52.4495V54.8734C56.5017 56.7118 55.8921 57.7642 54.9329 57.7642Z" fill="#0053E2"/>
<path d="M64.7734 48.3774V43.4858H61.2842V60.7993H64.8476V53.4422C64.8476 50.0545 66.1762 49.1492 67.4507 49.1492C67.8755 49.1492 68.2815 49.2368 68.4662 49.3242V43.3692C66.4616 43.2166 65.2436 45.2412 64.7746 48.3763" fill="#0053E2"/>
<path d="M75.2589 47.8648V43.4858H72.9876V40.1283H69.4243V55.0182C69.4243 59.1931 70.92 61.1493 73.3007 61.1493C74.4081 61.1493 74.9989 60.7993 75.2577 60.537V56.187C75.0542 56.4203 74.7223 56.5964 74.2975 56.5964C73.5032 56.6266 72.9866 56.0715 72.9866 54.2306V47.8648H75.2577" fill="#0053E2"/>
</g>
<mask id="mask1_4_3" style="mask-type:luminance" maskUnits="userSpaceOnUse" x="0" y="30" width="100" height="46">
<path d="M0 75.7519H100V30.8832H0" fill="white"/>
</mask>
<g mask="url(#mask1_4_3)">
<path d="M93.7307 48.3114C94.2318 48.1488 98.6614 44.9383 99.0563 44.5771C99.9591 43.7539 100.269 41.9265 99.7466 40.4986C99.2256 39.0718 98.0706 38.5816 97.1679 39.4073C96.7729 39.7671 92.8003 44.2315 92.4606 44.8351C92.0712 45.5271 92.0037 46.5177 92.2924 47.3075C92.5801 48.0959 93.1565 48.4988 93.7307 48.3114Z" fill="#FFC223"/>
<path d="M99.0563 55.4188C98.6614 55.0586 94.2307 51.8482 93.7307 51.6855C93.1565 51.4982 92.5812 51.9022 92.2924 52.6895C92.0048 53.4793 92.0723 54.4685 92.4606 55.1619C92.8003 55.7652 96.7729 60.2285 97.1679 60.5897C98.0706 61.4143 99.2245 60.9252 99.7466 59.4973C100.268 58.0705 99.9591 56.2455 99.0563 55.4188Z" fill="#FFC223"/>
<path d="M89.3453 55.3806C88.77 55.3806 88.2611 55.9683 88.0764 56.8465C87.9148 57.615 87.4579 65.2874 87.4579 66.0087C87.4579 67.6565 88.3032 68.9937 89.3453 68.9937C90.3874 68.9937 91.2326 67.6565 91.2326 66.0087C91.2326 65.2863 90.7757 57.6128 90.6142 56.8465C90.4295 55.9672 89.9206 55.3806 89.3453 55.3806Z" fill="#FFC223"/>
<path d="M84.9587 51.6856C84.4575 51.8482 80.028 55.0586 79.633 55.4188C78.7303 56.2431 78.4205 58.0705 78.9427 59.4973C79.4637 60.9252 80.6187 61.4154 81.5215 60.5897C81.9164 60.2285 85.8891 55.7652 86.2287 55.1619C86.6181 54.4685 86.6856 53.4793 86.3969 52.6895C86.1092 51.9011 85.5328 51.4982 84.9587 51.6856Z" fill="#FFC223"/>
<path d="M81.5205 39.4048C80.6177 38.5816 79.4639 39.0696 78.9417 40.4975C78.4206 41.9254 78.7293 43.7504 79.6321 44.576C80.027 44.9362 84.4577 48.1477 84.9577 48.3101C85.5319 48.4974 86.1072 48.0926 86.3959 47.305C86.6835 46.5166 86.616 45.5261 86.2278 44.8329C85.8881 44.2293 81.9154 39.766 81.5205 39.4048Z" fill="#FFC223"/>
<path d="M89.3453 31C88.3032 31 87.4579 32.3369 87.4579 33.9847C87.4579 34.7072 87.9148 42.3798 88.0764 43.1458C88.2611 44.0265 88.77 44.6131 89.3453 44.6131C89.9206 44.6131 90.4295 44.0254 90.6142 43.1458C90.7757 42.3787 91.2326 34.7061 91.2326 33.9847C91.2326 32.3369 90.3874 31 89.3453 31Z" fill="#FFC223"/>
</g>
</g>
<defs>
<clipPath id="clip0_4_3">
<rect width="100" height="38" fill="white" transform="translate(0 31)"/>
</clipPath>
</defs>
</svg>
