<?xml version="1.0" encoding="utf-8"?>
<svg xmlns="http://www.w3.org/2000/svg" viewBox="0 0 1256 300.7" width="1256px" height="300.7px">
  <defs>
    <clipPath id="clippath103" transform="">
      <path d="M 98 2398 L 239.5 2398 L 239.5 2438 L 98 2438" style="fill: none; clip-rule: nonzero;"/>
    </clipPath>
  </defs>
  <g transform="matrix(8.876325, 0, 0, -8.876325, -869.879822, 21639.556641)" style="clip-path: url(&quot;#clippath103&quot;);">
    <path d="M 118.949798584 2430.8520507813 L 116.3904037476 2418.0720214844 L 113.5162963867 2430.8520507813 L 108.5272979736 2430.8520507813 L 105.6532974243 2418.0720214844 L 103.0938034058 2430.8520507813 L 98 2430.8520507813 L 102.1529998779 2411.330078125 L 108.0828018188 2411.330078125 L 110.9819030762 2424.29296875 L 113.882598877 2411.330078125 L 119.6808013916 2411.330078125 L 123.8087997437 2430.8520507813 L 118.949798584 2430.8520507813" style="fill-opacity: 1; fill: rgb(0, 83, 226);"/>
    <path d="M 130.0390930176 2427.2590332031 C 126.8786010742 2427.2590332031 124.6573028564 2426.1918945313 123.8479995728 2425.4370117188 L 123.8479995728 2421.2729492188 C 124.7888031006 2422.1059570313 126.7736968994 2423.3291015625 129.3863983154 2423.3291015625 C 131.0065002441 2423.3291015625 131.6060943604 2422.8859863281 131.6060943604 2421.9750976563 C 131.6060943604 2421.1931152344 130.7702026367 2420.8811035156 128.4454956055 2420.3869628906 C 124.9187011719 2419.6579589844 122.8821029663 2418.3820800781 122.8821029663 2415.3369140625 C 122.8821029663 2412.5258789063 124.7370986938 2410.8869628906 127.4280014038 2410.8869628906 C 129.6806030273 2410.8869628906 131.0269012451 2411.9289550781 131.7642059326 2413.3278808594 L 131.7642059326 2411.330078125 L 136.6231994629 2411.330078125 L 136.6231994629 2420.9089355469 C 136.6231994629 2425.3081054688 134.3251953125 2427.2609863281 130.0406951904 2427.2609863281 M 129.3596954346 2414.0358886719 C 128.2106933594 2414.0358886719 127.5830001831 2414.7399902344 127.5830001831 2415.7019042969 C 127.5830001831 2416.9519042969 128.5755004883 2417.4460449219 129.8294067383 2417.8889160156 C 130.4837036133 2418.1340332031 131.136505127 2418.3879394531 131.579498291 2418.7739257813 L 131.579498291 2416.6130371094 C 131.579498291 2414.9741210938 130.7169036865 2414.0358886719 129.3596954346 2414.0358886719" style="fill-opacity: 1; fill: rgb(0, 83, 226);"/>
    <path d="M 138.4391021729 2411.330078125 L 143.4812011719 2411.330078125 L 143.4812011719 2430.8520507813 L 138.4391021729 2430.8520507813" style="fill-opacity: 1; fill: rgb(0, 83, 226);"/>
    <path d="M 163.7140960693 2427.2080078125 C 161.2673950195 2427.2080078125 159.6878967285 2425.7429199219 158.8612976074 2423.7919921875 C 158.4183044434 2425.8820800781 156.9436950684 2427.2080078125 154.8851928711 2427.2080078125 C 152.5527954102 2427.2080078125 151.0312042236 2425.8520507813 150.2610015869 2423.9479980469 L 150.2610015869 2426.7648925781 L 145.2971038818 2426.7648925781 L 145.2971038818 2411.330078125 L 150.3392944336 2411.330078125 L 150.3392944336 2419.8940429688 C 150.3392944336 2422.0029296875 151.0453033447 2423.1989746094 152.5590057373 2423.1989746094 C 153.7863006592 2423.1989746094 154.2042999268 2422.3659667969 154.2042999268 2421.0649414063 L 154.2042999268 2411.330078125 L 159.2463989258 2411.330078125 L 159.2463989258 2419.8940429688 C 159.2463989258 2422.0029296875 159.9523925781 2423.1989746094 161.4662017822 2423.1989746094 C 162.6934967041 2423.1989746094 163.1114044189 2422.3659667969 163.1114044189 2421.0649414063 L 163.1114044189 2411.330078125 L 168.1535949707 2411.330078125 L 168.1535949707 2421.7670898438 C 168.1535949707 2425.0209960938 166.6116943359 2427.2080078125 163.7124938965 2427.2080078125" style="fill-opacity: 1; fill: rgb(0, 83, 226);"/>
    <path d="M 176.4095001221 2427.2590332031 C 173.2489929199 2427.2590332031 171.0276947021 2426.1918945313 170.2183990479 2425.4370117188 L 170.2183990479 2421.2729492188 C 171.1591949463 2422.1059570313 173.1441040039 2423.3291015625 175.7568054199 2423.3291015625 C 177.3769989014 2423.3291015625 177.9765014648 2422.8859863281 177.9765014648 2421.9750976563 C 177.9765014648 2421.1931152344 177.1405944824 2420.8811035156 174.81590271 2420.3869628906 C 171.2890930176 2419.6579589844 169.2525024414 2418.3820800781 169.2525024414 2415.3369140625 C 169.2525024414 2412.5258789063 171.1074981689 2410.8869628906 173.7984008789 2410.8869628906 C 176.0511016846 2410.8869628906 177.3972930908 2411.9289550781 178.1345977783 2413.3278808594 L 178.1345977783 2411.330078125 L 182.9936065674 2411.330078125 L 182.9936065674 2420.9089355469 C 182.9936065674 2425.3081054688 180.695602417 2427.2609863281 176.4111022949 2427.2609863281 M 175.7301025391 2414.0358886719 C 174.5811004639 2414.0358886719 173.9533996582 2414.7399902344 173.9533996582 2415.7019042969 C 173.9533996582 2416.9519042969 174.9459075928 2417.4460449219 176.199798584 2417.8889160156 C 176.854095459 2418.1340332031 177.5068969727 2418.3879394531 177.9499053955 2418.7739257813 L 177.9499053955 2416.6130371094 C 177.9499053955 2414.9741210938 177.0872955322 2414.0358886719 175.7301025391 2414.0358886719" style="fill-opacity: 1; fill: rgb(0, 83, 226);"/>
    <path d="M 189.6544036865 2422.4040527344 L 189.6544036865 2426.7648925781 L 184.7171020508 2426.7648925781 L 184.7171020508 2411.330078125 L 189.7592926025 2411.330078125 L 189.7592926025 2417.8889160156 C 189.7592926025 2420.9089355469 191.6392974854 2421.7160644531 193.4427032471 2421.7160644531 C 194.0437927246 2421.7160644531 194.6183013916 2421.6379394531 194.879699707 2421.5600585938 L 194.879699707 2426.8688964844 C 192.0431976318 2427.0048828125 190.3197021484 2425.1999511719 189.6560058594 2422.4050292969" style="fill-opacity: 1; fill: rgb(0, 83, 226);"/>
    <path d="M 204.4913024902 2422.8610839844 L 204.4913024902 2426.7648925781 L 201.2774963379 2426.7648925781 L 201.2774963379 2429.7580566406 L 196.2353973389 2429.7580566406 L 196.2353973389 2416.4838867188 C 196.2353973389 2412.7619628906 198.3518066406 2411.0180664063 201.7205047607 2411.0180664063 C 203.2875061035 2411.0180664063 204.1233978271 2411.330078125 204.4897003174 2411.5639648438 L 204.4897003174 2415.4418945313 C 204.2017059326 2415.2338867188 203.7321014404 2415.0769042969 203.1309967041 2415.0769042969 C 202.0070037842 2415.0500488281 201.2760009766 2415.544921875 201.2760009766 2417.1860351563 L 201.2760009766 2422.8610839844 L 204.4897003174 2422.8610839844" style="fill-opacity: 1; fill: rgb(0, 83, 226);"/>
  </g>
  <g transform="matrix(8.876325, 0, 0, -8.876325, -869.879822, 21639.556641)" style="clip-path: url(&quot;#clippath103&quot;);">
    <path d="M 230.62890625 2422.462890625 C 231.3379974365 2422.6079101563 237.6058959961 2425.4699707031 238.1647033691 2425.7919921875 C 239.4420928955 2426.5258789063 239.8804016113 2428.1550292969 239.141494751 2429.4279785156 C 238.4042053223 2430.6999511719 236.7698974609 2431.1369628906 235.4925994873 2430.4008789063 C 234.9337005615 2430.080078125 229.3123931885 2426.1000976563 228.8318023682 2425.5620117188 C 228.2808074951 2424.9450683594 228.1853027344 2424.0620117188 228.5937957764 2423.3579101563 C 229.000793457 2422.6550292969 229.81640625 2422.2958984375 230.62890625 2422.462890625" style="fill: rgb(255, 194, 35); fill-opacity: 1;"/>
    <path d="M 238.1647033691 2416.126953125 C 237.6058959961 2416.4479980469 231.3363952637 2419.3100585938 230.62890625 2419.455078125 C 229.81640625 2419.6220703125 229.0023956299 2419.2619628906 228.5937957764 2418.5600585938 C 228.1867980957 2417.8559570313 228.2823028564 2416.9741210938 228.8318023682 2416.3559570313 C 229.3123931885 2415.8181152344 234.9337005615 2411.8391113281 235.4925994873 2411.5170898438 C 236.7698974609 2410.7819824219 238.4026947021 2411.2180175781 239.141494751 2412.4909667969 C 239.8787994385 2413.7629394531 239.4420928955 2415.3898925781 238.1647033691 2416.126953125" style="fill: rgb(255, 194, 35); fill-opacity: 1;"/>
    <path d="M 224.4235992432 2416.1608886719 C 223.6096038818 2416.1608886719 222.8894958496 2415.6369628906 222.6280975342 2414.8540039063 C 222.3995056152 2414.1689453125 221.7530059814 2407.3291015625 221.7530059814 2406.6860351563 C 221.7530059814 2405.2170410156 222.949005127 2404.0249023438 224.4235992432 2404.0249023438 C 225.8981933594 2404.0249023438 227.0941925049 2405.2170410156 227.0941925049 2406.6860351563 C 227.0941925049 2407.330078125 226.4476928711 2414.1708984375 226.2191009521 2414.8540039063 C 225.9577026367 2415.6379394531 225.2375946045 2416.1608886719 224.4235992432 2416.1608886719" style="fill: rgb(255, 194, 35); fill-opacity: 1;"/>
    <path d="M 218.216796875 2419.455078125 C 217.507598877 2419.3100585938 211.2398071289 2416.4479980469 210.6808929443 2416.126953125 C 209.4035949707 2415.3920898438 208.9651947021 2413.7629394531 209.7041015625 2412.4909667969 C 210.44140625 2411.2180175781 212.0756988525 2410.7810058594 213.3531036377 2411.5170898438 C 213.911895752 2411.8391113281 219.5332946777 2415.8181152344 220.0139007568 2416.3559570313 C 220.5648956299 2416.9741210938 220.6604003906 2417.8559570313 220.2518005371 2418.5600585938 C 219.8448028564 2419.2629394531 219.0292053223 2419.6220703125 218.216796875 2419.455078125" style="fill: rgb(255, 194, 35); fill-opacity: 1;"/>
    <path d="M 213.3515014648 2430.4030761719 C 212.0740966797 2431.1369628906 210.44140625 2430.7019042969 209.7024993896 2429.4289550781 C 208.9651947021 2428.1560058594 209.4019927979 2426.5290527344 210.679397583 2425.79296875 C 211.2382049561 2425.4719238281 217.507598877 2422.6088867188 218.2151947021 2422.4641113281 C 219.0276947021 2422.2971191406 219.8417053223 2422.6579589844 220.2501983643 2423.3601074219 C 220.6571960449 2424.0629882813 220.561706543 2424.9460449219 220.012298584 2425.5639648438 C 219.5316925049 2426.1020507813 213.9102935791 2430.0810546875 213.3515014648 2430.4030761719" style="fill: rgb(255, 194, 35); fill-opacity: 1;"/>
    <path d="M 224.4235992432 2437.8959960938 C 222.949005127 2437.8959960938 221.7530059814 2436.7041015625 221.7530059814 2435.2351074219 C 221.7530059814 2434.5910644531 222.3995056152 2427.7509765625 222.6280975342 2427.0681152344 C 222.8894958496 2426.2829589844 223.6096038818 2425.7600097656 224.4235992432 2425.7600097656 C 225.2375946045 2425.7600097656 225.9577026367 2426.2839355469 226.2191009521 2427.0681152344 C 226.4476928711 2427.751953125 227.0941925049 2434.5920410156 227.0941925049 2435.2351074219 C 227.0941925049 2436.7041015625 225.8981933594 2437.8959960938 224.4235992432 2437.8959960938" style="fill: rgb(255, 194, 35); fill-opacity: 1;"/>
  </g>
</svg>