<svg width="100" height="100" viewBox="0 0 100 100" fill="none" xmlns="http://www.w3.org/2000/svg">
<g clip-path="url(#clip0_4_18)">
<rect width="100" height="100" fill="white"/>
<path d="M0 100H100V0H0V100Z" fill="#DD1E25"/>
<path d="M86.1823 61.5253C86.1823 57.5074 84.5247 55.1682 81.4604 55.1682C78.3948 55.1682 76.7384 57.5074 76.7384 61.5253C76.7384 65.567 78.3723 67.8824 81.4604 67.8824C84.5472 67.8824 86.1823 65.567 86.1823 61.5253ZM89.9057 61.5253C89.9057 66.4745 86.387 69.9482 81.4604 69.9482C76.5562 69.9482 73.015 66.4745 73.015 61.5253C73.015 56.5987 76.5786 53.1025 81.4604 53.1025C86.3633 53.1025 89.9057 56.5987 89.9057 61.5253ZM64.3862 62.2517C64.3862 62.7049 64.4548 63.0007 64.6358 63.3639H67.3382V67.3818C66.4532 67.7463 65.567 67.9049 64.6595 67.9049C61.3892 67.9049 59.6867 65.567 59.6867 61.5253C59.6867 57.4836 61.3892 55.1457 64.4773 55.1457C66.5431 55.1457 67.7463 56.168 68.4503 57.938L68.7 58.5733H70.3351V54.5104C68.2918 53.5343 66.4532 53.1025 64.3188 53.1025C59.3234 53.1025 55.9645 56.4401 55.9645 61.5478C55.9645 66.6792 59.2336 69.9482 64.3188 69.9482C66.3384 69.9482 68.4279 69.3803 70.6746 68.2681V61.1846H64.6358C64.4548 61.5478 64.3862 61.8212 64.3862 62.2517ZM50.5823 58.1201C50.5823 56.4625 49.56 55.5776 47.5167 55.5776H44.838V60.6852H47.5167C49.5375 60.6852 50.5823 59.7541 50.5823 58.1201ZM32.8053 62.7511L30.5798 56.7347L28.3555 62.7511H32.8053ZM54.9859 67.7001C55.1232 67.9497 55.1906 68.2455 55.1906 68.6313C55.1906 69.017 55.1232 69.3128 54.9859 69.5625C54.4866 69.6299 53.8513 69.6748 53.216 69.6748C51.0141 69.6748 49.9469 68.7674 49.696 66.6554L49.6062 65.8616C49.334 63.5686 48.5839 62.6836 46.0875 62.6836H44.838V67.5192H46.9949V69.4938H32.7142V67.5192H34.5765L33.5318 64.6808H27.629L26.5843 67.5192H28.4915V69.4938H22.4752V67.5192H24.0641L29.6261 53.6017H32.6455L38.3224 67.5192H41.4554V55.5776H39.5256V53.6017H48.6525C51.8991 53.6017 54.0098 55.2142 54.0098 57.8019C54.0098 60.3669 51.8991 61.73 49.8558 61.8211V61.8886C51.9216 62.0471 52.7616 63.2054 52.9663 64.999L53.0562 65.8391C53.1923 67.156 53.4656 67.7464 54.5091 67.7464C54.6913 67.7464 54.8499 67.7226 54.9859 67.7001ZM20.3857 55.5776C21.906 55.5776 22.429 56.2354 22.9283 58.1427L23.0868 58.7556H24.7219V53.6017H11.0329V55.5776H12.9626V67.5192H11.0329V69.4938H18.6145V67.5192H16.344V62.8871H21.021C21.2032 62.5014 21.2706 62.2069 21.2706 61.7525C21.2706 61.3206 21.2032 61.0485 21.021 60.6628H16.344V55.5776H20.3857ZM89.3615 40.9773C89.3615 38.4797 87.8399 36.7547 84.9791 36.0969L82.0957 35.4378C80.4156 35.0521 79.7129 34.3931 79.7129 33.2822C79.7129 31.9416 80.7801 31.1015 82.8683 31.1015C84.9566 31.1015 86.1823 31.8517 86.6591 33.6216L86.8639 34.3931H88.4977V30.4662C86.6591 29.5349 84.7069 29.0595 82.731 29.0595C78.8491 29.0595 76.3527 30.9206 76.3527 33.9162C76.3527 36.2329 77.8044 37.9355 80.5979 38.5483L83.4812 39.1837C85.3198 39.5931 86.0013 40.3195 86.0013 41.5228C86.0013 42.9982 84.8879 43.8158 82.6636 43.8158C80.1435 43.8158 78.8491 42.816 78.2824 40.91L77.9866 39.9326H76.3527V44.3837C78.4185 45.4047 80.3932 45.859 83.0493 45.859C86.8639 45.859 89.3615 43.9518 89.3615 40.9773ZM74.8299 39.9788H73.196L73.0138 40.7739C72.5594 42.7935 71.9241 43.4289 70.4262 43.4289H67.2708V31.4884H69.4277V29.5126H61.9571V31.4884H63.8881V43.4289H61.9571V45.4047H74.8299V39.9788ZM60.5267 39.9788H58.8916L58.7106 40.7739C58.2562 42.7935 57.6209 43.4289 56.123 43.4289H52.9663V31.4884H55.1232V29.5126H47.654V31.4884H49.5837V43.4289H47.654V45.4047H60.5267V39.9788ZM14.3244 45.4047L10.3276 31.4884H8.51147V29.5126H15.9133V31.4884H13.7789L16.4351 41.0684L19.613 29.5126H22.8833L26.1286 41.0909L28.7399 31.4884H26.5156V29.5126H45.7692V34.6664H44.134L43.9755 34.0535C43.475 32.1463 42.9532 31.4884 41.4329 31.4884H37.6646V36.2779H42.228C42.409 36.6636 42.4764 36.9369 42.4764 37.3675C42.4764 37.8219 42.409 38.1163 42.228 38.5034H37.6646V43.4289H41.5914C43.0668 43.4289 43.7259 42.7935 44.1802 40.7739L44.3612 39.9788H45.9963V45.4047H32.3522V43.4289H34.2819V31.4884H31.1464L27.1734 45.4047H24.0179L20.7938 33.8726L17.4798 45.4047H14.3244Z" fill="#FEFEFE"/>
</g>
<defs>
<clipPath id="clip0_4_18">
<rect width="100" height="100" fill="white"/>
</clipPath>
</defs>
</svg>
